<svg xmlns="http://www.w3.org/2000/svg" xmlns:xlink="http://www.w3.org/1999/xlink" width="2000" zoomAndPan="magnify" viewBox="0 0 1500 824.999997" height="1100" preserveAspectRatio="xMidYMid meet" version="1.0"><defs><clipPath id="d8faf79b55"><path d="M 786 613 L 870 613 L 870 658.132812 L 786 658.132812 Z M 786 613 " clip-rule="nonzero"/></clipPath><clipPath id="3c4c1b8d58"><path d="M 622 439 L 887.703125 439 L 887.703125 658.132812 L 622 658.132812 Z M 622 439 " clip-rule="nonzero"/></clipPath></defs><path fill="#bdbdbd" d="M 789.320312 654.941406 L 866.753906 654.941406 L 866.753906 616.195312 L 789.320312 616.195312 L 789.320312 654.941406 " fill-opacity="1" fill-rule="nonzero"/><g clip-path="url(#d8faf79b55)"><path stroke-linecap="round" transform="matrix(0.210501, 0, 0, -0.210385, 307.29031, 863.678525)" fill="none" stroke-linejoin="round" d="M 2289.919282 992.165287 L 2657.773313 992.165287 L 2657.773313 1176.33248 L 2289.919282 1176.33248 Z M 2289.919282 992.165287 " stroke="#181821" stroke-width="30" stroke-opacity="1" stroke-miterlimit="10"/></g><path fill="#bdbdbd" d="M 774.855469 329.101562 L 805.46875 357.320312 C 771.972656 395.710938 801.425781 469.015625 801.425781 469.015625 L 698.148438 431.039062 C 711.074219 377.175781 696.289062 357.320312 696.289062 357.320312 L 774.855469 329.101562 " fill-opacity="1" fill-rule="nonzero"/><path stroke-linecap="round" transform="matrix(0.210501, 0, 0, -0.210385, 307.29031, 863.678525)" fill="none" stroke-linejoin="round" d="M 2221.202968 2540.941011 L 2366.633632 2406.812188 C 2207.507954 2224.334602 2347.427209 1875.904161 2347.427209 1875.904161 L 1856.800526 2056.413633 C 1918.205409 2312.435553 1847.967428 2406.812188 1847.967428 2406.812188 Z M 2221.202968 2540.941011 " stroke="#181821" stroke-width="30" stroke-opacity="1" stroke-miterlimit="10"/><path fill="#bdbdbd" d="M 751.332031 463.984375 L 761.792969 466.566406 L 793.003906 340.464844 L 782.546875 337.878906 L 751.332031 463.984375 " fill-opacity="1" fill-rule="nonzero"/><path stroke-linecap="round" transform="matrix(0.210501, 0, 0, -0.210385, 307.29031, 863.678525)" fill="none" stroke-linejoin="round" d="M 2109.453134 1899.818602 L 2159.148593 1887.545741 L 2307.418467 2486.92928 L 2257.741564 2499.220709 Z M 2109.453134 1899.818602 " stroke="#181821" stroke-width="30" stroke-opacity="1" stroke-miterlimit="10"/><path fill="#bdbdbd" d="M 695.871094 460.8125 L 706.328125 463.402344 L 737.542969 337.292969 L 727.082031 334.707031 L 695.871094 460.8125 " fill-opacity="1" fill-rule="nonzero"/><path stroke-linecap="round" transform="matrix(0.210501, 0, 0, -0.210385, 307.29031, 863.678525)" fill="none" stroke-linejoin="round" d="M 1845.981836 1914.895098 L 1895.658739 1902.585102 L 2043.947169 2502.005776 L 1994.25171 2514.297204 Z M 1845.981836 1914.895098 " stroke="#181821" stroke-width="30" stroke-opacity="1" stroke-miterlimit="10"/><path fill="#bdbdbd" d="M 756.972656 422.648438 C 756.972656 434.300781 747.523438 443.746094 735.875 443.746094 C 724.214844 443.746094 714.765625 434.300781 714.765625 422.648438 C 714.765625 410.996094 724.214844 401.558594 735.875 401.558594 C 747.523438 401.558594 756.972656 410.996094 756.972656 422.648438 " fill-opacity="1" fill-rule="nonzero"/><path stroke-linecap="round" transform="matrix(0.210501, 0, 0, -0.210385, 307.29031, 863.678525)" fill="none" stroke-linejoin="round" d="M 2136.249341 2096.295791 C 2136.249341 2040.910093 2091.360127 1996.014814 2036.02336 1996.014814 C 1980.630923 1996.014814 1935.741708 2040.910093 1935.741708 2096.295791 C 1935.741708 2151.681489 1980.630923 2196.539634 2036.02336 2196.539634 C 2091.360127 2196.539634 2136.249341 2151.681489 2136.249341 2096.295791 Z M 2136.249341 2096.295791 " stroke="#181821" stroke-width="30" stroke-opacity="1" stroke-miterlimit="10"/><path fill="#bdbdbd" d="M 724.445312 410.996094 C 723.300781 409.851562 722.296875 408.628906 721.351562 407.371094 C 717.304688 411.207031 714.765625 416.625 714.765625 422.648438 C 714.765625 434.300781 724.214844 443.746094 735.875 443.746094 C 741.761719 443.746094 747.082031 441.328125 750.90625 437.441406 C 742.089844 428.621094 733.265625 419.8125 724.445312 410.996094 " fill-opacity="1" fill-rule="nonzero"/><path stroke-linecap="round" transform="matrix(0.210501, 0, 0, -0.210385, 307.29031, 863.678525)" fill="none" stroke-linejoin="round" d="M 1981.725782 2151.681489 C 1976.288601 2157.121653 1971.51947 2162.933159 1967.028693 2168.91177 C 1947.803713 2150.678865 1935.741708 2124.926279 1935.741708 2096.295791 C 1935.741708 2040.910093 1980.630923 1996.014814 2036.02336 1996.014814 C 2063.988654 1996.014814 2089.263193 2007.507857 2107.430428 2025.982134 C 2065.547436 2067.906675 2023.627331 2109.775515 1981.725782 2151.681489 Z M 1981.725782 2151.681489 " stroke="#181821" stroke-width="30" stroke-opacity="1" stroke-miterlimit="10"/><path fill="#bdbdbd" d="M 743.535156 422.648438 C 743.535156 426.890625 740.109375 430.316406 735.875 430.316406 C 731.636719 430.316406 728.203125 426.890625 728.203125 422.648438 C 728.203125 418.414062 731.636719 414.988281 735.875 414.988281 C 740.109375 414.988281 743.535156 418.414062 743.535156 422.648438 " fill-opacity="1" fill-rule="nonzero"/><path stroke-linecap="round" transform="matrix(0.210501, 0, 0, -0.210385, 307.29031, 863.678525)" fill="none" stroke-linejoin="round" d="M 2072.413501 2096.295791 C 2072.413501 2076.131906 2056.139073 2059.848548 2036.02336 2059.848548 C 2015.907648 2059.848548 1999.577549 2076.131906 1999.577549 2096.295791 C 1999.577549 2116.422542 2015.907648 2132.7059 2036.02336 2132.7059 C 2056.139073 2132.7059 2072.413501 2116.422542 2072.413501 2096.295791 Z M 2072.413501 2096.295791 " stroke="#181821" stroke-width="30" stroke-opacity="1" stroke-miterlimit="10"/><path fill="#bdbdbd" d="M 759.199219 180.671875 C 738.601562 176.25 693.15625 188.488281 676.941406 201.613281 C 640.210938 231.34375 630.121094 293.664062 656.796875 337.34375 C 662.640625 346.917969 675.675781 356.5 687.300781 357.320312 C 687.359375 357.332031 790.257812 364.652344 801.6875 273.21875 C 801.6875 273.21875 807.410156 191.011719 759.199219 180.671875 " fill-opacity="1" fill-rule="nonzero"/><path stroke-linecap="round" transform="matrix(0.210501, 0, 0, -0.210385, 307.29031, 863.678525)" fill="none" stroke-linejoin="round" d="M 2146.826791 3246.454168 C 2048.976098 3267.47214 1833.084769 3209.301375 1756.054951 3146.915876 C 1581.564135 3005.601579 1533.631584 2709.38186 1660.356861 2501.764403 C 1688.118029 2456.256409 1750.042506 2410.711281 1805.267931 2406.812188 C 1805.546285 2406.756486 2294.372945 2371.961717 2348.670523 2806.562129 C 2348.670523 2806.562129 2375.856426 3197.30702 2146.826791 3246.454168 Z M 2146.826791 3246.454168 " stroke="#181821" stroke-width="30" stroke-opacity="1" stroke-miterlimit="10"/><path fill="#bdbdbd" d="M 739.8125 285.191406 L 707.585938 285.191406 C 704.4375 294.460938 700.917969 303.65625 696.855469 312.574219 C 703.507812 316.097656 711.089844 318.105469 719.148438 318.105469 C 733.824219 318.105469 746.941406 311.472656 755.671875 301.042969 C 750.386719 295.757812 745.097656 290.46875 739.8125 285.191406 " fill-opacity="1" fill-rule="nonzero"/><path stroke-linecap="round" transform="matrix(0.210501, 0, 0, -0.210385, 307.29031, 863.678525)" fill="none" stroke-linejoin="round" d="M 2054.728746 2749.653928 L 1901.63407 2749.653928 C 1886.677184 2705.594169 1869.95739 2661.887185 1850.658182 2619.498466 C 1882.260635 2602.75093 1918.279637 2593.207434 1956.562584 2593.207434 C 2026.280972 2593.207434 2088.595144 2624.734392 2130.069883 2674.308583 C 2104.962357 2699.429887 2079.836273 2724.569758 2054.728746 2749.653928 Z M 2054.728746 2749.653928 " stroke="#181821" stroke-width="30" stroke-opacity="1" stroke-miterlimit="10"/><path fill="#bdbdbd" d="M 739.8125 234.535156 L 707.585938 234.535156 C 704.4375 225.265625 700.917969 216.066406 696.855469 207.152344 C 703.507812 203.617188 711.089844 201.613281 719.148438 201.613281 C 733.824219 201.613281 746.941406 208.242188 755.671875 218.679688 C 750.386719 223.964844 745.097656 229.25 739.8125 234.535156 " fill-opacity="1" fill-rule="nonzero"/><path stroke-linecap="round" transform="matrix(0.210501, 0, 0, -0.210385, 307.29031, 863.678525)" fill="none" stroke-linejoin="round" d="M 2054.728746 2990.432248 L 1901.63407 2990.432248 C 1886.677184 3034.492007 1869.95739 3078.217558 1850.658182 3120.58771 C 1882.260635 3137.390947 1918.279637 3146.915876 1956.562584 3146.915876 C 2026.280972 3146.915876 2088.595144 3115.407485 2130.069883 3065.796159 C 2104.962357 3040.674856 2079.836273 3015.553552 2054.728746 2990.432248 Z M 2054.728746 2990.432248 " stroke="#181821" stroke-width="30" stroke-opacity="1" stroke-miterlimit="10"/><path fill="#bdbdbd" d="M 682.171875 249.796875 L 696.855469 278.460938 C 690.03125 285.488281 683.453125 292.808594 677.359375 300.492188 C 671.183594 296.1875 665.9375 290.351562 662.265625 283.175781 C 655.578125 270.128906 655.503906 255.441406 660.816406 242.917969 C 667.929688 245.210938 675.050781 247.503906 682.171875 249.796875 " fill-opacity="1" fill-rule="nonzero"/><path stroke-linecap="round" transform="matrix(0.210501, 0, 0, -0.210385, 307.29031, 863.678525)" fill="none" stroke-linejoin="round" d="M 1780.902681 2917.890538 L 1850.658182 2781.645063 C 1818.239225 2748.242827 1786.989354 2713.448058 1758.040543 2676.926546 C 1728.702036 2697.387505 1703.780078 2725.126772 1686.336564 2759.234558 C 1654.567099 2821.248715 1654.214517 2891.06106 1679.451943 2950.587224 C 1713.244113 2939.688328 1747.073397 2928.789433 1780.902681 2917.890538 Z M 1780.902681 2917.890538 " stroke="#181821" stroke-width="30" stroke-opacity="1" stroke-miterlimit="10"/><path fill="#bdbdbd" d="M 766.78125 259.113281 C 766.78125 285.40625 745.453125 306.722656 719.148438 306.722656 C 692.84375 306.722656 671.523438 285.40625 671.523438 259.113281 C 671.523438 232.824219 692.84375 211.515625 719.148438 211.515625 C 745.453125 211.515625 766.78125 232.824219 766.78125 259.113281 " fill-opacity="1" fill-rule="nonzero"/><path stroke-linecap="round" transform="matrix(0.210501, 0, 0, -0.210385, 307.29031, 863.678525)" fill="none" stroke-linejoin="round" d="M 2182.845793 2873.607974 C 2182.845793 2748.632736 2081.524953 2647.312001 1956.562584 2647.312001 C 1831.600215 2647.312001 1730.316489 2748.632736 1730.316489 2873.607974 C 1730.316489 2998.564644 1831.600215 3099.848245 1956.562584 3099.848245 C 2081.524953 3099.848245 2182.845793 2998.564644 2182.845793 2873.607974 Z M 2182.845793 2873.607974 " stroke="#181821" stroke-width="30" stroke-opacity="1" stroke-miterlimit="10"/><path fill="#bdbdbd" d="M 746.90625 259.113281 C 746.90625 274.441406 734.484375 286.859375 719.148438 286.859375 C 703.820312 286.859375 691.386719 274.441406 691.386719 259.113281 C 691.386719 243.796875 703.820312 231.371094 719.148438 231.371094 C 734.484375 231.371094 746.90625 243.796875 746.90625 259.113281 " fill-opacity="1" fill-rule="nonzero"/><path stroke-linecap="round" transform="matrix(0.210501, 0, 0, -0.210385, 307.29031, 863.678525)" fill="none" stroke-linejoin="round" d="M 2088.446688 2873.607974 C 2088.446688 2800.750622 2029.417093 2741.72577 1956.562584 2741.72577 C 1883.745189 2741.72577 1824.67848 2800.750622 1824.67848 2873.607974 C 1824.67848 2946.409623 1883.745189 3005.47161 1956.562584 3005.47161 C 2029.417093 3005.47161 2088.446688 2946.409623 2088.446688 2873.607974 Z M 2088.446688 2873.607974 " stroke="#181821" stroke-width="30" stroke-opacity="1" stroke-miterlimit="10"/><path fill="#bdbdbd" d="M 732.097656 259.113281 C 732.097656 266.257812 726.300781 272.050781 719.148438 272.050781 C 712.003906 272.050781 706.207031 266.257812 706.207031 259.113281 C 706.207031 251.972656 712.003906 246.179688 719.148438 246.179688 C 726.300781 246.179688 732.097656 251.972656 732.097656 259.113281 " fill-opacity="1" fill-rule="nonzero"/><path stroke-linecap="round" transform="matrix(0.210501, 0, 0, -0.210385, 307.29031, 863.678525)" fill="none" stroke-linejoin="round" d="M 2018.078808 2873.607974 C 2018.078808 2839.648724 1990.540324 2812.113696 1956.562584 2812.113696 C 1922.621959 2812.113696 1895.083474 2839.648724 1895.083474 2873.607974 C 1895.083474 2907.548656 1922.621959 2935.083684 1956.562584 2935.083684 C 1990.540324 2935.083684 2018.078808 2907.548656 2018.078808 2873.607974 Z M 2018.078808 2873.607974 " stroke="#181821" stroke-width="30" stroke-opacity="1" stroke-miterlimit="10"/><path fill="#bdbdbd" d="M 857.9375 301.132812 L 858.613281 296.402344 C 858.613281 296.402344 849.296875 288.90625 845.136719 281.164062 C 845.136719 281.164062 838.746094 266.257812 835.390625 255.234375 C 832.5 243.984375 828.050781 232.636719 822.015625 220.039062 C 806.019531 186.628906 792.632812 170.71875 761.222656 180.894531 C 749.613281 184.65625 739.621094 194.347656 732.105469 207.683594 C 746.949219 216.445312 757.078125 232.621094 757.078125 250.804688 C 757.078125 272.566406 742.582031 291.429688 722.863281 298.175781 C 736.859375 317.882812 751.914062 338.035156 770.300781 352.398438 C 772.414062 354.042969 774.519531 355.679688 776.625 357.320312 L 831.578125 357.320312 C 831.578125 357.320312 842.226562 358.875 842.226562 352.835938 L 838.453125 302.917969 C 838.460938 302.867188 838.46875 302.820312 838.46875 302.769531 L 857.9375 301.132812 " fill-opacity="1" fill-rule="nonzero"/><path stroke-linecap="round" transform="matrix(0.210501, 0, 0, -0.210385, 307.29031, 863.678525)" fill="none" stroke-linejoin="round" d="M 2615.890321 2673.88154 L 2619.10067 2696.366314 C 2619.10067 2696.366314 2574.842391 2731.996603 2555.07926 2768.796621 C 2555.07926 2768.796621 2524.720122 2839.648724 2508.798276 2892.045117 C 2495.04759 2945.518402 2473.911247 2999.455865 2445.240789 3059.334804 C 2369.250159 3218.139321 2305.655559 3293.763172 2156.439281 3245.395843 C 2101.288084 3227.515713 2053.819456 3181.450706 2018.115922 3118.062582 C 2088.632258 3076.416548 2136.750378 2999.530133 2136.750378 2913.100223 C 2136.750378 2809.662837 2067.88561 2720.002248 1974.210225 2687.936844 C 2040.699707 2594.26576 2112.218116 2498.478024 2199.565588 2430.20675 C 2209.604887 2422.389995 2219.607072 2414.610375 2229.609258 2406.812188 L 2490.668155 2406.812188 C 2490.668155 2406.812188 2541.254347 2399.422477 2541.254347 2428.127233 L 2523.328352 2665.396369 C 2523.365466 2665.637742 2523.40258 2665.860547 2523.40258 2666.10192 Z M 2615.890321 2673.88154 " stroke="#181821" stroke-width="30" stroke-opacity="1" stroke-miterlimit="10"/><path stroke-linecap="round" transform="matrix(0.210501, 0, 0, -0.210385, 307.29031, 863.678525)" fill="none" stroke-linejoin="round" d="M 2426.906542 2882.148846 C 2426.906542 2864.231582 2419.650782 2851.25317 2394.172117 2851.25317 C 2368.749122 2851.25317 2328.833165 2852.032988 2328.833165 2869.968819 C 2328.833165 2887.867516 2368.433654 2914.622726 2393.91232 2914.622726 C 2419.335314 2914.622726 2426.906542 2900.084677 2426.906542 2882.148846 Z M 2426.906542 2882.148846 " stroke="#181821" stroke-width="30" stroke-opacity="1" stroke-miterlimit="10"/><path stroke-linecap="round" transform="matrix(0.210501, 0, 0, -0.210385, 307.29031, 863.678525)" fill="none" stroke-linejoin="round" d="M 2299.680227 2928.36239 C 2299.680227 2928.36239 2349.691155 2966.220733 2419.05696 2966.220733 " stroke="#181821" stroke-width="30" stroke-opacity="1" stroke-miterlimit="10"/><path fill="#bdbdbd" d="M 683.78125 444.535156 L 689.210938 422.648438 L 804.210938 451.871094 L 807.296875 467.183594 L 683.78125 444.535156 " fill-opacity="1" fill-rule="nonzero"/><path stroke-linecap="round" transform="matrix(0.210501, 0, 0, -0.210385, 307.29031, 863.678525)" fill="none" stroke-linejoin="round" d="M 1788.548136 1992.264257 L 1814.34227 2096.295791 L 2360.6583 1957.395219 L 2375.318275 1884.612137 Z M 1788.548136 1992.264257 " stroke="#181821" stroke-width="30" stroke-opacity="1" stroke-miterlimit="10"/><path fill="#bdbdbd" d="M 848.082031 616.195312 L 884.359375 616.195312 C 879.925781 571.207031 876.351562 517.863281 838.820312 490.265625 C 828.328125 482.550781 817.8125 474.851562 807.296875 467.183594 L 686.078125 442.644531 C 616.28125 498.074219 625.699219 654.941406 625.699219 654.941406 L 799.367188 654.941406 C 804.589844 632.960938 824.671875 616.195312 848.082031 616.195312 " fill-opacity="1" fill-rule="nonzero"/><g clip-path="url(#3c4c1b8d58)"><path stroke-linecap="round" transform="matrix(0.210501, 0, 0, -0.210385, 307.29031, 863.678525)" fill="none" stroke-linejoin="round" d="M 2569.071186 1176.33248 L 2741.409398 1176.33248 C 2720.347282 1390.16992 2703.367691 1643.722414 2525.072704 1774.899066 C 2475.228789 1811.569114 2425.273532 1848.164894 2375.318275 1884.612137 L 1799.459612 2001.25074 C 1467.884379 1737.783408 1512.625139 992.165287 1512.625139 992.165287 L 2337.647707 992.165287 C 2362.458323 1096.642431 2457.859502 1176.33248 2569.071186 1176.33248 Z M 2569.071186 1176.33248 " stroke="#181821" stroke-width="30" stroke-opacity="1" stroke-miterlimit="10"/></g><path fill="#bdbdbd" d="M 745.839844 654.941406 L 751.363281 593.101562 L 648.984375 593.101562 L 654.519531 654.941406 L 745.839844 654.941406 " fill-opacity="1" fill-rule="nonzero"/><path fill="#0d0d0d" d="M 657.15625 654.941406 L 651.863281 595.738281 L 748.488281 595.738281 L 743.191406 654.941406 L 748.480469 654.941406 L 753.988281 593.339844 C 754.054688 592.601562 753.808594 591.878906 753.3125 591.328125 C 752.8125 590.785156 752.105469 590.472656 751.363281 590.472656 L 648.984375 590.472656 C 648.242188 590.472656 647.535156 590.785156 647.042969 591.328125 C 646.542969 591.878906 646.296875 592.601562 646.359375 593.339844 L 651.871094 654.941406 L 657.15625 654.941406 " fill-opacity="1" fill-rule="nonzero"/><path fill="#bdbdbd" d="M 748.386719 626.394531 L 751.363281 593.101562 L 648.984375 593.101562 L 651.960938 626.394531 L 748.386719 626.394531 " fill-opacity="1" fill-rule="nonzero"/><path fill="#0d0d0d" d="M 654.371094 623.761719 L 745.980469 623.761719 L 748.488281 595.738281 L 651.863281 595.738281 Z M 748.386719 629.023438 L 651.960938 629.023438 C 650.597656 629.023438 649.460938 627.980469 649.335938 626.632812 L 646.359375 593.339844 C 646.296875 592.601562 646.542969 591.878906 647.042969 591.328125 C 647.535156 590.785156 648.242188 590.472656 648.984375 590.472656 L 751.363281 590.472656 C 752.105469 590.472656 752.8125 590.785156 753.3125 591.328125 C 753.808594 591.878906 754.054688 592.601562 753.988281 593.339844 L 751.011719 626.632812 C 750.886719 627.980469 749.753906 629.023438 748.386719 629.023438 " fill-opacity="1" fill-rule="nonzero"/><path fill="#bdbdbd" d="M 758.46875 602.71875 C 759.882812 590.875 760.65625 578.414062 760.65625 565.539062 C 760.65625 488.433594 733.578125 458.972656 700.179688 458.972656 C 666.769531 458.972656 639.691406 488.433594 639.691406 565.539062 C 639.691406 578.414062 640.464844 590.875 641.878906 602.71875 L 758.46875 602.71875 " fill-opacity="1" fill-rule="nonzero"/><path fill="#0d0d0d" d="M 644.222656 600.078125 L 756.125 600.078125 C 757.382812 588.769531 758.023438 577.167969 758.023438 565.539062 C 758.023438 498.519531 737.476562 461.601562 700.179688 461.601562 C 662.871094 461.601562 642.324219 498.519531 642.324219 565.539062 C 642.324219 577.160156 642.964844 588.761719 644.222656 600.078125 Z M 758.46875 605.347656 L 641.878906 605.347656 C 640.546875 605.347656 639.421875 604.351562 639.265625 603.027344 C 637.800781 590.777344 637.0625 578.152344 637.0625 565.539062 C 637.0625 528.746094 643.164062 500.613281 655.191406 481.917969 C 665.964844 465.183594 681.519531 456.34375 700.179688 456.34375 C 718.835938 456.34375 734.386719 465.183594 745.15625 481.917969 C 757.1875 500.613281 763.289062 528.746094 763.289062 565.539062 C 763.289062 578.167969 762.546875 590.777344 761.085938 603.027344 C 760.929688 604.351562 759.808594 605.347656 758.46875 605.347656 " fill-opacity="1" fill-rule="nonzero"/><path fill="#bdbdbd" d="M 733.242188 606.84375 C 733.242188 625.09375 718.433594 639.886719 700.179688 639.886719 C 681.917969 639.886719 667.113281 625.09375 667.113281 606.84375 C 667.113281 588.597656 681.917969 573.796875 700.179688 573.796875 C 718.433594 573.796875 733.242188 588.597656 733.242188 606.84375 " fill-opacity="1" fill-rule="nonzero"/><path fill="#0d0d0d" d="M 700.179688 576.425781 C 683.394531 576.425781 669.746094 590.078125 669.746094 606.84375 C 669.746094 623.617188 683.394531 637.25 700.179688 637.25 C 716.953125 637.25 730.601562 623.617188 730.601562 606.84375 C 730.601562 590.078125 716.953125 576.425781 700.179688 576.425781 Z M 700.179688 642.515625 C 680.492188 642.515625 664.484375 626.515625 664.484375 606.84375 C 664.484375 587.167969 680.492188 571.167969 700.179688 571.167969 C 719.855469 571.167969 735.875 587.167969 735.875 606.84375 C 735.875 626.515625 719.855469 642.515625 700.179688 642.515625 " fill-opacity="1" fill-rule="nonzero"/><path fill="#bdbdbd" d="M 720.421875 606.84375 C 720.421875 618.019531 711.363281 627.082031 700.179688 627.082031 C 688.988281 627.082031 679.925781 618.019531 679.925781 606.84375 C 679.925781 595.664062 688.988281 586.609375 700.179688 586.609375 C 711.363281 586.609375 720.421875 595.664062 720.421875 606.84375 " fill-opacity="1" fill-rule="nonzero"/><path fill="#0d0d0d" d="M 700.179688 589.238281 C 690.460938 589.238281 682.558594 597.136719 682.558594 606.84375 C 682.558594 616.546875 690.460938 624.445312 700.179688 624.445312 C 709.890625 624.445312 717.792969 616.546875 717.792969 606.84375 C 717.792969 597.136719 709.890625 589.238281 700.179688 589.238281 Z M 700.179688 629.714844 C 687.558594 629.714844 677.292969 619.449219 677.292969 606.84375 C 677.292969 594.234375 687.558594 583.980469 700.179688 583.980469 C 712.792969 583.980469 723.0625 594.234375 723.0625 606.84375 C 723.0625 619.449219 712.792969 629.714844 700.179688 629.714844 " fill-opacity="1" fill-rule="nonzero"/><path fill="#0d0d0d" d="M 700.179688 589.238281 C 698.722656 589.238281 697.539062 588.054688 697.539062 586.609375 L 697.539062 501.371094 C 697.539062 500.628906 697.859375 499.914062 698.417969 499.414062 L 731.472656 469.707031 C 732.558594 468.734375 734.21875 468.828125 735.199219 469.894531 C 736.167969 470.980469 736.078125 472.648438 735 473.617188 L 702.808594 502.546875 L 702.808594 586.609375 C 702.808594 588.054688 701.632812 589.238281 700.179688 589.238281 " fill-opacity="1" fill-rule="nonzero"/><path fill="#0d0d0d" d="M 632.101562 654.941406 C 635.566406 626.210938 647.667969 604.441406 647.914062 604.015625 C 648.628906 602.75 648.1875 601.140625 646.929688 600.425781 C 645.664062 599.707031 644.058594 600.144531 643.335938 601.410156 C 642.832031 602.289062 630.910156 623.425781 626.957031 652.191406 C 626.832031 653.09375 626.71875 654.015625 626.609375 654.941406 L 632.101562 654.941406 " fill-opacity="1" fill-rule="nonzero"/></svg>