<svg xmlns="http://www.w3.org/2000/svg" xmlns:xlink="http://www.w3.org/1999/xlink" width="2000" zoomAndPan="magnify" viewBox="0 0 1500 1124.99995" height="1500" preserveAspectRatio="xMidYMid meet" version="1.0"><defs><clipPath id="01aa7195a8"><path d="M 274.71875 361 L 680 361 L 680 767 L 274.71875 767 Z M 274.71875 361 " clip-rule="nonzero"/></clipPath><clipPath id="81dd543463"><path d="M 740.804688 801.007812 L 953 801.007812 L 953 1012.464844 L 740.804688 1012.464844 Z M 740.804688 801.007812 " clip-rule="nonzero"/></clipPath><clipPath id="4c0070e939"><path d="M 820 445 L 1224.882812 445 L 1224.882812 850 L 820 850 Z M 820 445 " clip-rule="nonzero"/></clipPath><clipPath id="3beed6aa27"><path d="M 310 112.5 L 557 112.5 L 557 359 L 310 359 Z M 310 112.5 " clip-rule="nonzero"/></clipPath></defs><rect x="-150" width="1800" fill="#ffffff" y="-112.499995" height="1349.99994" fill-opacity="1"/><rect x="-150" width="1800" fill="#000000" y="-112.499995" height="1349.99994" fill-opacity="1"/><g clip-path="url(#01aa7195a8)"><path fill="#ccd6dd" d="M 477.160156 697.523438 C 403.472656 697.523438 343.742188 637.777344 343.742188 564.070312 C 343.742188 490.359375 403.472656 430.609375 477.160156 430.609375 C 550.84375 430.609375 610.578125 490.359375 610.578125 564.070312 C 610.578125 637.777344 550.84375 697.523438 477.160156 697.523438 Z M 633.265625 605.796875 C 635.675781 596.742188 642.769531 589.679688 651.863281 587.40625 L 678.804688 580.667969 C 679.253906 575.191406 679.480469 569.660156 679.480469 564.070312 C 679.480469 558.527344 679.257812 553.042969 678.816406 547.621094 L 651.882812 540.863281 C 642.792969 538.585938 635.703125 531.519531 633.296875 522.453125 C 633.269531 522.34375 633.238281 522.234375 633.207031 522.125 C 630.78125 513.070312 633.382812 503.414062 640.125 496.898438 L 660.117188 477.5625 C 655.378906 467.550781 649.84375 457.984375 643.59375 448.957031 L 616.835938 456.59375 C 607.820312 459.171875 598.15625 456.589844 591.542969 449.953125 C 591.464844 449.882812 591.394531 449.8125 591.328125 449.738281 C 584.695312 443.113281 582.125 433.441406 584.703125 424.429688 L 592.355469 397.667969 C 583.339844 391.40625 573.78125 385.867188 563.777344 381.117188 L 544.4375 401.101562 C 537.914062 407.839844 528.253906 410.433594 519.207031 408 C 519.097656 407.96875 518.988281 407.9375 518.878906 407.914062 C 509.820312 405.496094 502.761719 398.40625 500.488281 389.304688 L 493.753906 362.355469 C 488.28125 361.910156 482.746094 361.679688 477.160156 361.679688 C 471.625 361.679688 466.140625 361.90625 460.71875 362.339844 L 453.964844 389.289062 C 451.683594 398.382812 444.621094 405.472656 435.5625 407.878906 C 435.453125 407.90625 435.34375 407.9375 435.234375 407.964844 C 426.179688 410.394531 416.523438 407.789062 410.007812 401.050781 L 390.679688 381.046875 C 380.671875 385.792969 371.113281 391.328125 362.089844 397.582031 L 369.722656 424.347656 C 372.292969 433.363281 369.714844 443.027344 363.082031 449.648438 C 363.007812 449.71875 362.9375 449.792969 362.867188 449.863281 C 356.246094 456.496094 346.578125 459.070312 337.570312 456.488281 L 310.816406 448.828125 C 304.558594 457.855469 299.011719 467.410156 294.265625 477.421875 L 314.246094 496.769531 C 320.980469 503.289062 323.574219 512.953125 321.140625 522.007812 C 321.113281 522.117188 321.082031 522.226562 321.050781 522.335938 C 318.640625 531.394531 311.546875 538.457031 302.457031 540.730469 L 275.511719 547.46875 C 275.066406 552.941406 274.835938 558.476562 274.835938 564.070312 C 274.835938 569.605469 275.066406 575.089844 275.5 580.511719 L 302.4375 587.269531 C 311.53125 589.550781 318.613281 596.617188 321.023438 605.679688 C 321.050781 605.789062 321.078125 605.898438 321.109375 606.007812 C 323.535156 615.0625 320.933594 624.726562 314.195312 631.238281 L 294.203125 650.570312 C 298.941406 660.585938 304.472656 670.148438 310.726562 679.175781 L 337.488281 671.539062 C 346.5 668.96875 356.164062 671.542969 362.78125 678.179688 C 362.851562 678.253906 362.921875 678.324219 362.992188 678.394531 C 369.621094 685.019531 372.191406 694.691406 369.613281 703.703125 L 361.960938 730.464844 C 370.976562 736.726562 380.535156 742.269531 390.539062 747.019531 L 409.886719 727.03125 C 416.402344 720.296875 426.0625 717.703125 435.113281 720.132812 C 435.222656 720.164062 435.328125 720.195312 435.4375 720.222656 C 444.496094 722.636719 451.558594 729.734375 453.828125 738.828125 L 460.5625 765.78125 C 466.035156 766.222656 471.570312 766.457031 477.160156 766.457031 C 482.695312 766.457031 488.175781 766.226562 493.601562 765.792969 L 500.355469 738.84375 C 502.632812 729.75 509.699219 722.664062 518.753906 720.257812 C 518.871094 720.226562 518.976562 720.199219 519.085938 720.167969 C 528.136719 717.742188 537.796875 720.34375 544.308594 727.082031 L 563.636719 747.085938 C 573.644531 742.34375 583.207031 736.808594 592.230469 730.554688 L 584.59375 703.785156 C 582.023438 694.769531 584.601562 685.105469 591.238281 678.484375 C 591.308594 678.414062 591.378906 678.34375 591.449219 678.273438 C 598.078125 671.640625 607.738281 669.0625 616.75 671.644531 L 643.507812 679.304688 C 649.761719 670.277344 655.304688 660.722656 660.050781 650.710938 L 640.070312 631.363281 C 633.339844 624.84375 630.742188 615.183594 633.175781 606.125 C 633.207031 606.015625 633.234375 605.90625 633.265625 605.796875 " fill-opacity="1" fill-rule="nonzero"/></g><path fill="#ccd6dd" d="M 798 465.570312 C 729.738281 465.570312 674.40625 410.21875 674.40625 341.945312 C 674.40625 273.664062 729.738281 218.3125 798 218.3125 C 866.257812 218.3125 921.589844 273.664062 921.589844 341.945312 C 921.589844 410.21875 866.257812 465.570312 798 465.570312 Z M 942.609375 380.601562 C 944.847656 372.207031 951.410156 365.667969 959.835938 363.558594 L 984.796875 357.320312 C 985.210938 352.25 985.421875 347.121094 985.421875 341.945312 C 985.421875 336.816406 985.214844 331.734375 984.808594 326.707031 L 959.855469 320.449219 C 951.433594 318.335938 944.867188 311.789062 942.640625 303.394531 C 942.609375 303.292969 942.582031 303.195312 942.558594 303.089844 C 940.3125 294.703125 942.71875 285.753906 948.960938 279.71875 L 967.480469 261.808594 C 963.09375 252.53125 957.964844 243.675781 952.175781 235.3125 L 927.386719 242.382812 C 919.039062 244.769531 910.085938 242.378906 903.957031 236.230469 C 903.890625 236.164062 903.824219 236.101562 903.757812 236.03125 C 897.617188 229.898438 895.230469 220.9375 897.621094 212.589844 L 904.714844 187.796875 C 896.359375 182 887.507812 176.863281 878.242188 172.46875 L 860.320312 190.976562 C 854.28125 197.21875 845.332031 199.621094 836.949219 197.371094 C 836.84375 197.339844 836.746094 197.3125 836.644531 197.285156 C 828.257812 195.050781 821.714844 188.476562 819.609375 180.054688 L 813.371094 155.085938 C 808.300781 154.671875 803.175781 154.460938 798 154.460938 C 792.871094 154.460938 787.792969 154.667969 782.765625 155.070312 L 776.511719 180.035156 C 774.402344 188.460938 767.859375 195.027344 759.464844 197.253906 C 759.363281 197.28125 759.261719 197.3125 759.160156 197.339844 C 750.773438 199.585938 741.828125 197.175781 735.796875 190.929688 L 717.886719 172.40625 C 708.617188 176.792969 699.761719 181.921875 691.402344 187.71875 L 698.476562 212.515625 C 700.859375 220.863281 698.46875 229.820312 692.324219 235.953125 C 692.257812 236.019531 692.191406 236.085938 692.125 236.148438 C 685.988281 242.292969 677.03125 244.675781 668.6875 242.289062 L 643.90625 235.195312 C 638.105469 243.550781 632.976562 252.40625 628.578125 261.675781 L 647.085938 279.601562 C 653.324219 285.644531 655.726562 294.589844 653.472656 302.980469 C 653.445312 303.078125 653.417969 303.179688 653.386719 303.28125 C 651.152344 311.675781 644.585938 318.214844 636.160156 320.324219 L 611.199219 326.566406 C 610.792969 331.636719 610.578125 336.765625 610.578125 341.945312 C 610.578125 347.074219 610.785156 352.152344 611.191406 357.175781 L 636.140625 363.4375 C 644.5625 365.546875 651.128906 372.09375 653.359375 380.492188 C 653.386719 380.59375 653.414062 380.691406 653.441406 380.792969 C 655.6875 389.183594 653.277344 398.128906 647.039062 404.164062 L 628.515625 422.078125 C 632.90625 431.355469 638.03125 440.210938 643.824219 448.574219 L 668.613281 441.5 C 676.957031 439.117188 685.910156 441.507812 692.042969 447.652344 C 692.109375 447.71875 692.171875 447.785156 692.238281 447.851562 C 698.382812 453.988281 700.765625 462.945312 698.375 471.292969 L 691.28125 496.085938 C 699.636719 501.886719 708.488281 507.019531 717.761719 511.421875 L 735.679688 492.90625 C 741.71875 486.667969 750.664062 484.261719 759.046875 486.515625 C 759.152344 486.542969 759.253906 486.570312 759.355469 486.597656 C 767.746094 488.832031 774.285156 495.40625 776.390625 503.835938 L 782.625 528.796875 C 787.695312 529.210938 792.824219 529.425781 798 529.425781 C 803.125 529.425781 808.203125 529.214844 813.230469 528.8125 L 819.484375 503.847656 C 821.59375 495.421875 828.144531 488.859375 836.535156 486.625 C 836.636719 486.601562 836.734375 486.574219 836.835938 486.546875 C 845.222656 484.296875 854.171875 486.710938 860.207031 492.953125 L 878.109375 511.480469 C 887.382812 507.089844 896.234375 501.960938 904.597656 496.167969 L 897.519531 471.371094 C 895.140625 463.019531 897.53125 454.0625 903.675781 447.933594 C 903.742188 447.867188 903.804688 447.804688 903.871094 447.738281 C 910.007812 441.589844 918.964844 439.207031 927.3125 441.597656 L 952.09375 448.695312 C 957.890625 440.335938 963.027344 431.476562 967.421875 422.207031 L 948.910156 404.285156 C 942.675781 398.242188 940.273438 389.292969 942.527344 380.902344 C 942.558594 380.804688 942.582031 380.703125 942.609375 380.601562 " fill-opacity="1" fill-rule="nonzero"/><g clip-path="url(#81dd543463)"><path fill="#ccd6dd" d="M 846.609375 976.460938 C 808.121094 976.460938 776.917969 945.253906 776.917969 906.753906 C 776.917969 868.257812 808.121094 837.042969 846.609375 837.042969 C 885.097656 837.042969 916.292969 868.257812 916.292969 906.753906 C 916.292969 945.253906 885.097656 976.460938 846.609375 976.460938 Z M 928.144531 928.550781 C 929.40625 923.816406 933.109375 920.132812 937.859375 918.945312 L 951.933594 915.425781 C 952.160156 912.566406 952.285156 909.671875 952.285156 906.753906 C 952.285156 903.859375 952.167969 901 951.9375 898.164062 L 937.867188 894.636719 C 933.117188 893.445312 929.421875 889.753906 928.160156 885.019531 C 928.148438 884.964844 928.132812 884.90625 928.113281 884.847656 C 926.847656 880.121094 928.207031 875.074219 931.726562 871.667969 L 942.171875 861.570312 C 939.695312 856.339844 936.808594 851.347656 933.539062 846.628906 L 919.5625 850.617188 C 914.855469 851.964844 909.804688 850.617188 906.351562 847.152344 C 906.316406 847.113281 906.277344 847.074219 906.242188 847.039062 C 902.777344 843.578125 901.433594 838.527344 902.78125 833.820312 L 906.78125 819.839844 C 902.066406 816.574219 897.078125 813.675781 891.851562 811.195312 L 881.746094 821.636719 C 878.339844 825.15625 873.296875 826.511719 868.570312 825.238281 C 868.511719 825.21875 868.457031 825.207031 868.398438 825.191406 C 863.664062 823.929688 859.980469 820.222656 858.792969 815.476562 L 855.277344 801.398438 C 852.414062 801.164062 849.527344 801.042969 846.609375 801.042969 C 843.714844 801.042969 840.855469 801.160156 838.019531 801.386719 L 834.492188 815.460938 C 833.300781 820.214844 829.613281 823.917969 824.878906 825.175781 C 824.824219 825.191406 824.765625 825.207031 824.710938 825.21875 C 819.980469 826.488281 814.9375 825.128906 811.535156 821.609375 L 801.4375 811.160156 C 796.210938 813.636719 791.21875 816.527344 786.503906 819.796875 L 790.488281 833.777344 C 791.832031 838.484375 790.484375 843.535156 787.019531 846.992188 C 786.984375 847.03125 786.945312 847.066406 786.910156 847.105469 C 783.449219 850.566406 778.402344 851.914062 773.695312 850.566406 L 759.722656 846.566406 C 756.453125 851.277344 753.558594 856.269531 751.078125 861.496094 L 761.515625 871.605469 C 765.035156 875.011719 766.382812 880.058594 765.117188 884.789062 C 765.097656 884.84375 765.085938 884.902344 765.070312 884.960938 C 763.808594 889.6875 760.105469 893.378906 755.355469 894.566406 L 741.285156 898.082031 C 741.050781 900.941406 740.929688 903.832031 740.929688 906.753906 C 740.929688 909.648438 741.046875 912.511719 741.273438 915.347656 L 755.34375 918.875 C 760.09375 920.066406 763.796875 923.757812 765.054688 928.492188 C 765.070312 928.546875 765.082031 928.605469 765.097656 928.660156 C 766.367188 933.390625 765.007812 938.4375 761.488281 941.839844 L 751.042969 951.9375 C 753.519531 957.167969 756.410156 962.164062 759.675781 966.878906 L 773.652344 962.886719 C 778.359375 961.546875 783.40625 962.890625 786.863281 966.359375 C 786.902344 966.398438 786.9375 966.433594 786.976562 966.472656 C 790.4375 969.929688 791.785156 974.984375 790.433594 979.691406 L 786.4375 993.664062 C 791.148438 996.9375 796.140625 999.835938 801.363281 1002.3125 L 811.46875 991.875 C 814.871094 988.355469 819.921875 987 824.644531 988.273438 C 824.707031 988.285156 824.757812 988.304688 824.816406 988.316406 C 829.546875 989.582031 833.234375 993.285156 834.425781 998.035156 L 837.9375 1012.113281 C 840.796875 1012.347656 843.6875 1012.464844 846.609375 1012.464844 C 849.5 1012.464844 852.363281 1012.347656 855.195312 1012.117188 L 858.722656 998.042969 C 859.910156 993.292969 863.605469 989.59375 868.332031 988.335938 C 868.394531 988.320312 868.449219 988.304688 868.507812 988.292969 C 873.234375 987.023438 878.28125 988.378906 881.679688 991.902344 L 891.777344 1002.347656 C 897.003906 999.875 902 996.984375 906.710938 993.714844 L 902.722656 979.730469 C 901.382812 975.023438 902.726562 969.972656 906.191406 966.515625 C 906.230469 966.480469 906.265625 966.441406 906.300781 966.40625 C 909.761719 962.941406 914.8125 961.597656 919.515625 962.945312 L 933.492188 966.945312 C 936.761719 962.234375 939.65625 957.242188 942.136719 952.011719 L 931.703125 941.902344 C 928.183594 938.5 926.828125 933.453125 928.101562 928.722656 C 928.113281 928.667969 928.132812 928.609375 928.144531 928.550781 " fill-opacity="1" fill-rule="nonzero"/></g><g clip-path="url(#4c0070e939)"><path fill="#ccd6dd" d="M 1022.566406 780.992188 C 948.882812 780.992188 889.148438 721.238281 889.148438 647.53125 C 889.148438 573.820312 948.882812 514.070312 1022.566406 514.070312 C 1096.25 514.070312 1155.984375 573.820312 1155.984375 647.53125 C 1155.984375 721.238281 1096.25 780.992188 1022.566406 780.992188 Z M 1178.671875 689.261719 C 1181.085938 680.203125 1188.175781 673.140625 1197.269531 670.867188 L 1224.214844 664.132812 C 1224.660156 658.65625 1224.890625 653.125 1224.890625 647.53125 C 1224.890625 641.992188 1224.664062 636.507812 1224.230469 631.085938 L 1197.289062 624.328125 C 1188.199219 622.046875 1181.109375 614.980469 1178.703125 605.921875 C 1178.675781 605.8125 1178.644531 605.699219 1178.621094 605.589844 C 1176.191406 596.535156 1178.789062 586.878906 1185.53125 580.359375 L 1205.523438 561.027344 C 1200.785156 551.011719 1195.25 541.453125 1189 532.421875 L 1162.242188 540.0625 C 1153.230469 542.632812 1143.5625 540.050781 1136.949219 533.417969 C 1136.875 533.34375 1136.804688 533.273438 1136.734375 533.203125 C 1130.105469 526.578125 1127.53125 516.910156 1130.109375 507.898438 L 1137.769531 481.132812 C 1128.746094 474.871094 1119.191406 469.332031 1109.183594 464.582031 L 1089.84375 484.570312 C 1083.320312 491.304688 1073.664062 493.898438 1064.613281 491.460938 C 1064.503906 491.433594 1064.394531 491.40625 1064.285156 491.375 C 1055.230469 488.960938 1048.167969 481.867188 1045.894531 472.769531 L 1039.164062 445.820312 C 1033.6875 445.375 1028.152344 445.144531 1022.566406 445.144531 C 1017.03125 445.144531 1011.546875 445.371094 1006.128906 445.804688 L 999.371094 472.753906 C 997.09375 481.847656 990.027344 488.933594 980.96875 491.34375 C 980.859375 491.375 980.75 491.398438 980.640625 491.429688 C 971.585938 493.855469 961.929688 491.253906 955.417969 484.515625 L 936.085938 464.515625 C 926.078125 469.257812 916.523438 474.789062 907.496094 481.046875 L 915.132812 507.8125 C 917.703125 516.828125 915.121094 526.496094 908.492188 533.117188 C 908.417969 533.1875 908.347656 533.257812 908.277344 533.328125 C 901.652344 539.960938 891.984375 542.53125 882.976562 539.953125 L 856.222656 532.296875 C 849.964844 541.316406 844.425781 550.875 839.675781 560.886719 L 859.65625 580.238281 C 866.390625 586.757812 868.980469 596.417969 866.546875 605.472656 C 866.519531 605.582031 866.492188 605.691406 866.460938 605.800781 C 864.046875 614.863281 856.957031 621.921875 847.863281 624.195312 L 820.921875 630.929688 C 820.476562 636.402344 820.246094 641.941406 820.246094 647.53125 C 820.246094 653.066406 820.46875 658.554688 820.90625 663.980469 L 847.84375 670.734375 C 856.9375 673.011719 864.019531 680.082031 866.429688 689.144531 C 866.460938 689.253906 866.484375 689.363281 866.515625 689.46875 C 868.941406 698.53125 866.339844 708.1875 859.605469 714.703125 L 839.609375 734.035156 C 844.351562 744.050781 849.878906 753.613281 856.136719 762.644531 L 882.894531 755 C 891.902344 752.429688 901.570312 755.007812 908.1875 761.648438 C 908.257812 761.71875 908.328125 761.792969 908.398438 761.863281 C 915.03125 768.488281 917.601562 778.152344 915.023438 787.167969 L 907.367188 813.929688 C 916.390625 820.1875 925.941406 825.734375 935.945312 830.480469 L 955.292969 810.496094 C 961.8125 803.761719 971.46875 801.164062 980.523438 803.597656 C 980.632812 803.628906 980.742188 803.65625 980.847656 803.6875 C 989.902344 806.101562 996.964844 813.195312 999.238281 822.289062 L 1005.96875 849.246094 C 1011.441406 849.6875 1016.976562 849.921875 1022.566406 849.921875 C 1028.101562 849.921875 1033.582031 849.691406 1039.007812 849.257812 L 1045.761719 822.3125 C 1048.039062 813.214844 1055.105469 806.125 1064.164062 803.71875 C 1064.277344 803.691406 1064.386719 803.660156 1064.492188 803.632812 C 1073.550781 801.203125 1083.203125 803.804688 1089.714844 810.546875 L 1109.042969 830.550781 C 1119.054688 825.808594 1128.613281 820.269531 1137.640625 814.019531 L 1130.003906 787.25 C 1127.429688 778.234375 1130.011719 768.570312 1136.644531 761.949219 C 1136.714844 761.875 1136.785156 761.804688 1136.855469 761.734375 C 1143.484375 755.105469 1153.144531 752.53125 1162.160156 755.109375 L 1188.914062 762.769531 C 1195.167969 753.746094 1200.710938 744.183594 1205.457031 734.175781 L 1185.480469 714.828125 C 1178.746094 708.308594 1176.152344 698.644531 1178.585938 689.59375 C 1178.617188 689.484375 1178.640625 689.375 1178.671875 689.261719 " fill-opacity="1" fill-rule="nonzero"/></g><g clip-path="url(#3beed6aa27)"><path fill="#ccd6dd" d="M 433.164062 316.941406 C 388.3125 316.941406 351.949219 280.566406 351.949219 235.699219 C 351.949219 190.832031 388.3125 154.460938 433.164062 154.460938 C 478.015625 154.460938 514.378906 190.832031 514.378906 235.699219 C 514.378906 280.566406 478.015625 316.941406 433.164062 316.941406 Z M 528.191406 261.101562 C 529.660156 255.589844 533.976562 251.292969 539.511719 249.90625 L 555.910156 245.808594 C 556.179688 242.472656 556.320312 239.101562 556.320312 235.699219 C 556.320312 232.328125 556.1875 228.988281 555.917969 225.691406 L 539.519531 221.574219 C 533.988281 220.1875 529.671875 215.882812 528.207031 210.371094 C 528.191406 210.304688 528.171875 210.238281 528.15625 210.171875 C 526.675781 204.65625 528.261719 198.777344 532.367188 194.8125 L 544.535156 183.039062 C 541.652344 176.945312 538.28125 171.125 534.476562 165.632812 L 518.183594 170.277344 C 512.703125 171.84375 506.816406 170.273438 502.789062 166.238281 C 502.746094 166.191406 502.703125 166.148438 502.660156 166.105469 C 498.625 162.074219 497.058594 156.183594 498.628906 150.699219 L 503.289062 134.410156 C 497.800781 130.597656 491.980469 127.222656 485.890625 124.332031 L 474.113281 136.5 C 470.144531 140.601562 464.269531 142.179688 458.757812 140.699219 C 458.6875 140.679688 458.625 140.664062 458.558594 140.644531 C 453.042969 139.171875 448.746094 134.855469 447.363281 129.316406 L 443.265625 112.914062 C 439.933594 112.640625 436.566406 112.5 433.164062 112.5 C 429.792969 112.5 426.457031 112.640625 423.152344 112.902344 L 419.042969 129.308594 C 417.652344 134.84375 413.355469 139.15625 407.84375 140.625 C 407.773438 140.640625 407.707031 140.660156 407.640625 140.675781 C 402.132812 142.15625 396.253906 140.570312 392.285156 136.46875 L 380.523438 124.292969 C 374.429688 127.179688 368.609375 130.550781 363.113281 134.355469 L 367.761719 150.648438 C 369.328125 156.136719 367.757812 162.019531 363.71875 166.050781 C 363.675781 166.097656 363.632812 166.140625 363.59375 166.179688 C 359.558594 170.21875 353.675781 171.78125 348.1875 170.214844 L 331.902344 165.550781 C 328.09375 171.046875 324.71875 176.863281 321.832031 182.957031 L 333.996094 194.734375 C 338.09375 198.703125 339.671875 204.585938 338.1875 210.097656 C 338.171875 210.164062 338.152344 210.230469 338.136719 210.296875 C 336.667969 215.808594 332.351562 220.109375 326.816406 221.492188 L 310.410156 225.59375 C 310.144531 228.929688 310.003906 232.296875 310.003906 235.699219 C 310.003906 239.070312 310.140625 242.410156 310.40625 245.710938 L 326.800781 249.824219 C 332.335938 251.210938 336.652344 255.511719 338.117188 261.03125 C 338.136719 261.097656 338.152344 261.164062 338.171875 261.226562 C 339.648438 266.742188 338.066406 272.621094 333.960938 276.589844 L 321.789062 288.359375 C 324.675781 294.453125 328.042969 300.277344 331.851562 305.769531 L 348.140625 301.117188 C 353.621094 299.550781 359.507812 301.125 363.535156 305.164062 C 363.578125 305.207031 363.621094 305.25 363.667969 305.296875 C 367.703125 309.328125 369.269531 315.214844 367.699219 320.699219 L 363.035156 336.988281 C 368.527344 340.804688 374.347656 344.175781 380.433594 347.066406 L 392.210938 334.902344 C 396.179688 330.800781 402.058594 329.21875 407.566406 330.703125 C 407.636719 330.71875 407.703125 330.738281 407.769531 330.753906 C 413.28125 332.226562 417.578125 336.542969 418.960938 342.078125 L 423.0625 358.488281 C 426.390625 358.761719 429.757812 358.902344 433.164062 358.902344 C 436.53125 358.902344 439.867188 358.761719 443.171875 358.496094 L 447.28125 342.09375 C 448.667969 336.554688 452.96875 332.242188 458.484375 330.777344 C 458.554688 330.761719 458.621094 330.742188 458.683594 330.71875 C 464.195312 329.246094 470.074219 330.832031 474.039062 334.933594 L 485.804688 347.109375 C 491.894531 344.21875 497.714844 340.851562 503.210938 337.046875 L 498.5625 320.753906 C 496.996094 315.265625 498.566406 309.378906 502.605469 305.347656 C 502.648438 305.304688 502.695312 305.261719 502.734375 305.222656 C 506.769531 301.179688 512.648438 299.613281 518.136719 301.183594 L 534.421875 305.847656 C 538.234375 300.355469 541.605469 294.539062 544.492188 288.445312 L 532.332031 276.664062 C 528.234375 272.695312 526.65625 266.8125 528.136719 261.304688 C 528.15625 261.238281 528.171875 261.171875 528.191406 261.101562 " fill-opacity="1" fill-rule="nonzero"/></g></svg>