<svg xmlns="http://www.w3.org/2000/svg" xmlns:xlink="http://www.w3.org/1999/xlink" width="2000" zoomAndPan="magnify" viewBox="0 0 1500 1124.99995" height="1500" preserveAspectRatio="xMidYMid meet" version="1.0"><rect x="-150" width="1800" fill="#ffffff" y="-112.499995" height="1349.99994" fill-opacity="1"/><rect x="-150" width="1800" fill="#ffffff" y="-112.499995" height="1349.99994" fill-opacity="1"/><rect x="-150" width="1800" fill="#000000" y="-112.499995" height="1349.99994" fill-opacity="1"/><path fill="#bee3ed" d="M 704.59375 753.539062 L 674.664062 753.539062 L 674.664062 775.691406 L 644.734375 775.691406 L 644.734375 745.308594 L 614.808594 745.308594 L 614.808594 850 L 584.878906 850 L 584.878906 872.972656 L 554.949219 872.972656 L 554.949219 853.289062 L 525.019531 853.289062 L 525.019531 745.308594 L 495.089844 745.308594 L 495.089844 723.308594 L 465.164062 723.308594 L 465.164062 709.167969 L 435.234375 709.167969 L 435.234375 684.769531 L 405.304688 684.769531 L 405.304688 747.179688 L 375.375 747.179688 L 375.375 805.773438 L 345.449219 805.773438 L 345.449219 860.175781 L 315.519531 860.175781 L 315.519531 872.972656 L 285.589844 872.972656 L 285.589844 917.871094 L 734.523438 917.871094 L 734.523438 783.25 L 704.59375 783.25 Z M 704.59375 753.539062 " fill-opacity="1" fill-rule="nonzero"/><path fill="#bee3ed" d="M 1183.453125 846.03125 L 1153.523438 846.03125 L 1153.523438 859.5 L 1123.59375 859.5 L 1123.59375 806.746094 L 1093.667969 806.746094 L 1093.667969 789.460938 L 1063.738281 789.460938 L 1063.738281 754.738281 L 1033.808594 754.738281 L 1033.808594 734.085938 L 1003.878906 734.085938 L 1003.878906 704.976562 L 973.953125 704.976562 L 973.953125 734.085938 L 944.023438 734.085938 L 944.023438 836.601562 L 914.09375 836.601562 L 914.09375 784.820312 L 884.164062 784.820312 L 884.164062 825.453125 L 854.238281 825.453125 L 854.238281 917.871094 L 1213.382812 917.871094 L 1213.382812 774.042969 L 1183.453125 774.042969 Z M 1183.453125 846.03125 " fill-opacity="1" fill-rule="nonzero"/><path fill="#bee3ed" d="M 959.886719 338.675781 L 1006.273438 294.078125 L 1041.367188 294.078125 L 1160.332031 174.574219 L 1177.542969 215.429688 L 1213.382812 94.726562 L 1093.589844 133.492188 C 1093.589844 133.492188 1115.363281 142.023438 1132.949219 148.980469 L 1029.246094 253.144531 L 994.152344 253.144531 L 947.6875 297.746094 L 913.945312 297.746094 L 812.335938 394.425781 L 701.375 303.132812 L 662.46875 333.140625 L 618.097656 303.132812 L 539.460938 368.234375 L 447.28125 321.167969 L 285.589844 447.40625 L 285.589844 497.84375 L 451.546875 368.234375 L 544.921875 414.707031 L 619.96875 352.597656 L 664.339844 382.003906 L 700.550781 354.09375 L 812.410156 446.808594 L 926.066406 338.675781 Z M 959.886719 338.675781 " fill-opacity="1" fill-rule="nonzero"/><path fill="#26a69a" d="M 674.664062 753.539062 L 704.59375 753.539062 L 704.59375 917.871094 L 674.664062 917.871094 Z M 674.664062 753.539062 " fill-opacity="1" fill-rule="nonzero"/><path fill="#26a69a" d="M 614.808594 745.308594 L 644.734375 745.308594 L 644.734375 917.871094 L 614.808594 917.871094 Z M 614.808594 745.308594 " fill-opacity="1" fill-rule="nonzero"/><path fill="#26a69a" d="M 554.949219 872.972656 L 584.878906 872.972656 L 584.878906 917.871094 L 554.949219 917.871094 Z M 554.949219 872.972656 " fill-opacity="1" fill-rule="nonzero"/><path fill="#26a69a" d="M 495.089844 745.308594 L 525.019531 745.308594 L 525.019531 917.871094 L 495.089844 917.871094 Z M 495.089844 745.308594 " fill-opacity="1" fill-rule="nonzero"/><path fill="#26a69a" d="M 435.234375 709.167969 L 465.164062 709.167969 L 465.164062 917.871094 L 435.234375 917.871094 Z M 435.234375 709.167969 " fill-opacity="1" fill-rule="nonzero"/><path fill="#26a69a" d="M 375.375 747.179688 L 405.304688 747.179688 L 405.304688 917.871094 L 375.375 917.871094 Z M 375.375 747.179688 " fill-opacity="1" fill-rule="nonzero"/><path fill="#26a69a" d="M 315.519531 860.175781 L 345.449219 860.175781 L 345.449219 917.871094 L 315.519531 917.871094 Z M 315.519531 860.175781 " fill-opacity="1" fill-rule="nonzero"/><path fill="#26a69a" d="M 854.238281 825.453125 L 884.164062 825.453125 L 884.164062 917.871094 L 854.238281 917.871094 Z M 854.238281 825.453125 " fill-opacity="1" fill-rule="nonzero"/><path fill="#26a69a" d="M 914.09375 836.601562 L 944.023438 836.601562 L 944.023438 917.871094 L 914.09375 917.871094 Z M 914.09375 836.601562 " fill-opacity="1" fill-rule="nonzero"/><path fill="#26a69a" d="M 973.953125 704.976562 L 1003.878906 704.976562 L 1003.878906 917.871094 L 973.953125 917.871094 Z M 973.953125 704.976562 " fill-opacity="1" fill-rule="nonzero"/><path fill="#26a69a" d="M 1033.808594 754.738281 L 1063.738281 754.738281 L 1063.738281 917.871094 L 1033.808594 917.871094 Z M 1033.808594 754.738281 " fill-opacity="1" fill-rule="nonzero"/><path fill="#26a69a" d="M 1093.667969 806.746094 L 1123.59375 806.746094 L 1123.59375 917.871094 L 1093.667969 917.871094 Z M 1093.667969 806.746094 " fill-opacity="1" fill-rule="nonzero"/><path fill="#26a69a" d="M 1153.523438 846.03125 L 1183.453125 846.03125 L 1183.453125 917.871094 L 1153.523438 917.871094 Z M 1153.523438 846.03125 " fill-opacity="1" fill-rule="nonzero"/><path fill="#ccd6dd" d="M 1213.382812 94.726562 L 1177.542969 215.429688 L 1160.332031 174.574219 L 1041.367188 294.078125 L 1006.273438 294.078125 L 959.886719 338.675781 L 926.066406 338.675781 L 812.410156 446.808594 L 700.550781 354.09375 L 664.339844 382.003906 L 619.96875 352.597656 L 544.921875 414.707031 L 451.546875 368.234375 L 285.589844 497.84375 L 285.589844 447.40625 L 447.28125 321.167969 L 539.460938 368.234375 L 618.097656 303.132812 L 662.46875 333.140625 L 701.375 303.132812 L 812.335938 394.425781 L 913.945312 297.746094 L 947.6875 297.746094 L 994.152344 253.144531 L 1029.246094 253.144531 L 1132.949219 148.980469 C 1115.363281 142.023438 1093.589844 133.492188 1093.589844 133.492188 Z M 1213.382812 94.726562 " fill-opacity="1" fill-rule="nonzero"/><path fill="#8c8c8c" d="M 794.378906 1030.117188 C 794.363281 1030.117188 794.347656 1030.117188 794.328125 1030.117188 C 790.601562 1030.09375 787.464844 1027.324219 786.964844 1023.636719 L 738.957031 667.933594 L 729.058594 689.671875 C 727.707031 692.636719 724.59375 694.378906 721.351562 693.996094 C 718.113281 693.609375 715.5 691.160156 714.902344 687.960938 L 685.738281 533.492188 L 673.757812 551.910156 C 672.203125 554.296875 669.402344 555.597656 666.582031 555.253906 C 663.746094 554.910156 661.351562 552.980469 660.417969 550.277344 L 654.125 532.128906 L 644.183594 552.066406 C 642.8125 554.8125 639.886719 556.449219 636.863281 556.179688 C 633.8125 555.925781 631.222656 553.839844 630.324219 550.914062 L 616.042969 504.292969 L 585.976562 642.796875 C 585.335938 645.761719 582.960938 648.050781 579.976562 648.582031 C 576.96875 649.128906 573.976562 647.789062 572.34375 645.214844 L 559.25 624.5625 C 554 632.808594 545.34375 641.960938 532.792969 641.960938 C 509.988281 641.960938 501.863281 606.371094 491.574219 561.324219 C 480.515625 512.871094 466.75 452.5625 433.28125 452.5625 C 382.15625 452.5625 368.457031 532.691406 353.957031 617.535156 C 341.648438 689.546875 328.925781 764.003906 290.328125 795.617188 C 287.132812 798.238281 282.425781 797.765625 279.800781 794.570312 C 277.179688 791.375 277.644531 786.652344 280.847656 784.042969 C 315.121094 755.964844 327.371094 684.308594 339.214844 615.015625 C 354.808594 523.78125 369.539062 437.605469 433.289062 437.605469 C 478.691406 437.605469 493.296875 501.5625 506.171875 557.992188 C 513.191406 588.734375 521.921875 627 532.800781 627 C 542.460938 627 549.628906 612.15625 551.371094 606.953125 C 552.292969 604.214844 554.703125 602.253906 557.566406 601.910156 C 560.433594 601.542969 563.238281 602.898438 564.789062 605.339844 L 575.226562 621.808594 L 607.496094 473.132812 C 608.214844 469.804688 611.09375 467.386719 614.5 467.246094 C 617.746094 467.140625 620.964844 469.273438 621.96875 472.527344 L 639.152344 528.628906 L 648.671875 509.546875 C 650.019531 506.851562 652.859375 505.242188 655.847656 505.417969 C 658.847656 505.609375 661.449219 507.585938 662.429688 510.429688 L 669.546875 530.933594 L 683.359375 509.695312 C 685.019531 507.136719 688.050781 505.851562 691.082031 506.433594 C 694.082031 507.023438 696.414062 509.382812 696.984375 512.382812 L 725.230469 661.96875 L 736.101562 638.105469 C 737.484375 635.074219 740.738281 633.347656 744 633.804688 C 747.300781 634.289062 749.882812 636.902344 750.324219 640.203125 L 794.753906 969.445312 L 844.816406 633.742188 C 847.039062 622.832031 854.769531 614.386719 865.054688 611.308594 C 875.464844 608.203125 886.246094 610.941406 893.890625 618.644531 C 900.699219 625.503906 906.984375 628.410156 912.621094 627.277344 C 920.3125 625.75 928.128906 591.867188 933.300781 569.449219 C 944.164062 522.367188 956.472656 469.011719 992.367188 469.011719 C 1024.785156 469.011719 1033.996094 513.984375 1042.898438 557.476562 C 1049.957031 591.949219 1057.960938 631.019531 1076.316406 631.019531 C 1098.027344 631.019531 1102.660156 576.140625 1106.035156 536.066406 C 1109.84375 490.816406 1112.738281 464.917969 1127.792969 458.917969 C 1136.988281 455.175781 1146.101562 456.828125 1153.382812 463.601562 C 1155.058594 465.195312 1157.183594 465.890625 1159.234375 465.570312 C 1160.519531 465.375 1162.292969 464.699219 1163.4375 462.628906 C 1172.230469 446.554688 1175.207031 428.917969 1178.089844 411.863281 C 1182.398438 386.359375 1186.46875 362.273438 1210.132812 350.84375 C 1213.859375 349.042969 1218.328125 350.605469 1220.121094 354.332031 C 1221.917969 358.050781 1220.363281 362.527344 1216.636719 364.320312 C 1199.9375 372.390625 1196.808594 390.910156 1192.84375 414.363281 C 1189.902344 431.78125 1186.566406 451.523438 1176.554688 469.835938 C 1173.402344 475.550781 1167.917969 479.382812 1161.507812 480.371094 C 1154.796875 481.378906 1148.097656 479.261719 1143.125 474.503906 C 1140.160156 471.757812 1137.226562 471.234375 1133.382812 472.804688 C 1126.140625 475.691406 1122.882812 514.277344 1120.9375 537.332031 C 1116.644531 588.269531 1111.78125 645.992188 1076.308594 645.992188 C 1045.734375 645.992188 1036.839844 602.523438 1028.226562 560.484375 C 1020.886719 524.625 1012.566406 483.984375 992.359375 483.984375 C 968.363281 483.984375 957.003906 533.246094 947.875 572.816406 C 939.40625 609.535156 932.71875 638.539062 915.558594 641.960938 C 908.078125 643.464844 896.421875 642.46875 883.265625 629.1875 C 879.578125 625.476562 874.378906 624.164062 869.335938 625.648438 C 864.269531 627.167969 860.605469 631.164062 859.550781 636.339844 L 801.785156 1023.71875 C 801.234375 1027.40625 798.082031 1030.117188 794.378906 1030.117188 Z M 794.378906 1030.117188 " fill-opacity="1" fill-rule="nonzero"/><path fill="#93b2b8" d="M 1213.382812 925.351562 L 285.589844 925.351562 C 281.460938 925.351562 278.109375 922 278.109375 917.871094 C 278.109375 913.738281 281.460938 910.386719 285.589844 910.386719 L 1213.382812 910.386719 C 1217.511719 910.386719 1220.863281 913.738281 1220.863281 917.871094 C 1220.863281 922 1217.511719 925.351562 1213.382812 925.351562 Z M 1213.382812 925.351562 " fill-opacity="1" fill-rule="nonzero"/></svg>