<svg xmlns="http://www.w3.org/2000/svg" xmlns:xlink="http://www.w3.org/1999/xlink" width="2000" zoomAndPan="magnify" viewBox="0 0 1500 824.999997" height="1100" preserveAspectRatio="xMidYMid meet" version="1.0"><defs><clipPath id="6aab721978"><path d="M 630 328.023438 L 665 328.023438 L 665 335 L 630 335 Z M 630 328.023438 " clip-rule="nonzero"/></clipPath><clipPath id="51251ae231"><path d="M 688 328.023438 L 720 328.023438 L 720 334 L 688 334 Z M 688 328.023438 " clip-rule="nonzero"/></clipPath><clipPath id="43da162f8a"><path d="M 747 328.023438 L 777 328.023438 L 777 334 L 747 334 Z M 747 328.023438 " clip-rule="nonzero"/></clipPath><clipPath id="97096236ed"><path d="M 388.605469 411 L 517 411 L 517 436 L 388.605469 436 Z M 388.605469 411 " clip-rule="nonzero"/></clipPath><clipPath id="e84642771b"><path d="M 719 456 L 798 456 L 798 496.773438 L 719 496.773438 Z M 719 456 " clip-rule="nonzero"/></clipPath><clipPath id="b9c3bec8ce"><path d="M 984 435 L 1111.605469 435 L 1111.605469 469 L 984 469 Z M 984 435 " clip-rule="nonzero"/></clipPath></defs><path fill="#b8c5cd" d="M 601.289062 335.816406 C 591.628906 336.128906 581.96875 336.410156 572.308594 336.667969 C 576.253906 334.546875 578.214844 333.480469 581.890625 331.328125 C 591.066406 331.078125 600.242188 330.808594 609.417969 330.511719 C 606.414062 332.648438 604.730469 333.707031 601.289062 335.816406 Z M 601.289062 335.816406 " fill-opacity="1" fill-rule="nonzero"/><g clip-path="url(#6aab721978)"><path fill="#b8c5cd" d="M 659.074219 333.925781 C 649.433594 334.207031 639.792969 334.511719 630.152344 334.839844 C 632.550781 333.277344 634.8125 331.539062 636.945312 329.632812 C 646.121094 329.34375 655.296875 329.078125 664.472656 328.832031 C 662.792969 330.902344 661.644531 331.914062 659.074219 333.925781 Z M 659.074219 333.925781 " fill-opacity="1" fill-rule="nonzero"/></g><g clip-path="url(#51251ae231)"><path fill="#b8c5cd" d="M 717.785156 333.003906 C 707.933594 333.019531 698.078125 333.101562 688.226562 333.25 C 690.261719 331.285156 691.085938 330.292969 692 328.25 C 701.175781 328.109375 710.351562 328.035156 719.527344 328.023438 C 719.527344 330.0625 719.101562 331.054688 717.785156 333.003906 Z M 717.785156 333.003906 " fill-opacity="1" fill-rule="nonzero"/></g><g clip-path="url(#43da162f8a)"><path fill="#b8c5cd" d="M 776.824219 333.925781 C 766.917969 333.660156 757.011719 333.4375 747.101562 333.253906 C 747.605469 331.285156 747.671875 330.292969 747.054688 328.25 C 756.234375 328.394531 765.410156 328.589844 774.582031 328.832031 C 775.699219 330.367188 776.445312 332.066406 776.824219 333.925781 Z M 776.824219 333.925781 " fill-opacity="1" fill-rule="nonzero"/></g><path fill="#b8c5cd" d="M 836.792969 335.816406 C 826.789062 335.496094 816.78125 335.171875 806.777344 334.839844 C 805.394531 332.949219 803.839844 331.214844 802.109375 329.632812 C 811.285156 329.921875 820.460938 330.214844 829.636719 330.511719 C 832.746094 332.648438 834.121094 333.707031 836.792969 335.816406 Z M 836.792969 335.816406 " fill-opacity="1" fill-rule="nonzero"/><path fill="#b8c5cd" d="M 620.933594 340.730469 C 611 341.113281 601.0625 341.484375 591.125 341.847656 C 595.234375 339.441406 597.332031 338.238281 601.289062 335.816406 C 610.910156 335.496094 620.53125 335.171875 630.152344 334.839844 C 626.6875 337.210938 624.765625 338.382812 620.933594 340.730469 Z M 620.933594 340.730469 " fill-opacity="1" fill-rule="nonzero"/><path fill="#b8c5cd" d="M 681.164062 338.816406 C 671.039062 339.035156 660.914062 339.3125 650.792969 339.640625 C 653.664062 337.894531 656.425781 335.988281 659.074219 333.925781 C 668.792969 333.660156 678.507812 333.433594 688.226562 333.253906 C 685.890625 335.511719 684.371094 336.617188 681.164062 338.816406 Z M 681.164062 338.816406 " fill-opacity="1" fill-rule="nonzero"/><path fill="#b8c5cd" d="M 744.425781 338.816406 C 733.789062 338.617188 723.148438 338.492188 712.507812 338.503906 C 715.097656 336.339844 716.273438 335.246094 717.785156 333.003906 C 727.558594 333.019531 737.332031 333.101562 747.101562 333.25 C 746.519531 335.511719 745.878906 336.617188 744.425781 338.816406 Z M 744.425781 338.816406 " fill-opacity="1" fill-rule="nonzero"/><path fill="#b8c5cd" d="M 810.734375 340.730469 C 799.597656 340.351562 788.460938 339.988281 777.324219 339.640625 C 777.464844 337.707031 777.300781 335.804688 776.824219 333.925781 C 786.808594 334.210938 796.792969 334.515625 806.78125 334.839844 C 808.21875 336.722656 809.535156 338.6875 810.734375 340.730469 Z M 810.734375 340.730469 " fill-opacity="1" fill-rule="nonzero"/><path fill="#b8c5cd" d="M 877.222656 342.742188 C 866.207031 342.503906 855.195312 342.183594 844.1875 341.847656 C 841.273438 339.441406 839.859375 338.238281 836.792969 335.816406 C 846.753906 336.125 856.71875 336.410156 866.6875 336.667969 C 870.9375 339.109375 873 340.320312 877.222656 342.742188 Z M 877.222656 342.742188 " fill-opacity="1" fill-rule="nonzero"/><path fill="#b8c5cd" d="M 579.421875 348.835938 C 568.914062 349.214844 558.410156 349.519531 547.902344 349.75 C 552.980469 346.953125 555.597656 345.550781 560.890625 342.742188 C 570.96875 342.492188 581.046875 342.195312 591.125 341.847656 C 586.347656 344.644531 583.945312 346.035156 579.421875 348.835938 Z M 579.421875 348.835938 " fill-opacity="1" fill-rule="nonzero"/><path fill="#b8c5cd" d="M 640.171875 346.214844 C 630.066406 346.636719 619.960938 347.082031 609.859375 347.546875 C 614.175781 344.8125 616.488281 343.453125 620.9375 340.730469 C 630.890625 340.351562 640.839844 339.988281 650.792969 339.640625 C 646.640625 342.277344 644.386719 343.582031 640.171875 346.214844 Z M 640.171875 346.214844 " fill-opacity="1" fill-rule="nonzero"/><path fill="#b8c5cd" d="M 704.226562 344.746094 C 693.25 344.773438 682.28125 344.890625 671.308594 345.167969 C 675.308594 342.632812 677.4375 341.371094 681.164062 338.816406 C 691.613281 338.632812 702.0625 338.527344 712.507812 338.503906 C 709.5 341.023438 707.660156 342.257812 704.226562 344.746094 Z M 704.226562 344.746094 " fill-opacity="1" fill-rule="nonzero"/><path fill="#b8c5cd" d="M 776.898438 346.214844 C 764.488281 345.816406 752.082031 345.464844 739.671875 345.167969 C 741.632812 342.632812 742.742188 341.371094 744.425781 338.816406 C 755.394531 339.019531 766.359375 339.320312 777.324219 339.640625 C 777.25 342.277344 777.035156 343.582031 776.898438 346.214844 Z M 776.898438 346.214844 " fill-opacity="1" fill-rule="nonzero"/><path fill="#b8c5cd" d="M 852.875 348.835938 C 840.230469 348.4375 827.589844 348.007812 814.949219 347.546875 C 813.148438 344.8125 812.40625 343.453125 810.734375 340.730469 C 821.886719 341.113281 833.039062 341.484375 844.1875 341.847656 C 847.570312 344.644531 849.242188 346.035156 852.875 348.835938 Z M 852.875 348.835938 " fill-opacity="1" fill-rule="nonzero"/><path fill="#b8c5cd" d="M 598.203125 355.648438 C 587.796875 356.191406 577.390625 356.675781 566.980469 357.105469 C 571.582031 353.78125 574.101562 352.128906 579.421875 348.835938 C 589.566406 348.441406 599.714844 348.011719 609.859375 347.546875 C 604.785156 350.761719 602.347656 352.375 598.203125 355.648438 Z M 598.203125 355.648438 " fill-opacity="1" fill-rule="nonzero"/><path fill="#b8c5cd" d="M 660.484375 352.691406 C 649.914062 353.050781 639.34375 353.492188 628.78125 354.023438 C 632.761719 350.859375 635.214844 349.308594 640.171875 346.214844 C 650.546875 345.804688 660.929688 345.457031 671.308594 345.167969 C 666.605469 348.152344 664.203125 349.640625 660.484375 352.691406 Z M 660.484375 352.691406 " fill-opacity="1" fill-rule="nonzero"/><path fill="#b8c5cd" d="M 734.84375 352.691406 C 721.597656 352.378906 708.351562 352.132812 695.101562 352.121094 C 698.066406 349.121094 700.191406 347.667969 704.222656 344.746094 C 716.042969 344.777344 727.855469 344.917969 739.671875 345.167969 C 737.363281 348.152344 736.164062 349.640625 734.84375 352.691406 Z M 734.84375 352.691406 " fill-opacity="1" fill-rule="nonzero"/><path fill="#b8c5cd" d="M 821.269531 355.648438 C 806.675781 355.105469 792.082031 354.5625 777.488281 354.019531 C 776.675781 350.859375 776.734375 349.308594 776.898438 346.214844 C 789.582031 346.640625 802.265625 347.082031 814.949219 347.546875 C 816.78125 350.460938 818.886719 353.160156 821.269531 355.648438 Z M 821.269531 355.648438 " fill-opacity="1" fill-rule="nonzero"/><path fill="#b8c5cd" d="M 905.109375 357.929688 C 891.535156 357.777344 877.964844 357.503906 864.402344 357.105469 C 859.417969 353.78125 857.144531 352.128906 852.875 348.835938 C 865.15625 349.203125 877.4375 349.507812 889.722656 349.75 C 894.816406 352.539062 899.960938 355.234375 905.109375 357.929688 Z M 905.109375 357.929688 " fill-opacity="1" fill-rule="nonzero"/><path fill="#b8c5cd" d="M 554.566406 366.953125 C 541.714844 367.34375 528.859375 367.53125 516 367.519531 C 521.734375 364.242188 527.59375 361.195312 533.332031 357.929688 C 544.550781 357.785156 555.765625 357.535156 566.980469 357.105469 C 562.699219 360.164062 558.554688 363.519531 554.566406 366.953125 Z M 554.566406 366.953125 " fill-opacity="1" fill-rule="nonzero"/><path fill="#b8c5cd" d="M 620.269531 363.820312 C 609.628906 364.390625 598.988281 364.996094 588.347656 365.539062 C 590.808594 361.445312 593.261719 359.550781 598.203125 355.648438 C 608.394531 355.101562 618.585938 354.5625 628.777344 354.019531 C 624.035156 357.792969 621.730469 359.207031 620.269531 363.820312 Z M 620.269531 363.820312 " fill-opacity="1" fill-rule="nonzero"/><path fill="#b8c5cd" d="M 691.035156 361.527344 C 678.503906 361.640625 665.976562 361.902344 653.457031 362.3125 C 654 357.375 656.054688 356.328125 660.484375 352.691406 C 672.023438 352.359375 683.5625 352.167969 695.101562 352.121094 C 691.570312 355.691406 690.304688 356.824219 691.035156 361.527344 Z M 691.035156 361.527344 " fill-opacity="1" fill-rule="nonzero"/><path fill="#b8c5cd" d="M 783.246094 363.820312 C 767.226562 363.269531 751.203125 362.765625 735.183594 362.3125 C 732.433594 357.375 733.269531 356.328125 734.84375 352.691406 C 749.0625 353.0625 763.277344 353.503906 777.492188 354.023438 C 778.457031 357.792969 779.492188 359.207031 783.246094 363.820312 Z M 783.246094 363.820312 " fill-opacity="1" fill-rule="nonzero"/><path fill="#b8c5cd" d="M 879.96875 366.953125 C 864.121094 366.558594 848.277344 366.085938 832.433594 365.539062 C 828.144531 361.445312 824.898438 359.550781 821.269531 355.648438 C 835.644531 356.175781 850.023438 356.664062 864.402344 357.105469 C 869.554688 360.449219 874.773438 363.675781 879.96875 366.953125 Z M 879.96875 366.953125 " fill-opacity="1" fill-rule="nonzero"/><path fill="#b8c5cd" d="M 589.335938 380.089844 C 576.53125 379.5 563.722656 379.179688 550.902344 379.050781 C 550.128906 374.222656 549.730469 371.5 554.566406 366.953125 C 565.832031 366.582031 577.09375 366.113281 588.347656 365.539062 C 585.921875 369.722656 587.183594 376.117188 589.335938 380.089844 Z M 589.335938 380.089844 " fill-opacity="1" fill-rule="nonzero"/><path fill="#b8c5cd" d="M 659.273438 383.703125 C 647.472656 383.257812 635.683594 382.660156 623.898438 381.988281 C 621.710938 376.378906 618.695312 370.066406 620.269531 363.820312 C 631.328125 363.230469 642.390625 362.726562 653.457031 362.3125 C 653.164062 369.820312 656.539062 376.917969 659.273438 383.703125 Z M 659.273438 383.703125 " fill-opacity="1" fill-rule="nonzero"/><path fill="#b8c5cd" d="M 746.410156 383.703125 C 730.992188 384.097656 715.582031 384.300781 700.15625 384.203125 C 696.695312 376.898438 692.726562 369.5 691.035156 361.527344 C 705.753906 361.648438 720.464844 361.9375 735.179688 362.3125 C 739.09375 369.355469 742.769531 376.519531 746.410156 383.703125 Z M 746.410156 383.703125 " fill-opacity="1" fill-rule="nonzero"/><path fill="#b8c5cd" d="M 839.632812 380.089844 C 824.085938 380.65625 808.542969 381.324219 792.996094 381.988281 C 790.613281 375.539062 787.527344 369.234375 783.246094 363.820312 C 799.640625 364.394531 816.039062 364.964844 832.4375 365.539062 C 836.253906 368.957031 839.191406 374.984375 839.632812 380.089844 Z M 839.632812 380.089844 " fill-opacity="1" fill-rule="nonzero"/><path fill="#b8c5cd" d="M 932.074219 379.078125 C 916.726562 379.078125 901.378906 379.007812 886.035156 379.050781 C 886.457031 374.222656 885.941406 371.5 879.96875 366.953125 C 894.324219 367.273438 908.675781 367.519531 923.035156 367.519531 C 930.214844 372.140625 930.300781 374.453125 932.074219 379.078125 Z M 932.074219 379.078125 " fill-opacity="1" fill-rule="nonzero"/><path fill="#b8c5cd" d="M 551.550781 393.386719 L 494.210938 393.386719 C 499.21875 388.992188 503.167969 385.296875 505.816406 379.078125 C 520.84375 379.078125 535.875 378.953125 550.902344 379.050781 C 551.863281 385.023438 554.425781 387.664062 551.550781 393.386719 Z M 551.550781 393.386719 " fill-opacity="1" fill-rule="nonzero"/><path fill="#b8c5cd" d="M 634.964844 405.433594 C 622.449219 402.222656 609.925781 399.320312 597.207031 397.035156 C 595.824219 391.164062 592.03125 385.382812 589.335938 380.089844 C 600.859375 380.648438 612.378906 381.316406 623.898438 381.988281 C 627.605469 389.738281 632.136719 397.300781 634.964844 405.433594 Z M 634.964844 405.433594 " fill-opacity="1" fill-rule="nonzero"/><path fill="#b8c5cd" d="M 716.585938 418.535156 C 701.691406 418.09375 686.964844 416.792969 672.300781 414.085938 C 668.964844 403.628906 663.699219 393.71875 659.273438 383.703125 C 672.902344 384.171875 686.523438 384.289062 700.15625 384.203125 C 705.757812 395.59375 711.546875 406.882812 716.585938 418.535156 Z M 716.585938 418.535156 " fill-opacity="1" fill-rule="nonzero"/><path fill="#b8c5cd" d="M 799.554688 405.433594 C 786.660156 408.578125 773.78125 411.613281 760.734375 414.085938 C 756.175781 403.855469 751.371094 393.746094 746.410156 383.703125 C 761.945312 383.246094 777.46875 382.640625 792.996094 381.988281 C 795.605469 389.730469 797.664062 397.488281 799.554688 405.433594 Z M 799.554688 405.433594 " fill-opacity="1" fill-rule="nonzero"/><path fill="#b8c5cd" d="M 884.136719 393.386719 C 868.890625 393.386719 853.742188 394.601562 838.691406 397.039062 C 839.183594 391.210938 839.757812 385.964844 839.632812 380.09375 C 855.097656 379.570312 870.558594 379.183594 886.035156 379.050781 C 885.511719 385.023438 881.832031 387.664062 884.136719 393.386719 Z M 884.136719 393.386719 " fill-opacity="1" fill-rule="nonzero"/><path fill="#b8c5cd" d="M 574.277344 412.773438 C 555.027344 410.648438 535.410156 411.558594 516.078125 411.558594 C 526.488281 408.03125 545.539062 404.308594 551.550781 393.386719 C 566.882812 393.445312 582.078125 394.492188 597.207031 397.039062 C 597.75 406.433594 580.605469 410.277344 574.277344 412.773438 Z M 574.277344 412.773438 " fill-opacity="1" fill-rule="nonzero"/><path fill="#b8c5cd" d="M 668.269531 434.371094 C 652.835938 430.820312 637.628906 426.484375 622.351562 422.335938 C 628.015625 418.851562 638.625 414.148438 634.964844 405.433594 C 647.355469 408.613281 659.742188 411.636719 672.300781 414.085938 C 673.839844 422.476562 673.417969 427.367188 668.269531 434.371094 Z M 668.269531 434.371094 " fill-opacity="1" fill-rule="nonzero"/><path fill="#b8c5cd" d="M 770.195312 434.371094 C 753.511719 438.125 736.625 440.097656 719.527344 440.292969 C 719.527344 432.082031 719.21875 426.523438 716.585938 418.535156 C 731.402344 418.058594 746.121094 416.574219 760.738281 414.085938 C 763.679688 420.714844 765.695312 428.539062 770.195312 434.371094 Z M 770.195312 434.371094 " fill-opacity="1" fill-rule="nonzero"/><path fill="#b8c5cd" d="M 862.136719 412.773438 C 846.105469 414.75 830.566406 418.148438 814.976562 422.339844 C 807.703125 418.054688 800.894531 414.574219 799.554688 405.4375 C 812.546875 402.289062 825.523438 399.347656 838.691406 397.039062 C 838.613281 406.585938 855.757812 410.378906 862.136719 412.773438 Z M 862.136719 412.773438 " fill-opacity="1" fill-rule="nonzero"/><path fill="#b8c5cd" d="M 988.65625 411.5625 L 920.433594 411.5625 C 910.460938 408.339844 889.328125 404.648438 884.136719 393.390625 L 942.164062 393.390625 C 955.535156 402.972656 973.210938 406.734375 988.65625 411.5625 Z M 988.65625 411.5625 " fill-opacity="1" fill-rule="nonzero"/><g clip-path="url(#97096236ed)"><path fill="#b8c5cd" d="M 454.824219 435.398438 L 388.644531 435.398438 C 407.558594 424.808594 428.324219 418.238281 448.851562 411.558594 L 516.078125 411.558594 C 496.171875 418.058594 472.203125 423.078125 454.824219 435.398438 Z M 454.824219 435.398438 " fill-opacity="1" fill-rule="nonzero"/></g><path fill="#b8c5cd" d="M 587.175781 442.523438 C 565.203125 438.414062 543.378906 435.539062 520.996094 435.398438 C 534.40625 422.90625 557.527344 418.792969 574.277344 412.773438 C 590.605469 414.761719 606.453125 418.171875 622.351562 422.339844 C 611.28125 428.144531 595.765625 432.996094 587.175781 442.523438 Z M 587.175781 442.523438 " fill-opacity="1" fill-rule="nonzero"/><path fill="#b8c5cd" d="M 719.527344 464.132812 C 697.148438 463.796875 675.304688 460.71875 653.351562 456.519531 C 656.390625 448.019531 663.078125 441.570312 668.265625 434.371094 C 685.164062 437.992188 702.25 439.964844 719.527344 440.292969 Z M 719.527344 464.132812 " fill-opacity="1" fill-rule="nonzero"/><path fill="#b8c5cd" d="M 851.882812 442.523438 C 829.761719 446.902344 807.8125 452.070312 785.703125 456.519531 C 783.175781 448.035156 775.507812 441.113281 770.191406 434.371094 C 785.25 430.828125 800.074219 426.484375 814.972656 422.335938 C 826.457031 428.054688 843 432.765625 851.882812 442.523438 Z M 851.882812 442.523438 " fill-opacity="1" fill-rule="nonzero"/><path fill="#b8c5cd" d="M 984.234375 435.398438 L 918.058594 435.398438 C 905.167969 422.320312 878.847656 418.464844 862.136719 412.773438 C 881.457031 410.769531 901.035156 411.558594 920.429688 411.558594 C 941.242188 418.023438 966 422.8125 984.234375 435.398438 Z M 984.234375 435.398438 " fill-opacity="1" fill-rule="nonzero"/><path fill="#b8c5cd" d="M 484.300781 468.054688 L 405.894531 468.054688 C 422.203125 457.167969 438.511719 446.285156 454.824219 435.398438 L 521 435.398438 Z M 484.300781 468.054688 " fill-opacity="1" fill-rule="nonzero"/><path fill="#b8c5cd" d="M 641.121094 486.675781 C 615.042969 481.097656 589.101562 474.996094 562.710938 471.042969 C 570.777344 461.460938 578.933594 451.953125 587.175781 442.523438 C 609.296875 446.902344 631.246094 452.070312 653.351562 456.519531 C 649.285156 466.578125 645.207031 476.628906 641.121094 486.675781 Z M 641.121094 486.675781 " fill-opacity="1" fill-rule="nonzero"/><g clip-path="url(#e84642771b)"><path fill="#b8c5cd" d="M 797.9375 486.675781 C 771.980469 492.0625 746.09375 496.382812 719.527344 496.789062 L 719.527344 464.132812 C 741.90625 463.796875 763.753906 460.71875 785.707031 456.519531 C 789.773438 466.578125 793.847656 476.628906 797.9375 486.675781 Z M 797.9375 486.675781 " fill-opacity="1" fill-rule="nonzero"/></g><path fill="#b8c5cd" d="M 954.753906 468.054688 C 928.472656 468.054688 902.460938 467.621094 876.34375 471.042969 C 868.277344 461.460938 860.125 451.953125 851.882812 442.523438 C 873.851562 438.414062 895.675781 435.539062 918.058594 435.398438 Z M 954.753906 468.054688 " fill-opacity="1" fill-rule="nonzero"/><g clip-path="url(#b9c3bec8ce)"><path fill="#b8c5cd" d="M 1111.570312 468.054688 L 1033.164062 468.054688 C 1016.855469 457.167969 1000.542969 446.285156 984.234375 435.398438 L 1050.414062 435.398438 C 1070.800781 446.285156 1091.183594 457.171875 1111.570312 468.054688 Z M 1111.570312 468.054688 " fill-opacity="1" fill-rule="nonzero"/></g></svg>