<svg xmlns="http://www.w3.org/2000/svg" xmlns:xlink="http://www.w3.org/1999/xlink" width="2000" zoomAndPan="magnify" viewBox="0 0 1500 824.999997" height="1100" preserveAspectRatio="xMidYMid meet" version="1.0"><defs><clipPath id="79be953c2b"><path d="M 842.050781 356.078125 L 921.324219 356.078125 L 921.324219 435.785156 L 842.050781 435.785156 Z M 842.050781 356.078125 " clip-rule="nonzero"/></clipPath><clipPath id="1e659f86b2"><path d="M 675.753906 451.425781 L 823.40625 451.425781 L 823.40625 598.6875 L 675.753906 598.6875 Z M 675.753906 451.425781 " clip-rule="nonzero"/></clipPath></defs><g clip-path="url(#79be953c2b)"><path fill="#e6e6e4" d="M 921.324219 395.8125 C 921.324219 417.515625 903.707031 435.113281 881.980469 435.113281 C 860.25 435.113281 842.636719 417.515625 842.636719 395.8125 C 842.636719 374.109375 860.25 356.511719 881.980469 356.511719 C 903.707031 356.511719 921.324219 374.109375 921.324219 395.8125 " fill-opacity="1" fill-rule="nonzero"/></g><path fill="#e6e6e4" d="M 687.335938 416.101562 C 687.335938 437.804688 669.71875 455.402344 647.992188 455.402344 C 626.261719 455.402344 608.648438 437.804688 608.648438 416.101562 C 608.648438 394.398438 626.261719 376.800781 647.992188 376.800781 C 669.71875 376.800781 687.335938 394.398438 687.335938 416.101562 " fill-opacity="1" fill-rule="nonzero"/><g clip-path="url(#1e659f86b2)"><path fill="#b8c5cd" d="M 823.164062 525.144531 C 823.164062 565.761719 790.203125 598.6875 749.539062 598.6875 C 708.878906 598.6875 675.917969 565.761719 675.917969 525.144531 C 675.917969 484.527344 708.878906 451.605469 749.539062 451.605469 C 790.203125 451.605469 823.164062 484.527344 823.164062 525.144531 " fill-opacity="1" fill-rule="nonzero"/></g><path fill="#e6e6e4" d="M 719.105469 293.386719 C 704.675781 293.386719 692.984375 281.703125 692.984375 267.296875 C 692.984375 252.886719 704.675781 241.203125 719.105469 241.203125 C 733.527344 241.203125 745.222656 252.886719 745.222656 267.296875 C 745.222656 281.703125 733.527344 293.386719 719.105469 293.386719 Z M 719.105469 227.636719 C 697.175781 227.636719 679.398438 245.394531 679.398438 267.296875 C 679.398438 289.199219 697.175781 306.953125 719.105469 306.953125 C 741.03125 306.953125 758.804688 289.199219 758.804688 267.296875 C 758.804688 245.394531 741.03125 227.636719 719.105469 227.636719 " fill-opacity="1" fill-rule="nonzero"/><path fill="#e6e6e4" d="M 847.089844 227.808594 C 825.660156 248.285156 803.980469 268.5 782.050781 288.445312 C 780.03125 290.28125 783.03125 293.261719 785.042969 291.433594 C 806.972656 271.488281 828.652344 251.277344 850.082031 230.796875 C 852.054688 228.914062 849.058594 225.925781 847.089844 227.808594 " fill-opacity="1" fill-rule="nonzero"/><path fill="#e6e6e4" d="M 916.90625 461.113281 C 895.476562 481.589844 873.792969 501.804688 851.867188 521.746094 C 849.847656 523.582031 852.847656 526.566406 854.859375 524.738281 C 876.789062 504.792969 898.46875 484.582031 919.898438 464.101562 C 921.871094 462.214844 918.875 459.234375 916.90625 461.113281 " fill-opacity="1" fill-rule="nonzero"/><path fill="#e6e6e4" d="M 645.261719 314.03125 C 623.832031 334.507812 602.148438 354.71875 580.222656 374.664062 C 578.203125 376.5 581.203125 379.480469 583.214844 377.65625 C 605.144531 357.710938 626.824219 337.496094 648.253906 317.019531 C 650.226562 315.136719 647.230469 312.148438 645.261719 314.03125 " fill-opacity="1" fill-rule="nonzero"/><path fill="#e6e6e4" d="M 753.585938 315.71875 C 732.15625 336.199219 710.476562 356.410156 688.546875 376.355469 C 686.527344 378.191406 689.527344 381.171875 691.539062 379.34375 C 713.46875 359.402344 735.148438 339.1875 756.578125 318.710938 C 758.550781 316.824219 755.554688 313.839844 753.585938 315.71875 " fill-opacity="1" fill-rule="nonzero"/><path fill="#e6e6e4" d="M 679.53125 463.648438 C 658.105469 484.125 636.421875 504.339844 614.492188 524.285156 C 612.476562 526.121094 615.476562 529.101562 617.484375 527.273438 C 639.414062 507.328125 661.097656 487.113281 682.527344 466.640625 C 684.496094 464.753906 681.503906 461.769531 679.53125 463.648438 " fill-opacity="1" fill-rule="nonzero"/><path fill="#e6e6e4" d="M 820.433594 343.195312 C 799.003906 363.671875 777.324219 383.886719 755.394531 403.828125 C 753.375 405.664062 756.375 408.648438 758.386719 406.816406 C 780.316406 386.875 801.996094 366.660156 823.425781 346.183594 C 825.398438 344.296875 822.402344 341.3125 820.433594 343.195312 " fill-opacity="1" fill-rule="nonzero"/></svg>