<svg xmlns="http://www.w3.org/2000/svg" xmlns:xlink="http://www.w3.org/1999/xlink" width="2000" zoomAndPan="magnify" viewBox="0 0 1500 824.999997" height="1100" preserveAspectRatio="xMidYMid meet" version="1.0"><defs><clipPath id="7fd0b2ade2"><path d="M 575.140625 223.644531 L 977 223.644531 L 977 625.644531 L 575.140625 625.644531 Z M 575.140625 223.644531 " clip-rule="nonzero"/></clipPath></defs><g clip-path="url(#7fd0b2ade2)"><path fill="#ccd6dd" d="M 976.519531 223.964844 C 976.511719 223.957031 976.5 223.949219 976.492188 223.9375 C 976.484375 223.929688 976.472656 223.917969 976.460938 223.910156 C 976.304688 223.75 976.078125 223.644531 975.785156 223.644531 C 970.101562 223.644531 964.410156 223.644531 958.726562 223.644531 C 944.53125 223.644531 930.332031 223.644531 916.132812 223.644531 C 897.714844 223.644531 879.292969 223.644531 860.871094 223.644531 C 842.515625 223.644531 824.15625 223.644531 805.800781 223.644531 C 791.796875 223.644531 777.792969 223.644531 763.785156 223.644531 C 758.417969 223.644531 753.046875 223.644531 747.679688 223.644531 C 747.382812 223.644531 747.160156 223.75 746.996094 223.910156 C 746.988281 223.917969 746.980469 223.929688 746.96875 223.9375 C 746.960938 223.949219 746.949219 223.957031 746.941406 223.964844 C 746.78125 224.128906 746.675781 224.351562 746.675781 224.648438 C 746.675781 230.328125 746.675781 236.003906 746.675781 241.683594 C 746.675781 254.714844 746.675781 267.746094 746.675781 280.777344 C 733.347656 280.777344 720.023438 280.777344 706.699219 280.777344 C 701.328125 280.777344 695.957031 280.777344 690.589844 280.777344 C 690.292969 280.777344 690.070312 280.886719 689.910156 281.046875 C 689.898438 281.054688 689.890625 281.066406 689.882812 281.074219 C 689.871094 281.082031 689.863281 281.089844 689.855469 281.101562 C 689.691406 281.261719 689.585938 281.488281 689.585938 281.78125 C 689.585938 287.460938 689.585938 293.136719 689.585938 298.816406 C 689.585938 311.847656 689.585938 324.878906 689.585938 337.914062 C 676.300781 337.914062 663.019531 337.914062 649.734375 337.914062 C 644.363281 337.914062 638.996094 337.914062 633.628906 337.914062 C 633.332031 337.914062 633.105469 338.019531 632.945312 338.183594 C 632.9375 338.191406 632.929688 338.199219 632.917969 338.207031 C 632.910156 338.21875 632.898438 338.226562 632.890625 338.234375 C 632.730469 338.398438 632.621094 338.621094 632.621094 338.917969 C 632.621094 344.589844 632.621094 350.261719 632.621094 355.933594 C 632.621094 368.972656 632.621094 382.007812 632.621094 395.046875 C 619.296875 395.046875 605.96875 395.046875 592.644531 395.046875 C 587.273438 395.046875 581.902344 395.046875 576.535156 395.046875 C 576.238281 395.046875 576.015625 395.152344 575.851562 395.316406 C 575.84375 395.324219 575.835938 395.332031 575.828125 395.34375 C 575.816406 395.351562 575.808594 395.359375 575.800781 395.371094 C 575.640625 395.527344 575.53125 395.75 575.53125 396.046875 C 575.53125 401.71875 575.53125 407.390625 575.53125 413.0625 C 575.53125 427.234375 575.53125 441.410156 575.53125 455.582031 C 575.53125 473.992188 575.53125 492.398438 575.53125 510.804688 C 575.53125 529.179688 575.53125 547.558594 575.53125 565.933594 C 575.53125 580.011719 575.53125 594.089844 575.53125 608.164062 C 575.53125 613.679688 575.53125 619.195312 575.53125 624.710938 C 575.53125 625.003906 575.640625 625.230469 575.800781 625.390625 C 575.808594 625.398438 575.816406 625.410156 575.828125 625.417969 C 575.835938 625.429688 575.84375 625.4375 575.851562 625.445312 C 576.015625 625.605469 576.238281 625.714844 576.535156 625.714844 C 582.21875 625.714844 587.90625 625.714844 593.589844 625.714844 C 607.785156 625.714844 621.984375 625.714844 636.179688 625.714844 C 654.601562 625.714844 673.023438 625.714844 691.445312 625.714844 C 709.800781 625.714844 728.15625 625.714844 746.511719 625.714844 C 760.515625 625.714844 774.523438 625.714844 788.527344 625.714844 C 793.894531 625.714844 799.265625 625.714844 804.632812 625.714844 C 804.929688 625.714844 805.152344 625.605469 805.316406 625.445312 C 805.328125 625.4375 805.335938 625.425781 805.34375 625.417969 C 805.351562 625.40625 805.363281 625.398438 805.371094 625.390625 C 805.535156 625.230469 805.640625 625.003906 805.640625 624.710938 C 805.640625 619.039062 805.640625 613.363281 805.640625 607.691406 C 805.640625 594.65625 805.640625 581.617188 805.640625 568.578125 C 818.96875 568.578125 832.292969 568.578125 845.621094 568.578125 C 850.988281 568.578125 856.359375 568.578125 861.726562 568.578125 C 862.023438 568.578125 862.246094 568.472656 862.410156 568.308594 C 862.421875 568.300781 862.429688 568.292969 862.4375 568.28125 C 862.445312 568.273438 862.457031 568.265625 862.464844 568.253906 C 862.628906 568.09375 862.734375 567.871094 862.734375 567.574219 C 862.734375 561.902344 862.734375 556.230469 862.734375 550.558594 C 862.734375 537.476562 862.734375 524.394531 862.734375 511.3125 C 876.019531 511.3125 889.300781 511.3125 902.585938 511.3125 C 907.957031 511.3125 913.324219 511.3125 918.695312 511.3125 C 918.988281 511.3125 919.214844 511.207031 919.375 511.042969 C 919.386719 511.035156 919.394531 511.027344 919.40625 511.015625 C 919.414062 511.007812 919.421875 511 919.429688 510.988281 C 919.59375 510.828125 919.699219 510.605469 919.699219 510.308594 C 919.699219 504.628906 919.699219 498.949219 919.699219 493.273438 C 919.699219 480.242188 919.699219 467.210938 919.699219 454.179688 C 933.023438 454.179688 946.351562 454.179688 959.675781 454.179688 C 965.046875 454.179688 970.414062 454.179688 975.785156 454.179688 C 976.078125 454.179688 976.304688 454.070312 976.464844 453.910156 C 976.476562 453.902344 976.484375 453.890625 976.492188 453.882812 C 976.503906 453.875 976.511719 453.863281 976.519531 453.855469 C 976.683594 453.691406 976.789062 453.46875 976.789062 453.171875 C 976.789062 447.496094 976.789062 441.816406 976.789062 436.136719 C 976.789062 421.953125 976.789062 407.769531 976.789062 393.582031 C 976.789062 375.167969 976.789062 356.75 976.789062 338.332031 C 976.789062 319.957031 976.789062 301.585938 976.789062 283.210938 C 976.789062 269.152344 976.789062 255.097656 976.789062 241.039062 C 976.789062 235.574219 976.789062 230.105469 976.789062 224.640625 C 976.785156 224.351562 976.679688 224.125 976.519531 223.964844 Z M 691.589844 298.183594 C 691.589844 293.050781 691.589844 287.917969 691.589844 282.785156 C 696.945312 282.785156 702.292969 282.785156 707.644531 282.785156 C 720.65625 282.785156 733.664062 282.785156 746.675781 282.785156 C 746.675781 283.269531 746.675781 283.753906 746.675781 284.238281 C 746.675781 302.128906 746.675781 320.019531 746.675781 337.914062 C 728.363281 337.914062 710.054688 337.914062 691.746094 337.914062 C 691.695312 337.914062 691.644531 337.914062 691.589844 337.914062 C 691.589844 324.667969 691.589844 311.421875 691.589844 298.183594 Z M 917.691406 298.816406 C 917.691406 313 917.691406 327.183594 917.691406 341.371094 C 917.691406 359.789062 917.691406 378.203125 917.691406 396.621094 C 917.691406 414.996094 917.691406 433.367188 917.691406 451.742188 C 917.691406 451.886719 917.691406 452.03125 917.691406 452.175781 C 917.171875 452.175781 916.652344 452.175781 916.132812 452.175781 C 898.335938 452.175781 880.535156 452.175781 862.734375 452.175781 C 862.734375 434.011719 862.734375 415.851562 862.734375 397.691406 C 862.734375 383.613281 862.734375 369.535156 862.734375 355.457031 C 862.734375 349.945312 862.734375 344.429688 862.734375 338.917969 C 862.734375 338.621094 862.625 338.398438 862.464844 338.234375 C 862.457031 338.226562 862.445312 338.214844 862.4375 338.207031 C 862.429688 338.199219 862.421875 338.1875 862.410156 338.179688 C 862.246094 338.019531 862.023438 337.910156 861.726562 337.910156 C 856.042969 337.910156 850.355469 337.910156 844.671875 337.910156 C 830.476562 337.910156 816.277344 337.910156 802.078125 337.910156 C 784.277344 337.910156 766.476562 337.910156 748.675781 337.910156 C 748.675781 319.679688 748.675781 301.449219 748.675781 283.21875 C 748.675781 283.074219 748.675781 282.929688 748.675781 282.785156 C 749.195312 282.785156 749.714844 282.785156 750.234375 282.785156 C 768.65625 282.785156 787.078125 282.785156 805.5 282.785156 C 823.855469 282.785156 842.210938 282.785156 860.570312 282.785156 C 874.574219 282.785156 888.578125 282.785156 902.582031 282.785156 C 907.617188 282.785156 912.65625 282.785156 917.6875 282.785156 C 917.691406 288.128906 917.691406 293.472656 917.691406 298.816406 Z M 634.628906 550.558594 C 634.628906 536.382812 634.628906 522.210938 634.628906 508.039062 C 634.628906 489.628906 634.628906 471.222656 634.628906 452.8125 C 634.628906 434.4375 634.628906 416.0625 634.628906 397.6875 C 634.628906 397.472656 634.628906 397.261719 634.628906 397.050781 C 635.148438 397.050781 635.664062 397.050781 636.183594 397.050781 C 653.984375 397.050781 671.785156 397.050781 689.585938 397.050781 C 689.585938 415.277344 689.585938 433.511719 689.585938 451.738281 C 689.585938 465.796875 689.585938 479.851562 689.585938 493.910156 C 689.585938 499.375 689.585938 504.84375 689.585938 510.308594 C 689.585938 510.605469 689.691406 510.828125 689.851562 510.992188 C 689.859375 511 689.871094 511.007812 689.878906 511.019531 C 689.890625 511.027344 689.898438 511.039062 689.90625 511.046875 C 690.070312 511.207031 690.292969 511.316406 690.589844 511.316406 C 696.273438 511.316406 701.960938 511.316406 707.644531 511.316406 C 721.839844 511.316406 736.039062 511.316406 750.238281 511.316406 C 768.035156 511.316406 785.835938 511.316406 803.632812 511.316406 C 803.632812 529.519531 803.632812 547.726562 803.632812 565.933594 C 803.632812 566.148438 803.632812 566.359375 803.632812 566.570312 C 803.117188 566.570312 802.597656 566.570312 802.082031 566.570312 C 783.660156 566.570312 765.238281 566.570312 746.816406 566.570312 C 728.460938 566.570312 710.101562 566.570312 691.746094 566.570312 C 677.742188 566.570312 663.738281 566.570312 649.734375 566.570312 C 644.699219 566.570312 639.664062 566.570312 634.628906 566.570312 C 634.628906 561.234375 634.628906 555.894531 634.628906 550.558594 Z M 860.726562 398.449219 C 860.726562 416.359375 860.726562 434.265625 860.726562 452.175781 C 842.417969 452.175781 824.109375 452.175781 805.800781 452.175781 C 805.746094 452.175781 805.695312 452.175781 805.640625 452.175781 C 805.640625 438.980469 805.640625 425.785156 805.640625 412.585938 C 805.640625 407.074219 805.640625 401.5625 805.640625 396.046875 C 805.640625 395.75 805.535156 395.527344 805.371094 395.363281 C 805.363281 395.355469 805.351562 395.34375 805.34375 395.335938 C 805.335938 395.328125 805.328125 395.316406 805.316406 395.308594 C 805.152344 395.148438 804.929688 395.039062 804.632812 395.039062 C 798.949219 395.039062 793.261719 395.039062 787.578125 395.039062 C 774.613281 395.039062 761.644531 395.039062 748.675781 395.039062 C 748.675781 394.554688 748.675781 394.070312 748.675781 393.585938 C 748.675781 375.695312 748.675781 357.804688 748.675781 339.914062 C 766.984375 339.914062 785.292969 339.914062 803.605469 339.914062 C 817.609375 339.914062 831.613281 339.914062 845.617188 339.914062 C 850.652344 339.914062 855.691406 339.914062 860.722656 339.914062 C 860.722656 345.253906 860.722656 350.589844 860.722656 355.929688 C 860.726562 370.105469 860.726562 384.277344 860.726562 398.449219 Z M 803.636719 509.308594 C 785.324219 509.308594 767.019531 509.308594 748.710938 509.308594 C 734.707031 509.308594 720.703125 509.308594 706.699219 509.308594 C 701.660156 509.308594 696.628906 509.308594 691.589844 509.308594 C 691.589844 503.964844 691.589844 498.621094 691.589844 493.277344 C 691.589844 479.09375 691.589844 464.910156 691.589844 450.722656 C 691.589844 432.832031 691.589844 414.941406 691.589844 397.050781 C 709.902344 397.050781 728.207031 397.050781 746.515625 397.050781 C 746.570312 397.050781 746.621094 397.050781 746.675781 397.050781 C 746.675781 410.292969 746.675781 423.535156 746.675781 436.777344 C 746.675781 442.246094 746.675781 447.710938 746.675781 453.179688 C 746.675781 453.472656 746.78125 453.699219 746.941406 453.859375 C 746.949219 453.867188 746.960938 453.878906 746.96875 453.886719 C 746.980469 453.898438 746.988281 453.90625 746.996094 453.914062 C 747.15625 454.074219 747.382812 454.183594 747.675781 454.183594 C 753.363281 454.183594 759.046875 454.183594 764.734375 454.183594 C 777.699219 454.183594 790.667969 454.183594 803.632812 454.183594 C 803.632812 454.652344 803.632812 455.117188 803.632812 455.585938 C 803.636719 473.492188 803.636719 491.398438 803.636719 509.308594 Z M 763.785156 452.175781 C 758.75 452.175781 753.714844 452.175781 748.679688 452.175781 C 748.679688 446.832031 748.679688 441.488281 748.679688 436.144531 C 748.679688 423.113281 748.679688 410.078125 748.679688 397.050781 C 761.960938 397.050781 775.246094 397.050781 788.527344 397.050781 C 793.5625 397.050781 798.597656 397.050781 803.632812 397.050781 C 803.632812 402.386719 803.632812 407.722656 803.632812 413.0625 C 803.632812 426.101562 803.632812 439.136719 803.632812 452.175781 C 790.351562 452.175781 777.066406 452.175781 763.785156 452.175781 Z M 746.675781 394.609375 C 746.675781 394.753906 746.675781 394.898438 746.675781 395.042969 C 746.113281 395.042969 745.550781 395.042969 744.988281 395.042969 C 727.191406 395.042969 709.390625 395.042969 691.589844 395.042969 C 691.589844 376.808594 691.589844 358.582031 691.589844 340.351562 C 691.589844 340.207031 691.589844 340.0625 691.589844 339.917969 C 692.152344 339.917969 692.710938 339.917969 693.273438 339.917969 C 711.074219 339.917969 728.875 339.917969 746.675781 339.917969 C 746.675781 358.148438 746.675781 376.375 746.675781 394.609375 Z M 805.640625 454.820312 C 805.640625 454.605469 805.640625 454.394531 805.640625 454.179688 C 806.203125 454.179688 806.765625 454.179688 807.324219 454.179688 C 825.125 454.179688 842.925781 454.179688 860.726562 454.179688 C 860.726562 472.386719 860.726562 490.59375 860.726562 508.800781 C 860.726562 508.96875 860.726562 509.140625 860.726562 509.308594 C 860.167969 509.308594 859.605469 509.308594 859.046875 509.308594 C 841.246094 509.308594 823.441406 509.308594 805.640625 509.308594 C 805.640625 491.144531 805.640625 472.984375 805.640625 454.820312 Z M 634.628906 355.453125 C 634.628906 350.277344 634.628906 345.097656 634.628906 339.917969 C 639.980469 339.917969 645.332031 339.917969 650.679688 339.917969 C 663.648438 339.917969 676.617188 339.917969 689.585938 339.917969 C 689.585938 340.402344 689.585938 340.886719 689.585938 341.371094 C 689.585938 359.261719 689.585938 377.152344 689.585938 395.042969 C 671.277344 395.042969 652.964844 395.042969 634.65625 395.042969 C 634.644531 395.042969 634.636719 395.042969 634.628906 395.042969 C 634.628906 381.847656 634.628906 368.652344 634.628906 355.453125 Z M 803.636719 608.164062 C 803.636719 613.34375 803.636719 618.527344 803.636719 623.703125 C 798.285156 623.703125 792.933594 623.703125 787.582031 623.703125 C 773.386719 623.703125 759.1875 623.703125 744.992188 623.703125 C 726.570312 623.703125 708.148438 623.703125 689.726562 623.703125 C 671.371094 623.703125 653.015625 623.703125 634.660156 623.703125 C 620.65625 623.703125 606.652344 623.703125 592.644531 623.703125 C 587.613281 623.703125 582.574219 623.703125 577.542969 623.703125 C 577.542969 618.367188 577.542969 613.027344 577.542969 607.691406 C 577.542969 593.515625 577.542969 579.34375 577.542969 565.171875 C 577.542969 546.761719 577.542969 528.355469 577.542969 509.949219 C 577.542969 491.570312 577.542969 473.195312 577.542969 454.820312 C 577.542969 440.742188 577.542969 426.664062 577.542969 412.585938 C 577.542969 407.410156 577.542969 402.230469 577.542969 397.050781 C 582.890625 397.050781 588.242188 397.050781 593.59375 397.050781 C 606.605469 397.050781 619.617188 397.050781 632.625 397.050781 C 632.625 397.515625 632.625 397.984375 632.625 398.449219 C 632.625 416.859375 632.625 435.265625 632.625 453.675781 C 632.625 472.050781 632.625 490.425781 632.625 508.800781 C 632.625 522.878906 632.625 536.957031 632.625 551.035156 C 632.625 556.546875 632.625 562.0625 632.625 567.574219 C 632.625 567.871094 632.730469 568.09375 632.894531 568.257812 C 632.902344 568.265625 632.914062 568.277344 632.921875 568.285156 C 632.929688 568.292969 632.9375 568.304688 632.949219 568.3125 C 633.109375 568.472656 633.335938 568.582031 633.628906 568.582031 C 639.316406 568.582031 645 568.582031 650.683594 568.582031 C 664.882812 568.582031 679.082031 568.582031 693.277344 568.582031 C 711.699219 568.582031 730.121094 568.582031 748.539062 568.582031 C 766.898438 568.582031 785.257812 568.582031 803.609375 568.582031 C 803.621094 568.582031 803.628906 568.582031 803.636719 568.582031 C 803.636719 581.773438 803.636719 594.96875 803.636719 608.164062 Z M 860.726562 551.035156 C 860.726562 556.210938 860.726562 561.390625 860.726562 566.570312 C 855.378906 566.570312 850.027344 566.570312 844.675781 566.570312 C 831.664062 566.570312 818.652344 566.570312 805.640625 566.570312 C 805.640625 566.105469 805.640625 565.636719 805.640625 565.171875 C 805.640625 547.21875 805.640625 529.265625 805.640625 511.316406 C 823.953125 511.316406 842.261719 511.316406 860.574219 511.316406 C 860.625 511.316406 860.675781 511.316406 860.730469 511.316406 C 860.726562 524.554688 860.726562 537.792969 860.726562 551.035156 Z M 917.691406 493.910156 C 917.691406 499.042969 917.691406 504.175781 917.691406 509.308594 C 912.339844 509.308594 906.988281 509.308594 901.640625 509.308594 C 888.671875 509.308594 875.703125 509.308594 862.734375 509.308594 C 862.734375 508.882812 862.734375 508.460938 862.734375 508.039062 C 862.734375 490.085938 862.734375 472.132812 862.734375 454.179688 C 881.042969 454.179688 899.351562 454.179688 917.664062 454.179688 C 917.671875 454.179688 917.683594 454.179688 917.695312 454.179688 C 917.691406 467.425781 917.691406 480.667969 917.691406 493.910156 Z M 958.726562 452.175781 C 945.71875 452.175781 932.707031 452.175781 919.699219 452.175781 C 919.699219 451.691406 919.699219 451.207031 919.699219 450.722656 C 919.699219 432.304688 919.699219 413.886719 919.699219 395.472656 C 919.699219 377.097656 919.699219 358.722656 919.699219 340.347656 C 919.699219 326.292969 919.699219 312.238281 919.699219 298.179688 C 919.699219 292.714844 919.699219 287.246094 919.699219 281.78125 C 919.699219 281.484375 919.589844 281.261719 919.429688 281.097656 C 919.421875 281.089844 919.410156 281.082031 919.402344 281.070312 C 919.390625 281.0625 919.382812 281.050781 919.375 281.042969 C 919.214844 280.882812 918.988281 280.777344 918.691406 280.777344 C 913.007812 280.777344 907.320312 280.777344 901.636719 280.777344 C 887.4375 280.777344 873.242188 280.777344 859.042969 280.777344 C 840.621094 280.777344 822.199219 280.777344 803.78125 280.777344 C 785.421875 280.777344 767.066406 280.777344 748.707031 280.777344 C 748.699219 280.777344 748.6875 280.777344 748.675781 280.777344 C 748.675781 267.53125 748.675781 254.289062 748.675781 241.046875 C 748.675781 235.914062 748.675781 230.78125 748.675781 225.648438 C 754.03125 225.648438 759.378906 225.648438 764.730469 225.648438 C 778.925781 225.648438 793.125 225.648438 807.324219 225.648438 C 825.746094 225.648438 844.167969 225.648438 862.585938 225.648438 C 880.945312 225.648438 899.300781 225.648438 917.65625 225.648438 C 931.664062 225.648438 945.667969 225.648438 959.671875 225.648438 C 964.707031 225.648438 969.742188 225.648438 974.777344 225.648438 C 974.777344 230.992188 974.777344 236.335938 974.777344 241.679688 C 974.777344 255.863281 974.777344 270.046875 974.777344 284.234375 C 974.777344 302.652344 974.777344 321.066406 974.777344 339.484375 C 974.777344 357.859375 974.777344 376.234375 974.777344 394.609375 C 974.777344 408.664062 974.777344 422.71875 974.777344 436.777344 C 974.777344 441.910156 974.777344 447.042969 974.777344 452.171875 C 969.429688 452.175781 964.078125 452.175781 958.726562 452.175781 Z M 958.726562 452.175781 " fill-opacity="1" fill-rule="nonzero"/></g></svg>