<svg xmlns="http://www.w3.org/2000/svg" xmlns:xlink="http://www.w3.org/1999/xlink" width="2000" zoomAndPan="magnify" viewBox="0 0 1500 824.999997" height="1100" preserveAspectRatio="xMidYMid meet" version="1.0"><defs><clipPath id="31b2fc1223"><path d="M 450 261.6875 L 1049.878906 261.6875 L 1049.878906 563.1875 L 450 563.1875 Z M 450 261.6875 " clip-rule="nonzero"/></clipPath></defs><g clip-path="url(#31b2fc1223)"><path fill="#ccd6dd" d="M 1042.566406 394.214844 C 1022.730469 374.335938 1002.894531 354.457031 983.058594 334.578125 C 963.222656 314.699219 943.386719 294.820312 923.554688 274.941406 C 921.667969 273.054688 919.785156 271.164062 917.898438 269.277344 C 912.902344 264.761719 906.585938 262.011719 899.8125 261.929688 C 892.96875 261.847656 886.453125 264.734375 881.425781 269.277344 C 862.554688 288.1875 843.683594 307.09375 824.816406 326.003906 C 807.832031 308.984375 790.847656 291.960938 773.863281 274.941406 C 771.980469 273.054688 770.097656 271.164062 768.210938 269.277344 C 763.207031 264.765625 756.894531 262.019531 750.121094 261.933594 C 743.277344 261.847656 736.761719 264.734375 731.734375 269.277344 C 712.863281 288.1875 693.996094 307.09375 675.128906 326.003906 C 658.140625 308.984375 641.15625 291.960938 624.171875 274.941406 C 622.289062 273.054688 620.40625 271.164062 618.519531 269.277344 C 613.515625 264.773438 607.199219 262.019531 600.425781 261.9375 C 593.582031 261.847656 587.070312 264.734375 582.042969 269.277344 C 562.210938 289.152344 542.371094 309.03125 522.539062 328.910156 C 502.703125 348.789062 482.867188 368.667969 463.03125 388.546875 C 461.144531 390.4375 459.261719 392.324219 457.375 394.210938 C 452.871094 399.222656 450.121094 405.539062 450.035156 412.316406 C 449.949219 419.160156 452.832031 425.679688 457.375 430.710938 C 477.210938 450.605469 497.046875 470.496094 516.882812 490.390625 C 536.71875 510.28125 556.554688 530.171875 576.390625 550.066406 C 578.277344 551.957031 580.160156 553.84375 582.042969 555.734375 C 587.085938 560.269531 593.457031 563.003906 600.277344 563.039062 C 607.0625 563.078125 613.515625 560.21875 618.519531 555.734375 C 637.386719 536.8125 656.257812 517.890625 675.125 498.964844 C 692.109375 516 709.09375 533.03125 726.078125 550.0625 C 727.964844 551.953125 729.847656 553.84375 731.730469 555.730469 C 736.734375 560.234375 743.050781 562.960938 749.816406 563.039062 C 756.65625 563.121094 763.171875 560.253906 768.210938 555.730469 C 787.078125 536.808594 805.945312 517.886719 824.8125 498.964844 C 841.800781 515.996094 858.785156 533.03125 875.769531 550.0625 C 877.65625 551.953125 879.539062 553.84375 881.425781 555.730469 C 886.429688 560.230469 892.746094 562.960938 899.511719 563.039062 C 906.351562 563.125 912.863281 560.257812 917.898438 555.730469 C 937.734375 535.839844 957.570312 515.945312 977.40625 496.054688 C 997.242188 476.164062 1017.078125 456.269531 1036.914062 436.378906 C 1038.796875 434.488281 1040.683594 432.597656 1042.566406 430.707031 C 1047.105469 425.664062 1049.847656 419.285156 1049.882812 412.460938 C 1049.921875 405.675781 1047.054688 399.21875 1042.566406 394.214844 Z M 982.019531 489.347656 C 962.179688 509.238281 942.34375 529.132812 922.507812 549.023438 C 920.625 550.914062 918.742188 552.804688 916.855469 554.695312 C 912.144531 558.929688 906.179688 561.496094 899.8125 561.570312 C 893.367188 561.652344 887.214844 558.964844 882.46875 554.695312 C 863.597656 535.769531 844.726562 516.847656 825.859375 497.921875 C 825.683594 497.75 825.511719 497.574219 825.335938 497.402344 C 825.164062 497.226562 824.992188 497.050781 824.816406 496.878906 C 824.195312 496.257812 823.578125 495.636719 822.957031 495.015625 C 803.121094 475.121094 783.289062 455.230469 763.453125 435.335938 C 761.566406 433.449219 759.683594 431.558594 757.800781 429.667969 C 753.519531 424.914062 750.949219 418.894531 750.910156 412.464844 C 750.875 406.066406 753.570312 399.972656 757.800781 395.253906 C 777.632812 375.375 797.472656 355.496094 817.308594 335.617188 C 819.808594 333.109375 822.316406 330.601562 824.816406 328.089844 C 824.992188 327.917969 825.164062 327.742188 825.335938 327.570312 C 825.511719 327.394531 825.683594 327.222656 825.859375 327.046875 C 842.84375 310.027344 859.828125 293.003906 876.816406 275.984375 C 878.699219 274.09375 880.582031 272.207031 882.46875 270.316406 C 887.175781 266.066406 893.136719 263.480469 899.511719 263.40625 C 905.964844 263.328125 912.117188 266.035156 916.859375 270.316406 C 936.695312 290.195312 956.527344 310.074219 976.363281 329.953125 C 996.199219 349.832031 1016.035156 369.710938 1035.875 389.589844 C 1037.757812 391.476562 1039.640625 393.367188 1041.527344 395.253906 C 1045.792969 400.011719 1048.367188 406.035156 1048.414062 412.464844 C 1048.453125 418.859375 1045.761719 424.957031 1041.527344 429.667969 C 1021.691406 449.5625 1001.851562 469.457031 982.019531 489.347656 Z M 772.824219 549.027344 C 770.9375 550.914062 769.054688 552.804688 767.167969 554.695312 C 762.453125 558.925781 756.488281 561.488281 750.121094 561.570312 C 743.675781 561.652344 737.523438 558.964844 732.777344 554.695312 C 713.90625 535.769531 695.039062 516.847656 676.167969 497.925781 C 675.996094 497.75 675.820312 497.578125 675.648438 497.402344 C 675.472656 497.230469 675.300781 497.054688 675.128906 496.878906 C 674.507812 496.257812 673.890625 495.636719 673.269531 495.015625 C 653.433594 475.125 633.597656 455.230469 613.761719 435.339844 C 611.875 433.449219 609.992188 431.558594 608.109375 429.671875 C 603.855469 424.960938 601.277344 418.996094 601.199219 412.617188 C 601.125 406.164062 603.832031 400.007812 608.109375 395.253906 C 627.945312 375.378906 647.78125 355.5 667.617188 335.621094 C 670.121094 333.109375 672.621094 330.601562 675.128906 328.09375 C 675.300781 327.917969 675.472656 327.746094 675.648438 327.570312 C 675.824219 327.398438 675.996094 327.222656 676.171875 327.046875 C 693.15625 310.027344 710.140625 293.003906 727.125 275.984375 C 729.007812 274.09375 730.894531 272.207031 732.777344 270.316406 C 737.484375 266.066406 743.445312 263.484375 749.820312 263.40625 C 756.273438 263.332031 762.421875 266.039062 767.167969 270.316406 C 786.039062 289.226562 804.910156 308.136719 823.777344 327.046875 C 823.15625 327.667969 822.539062 328.289062 821.917969 328.910156 C 802.082031 348.789062 782.246094 368.667969 762.410156 388.546875 C 760.527344 390.4375 758.640625 392.324219 756.757812 394.210938 C 753.371094 397.988281 750.984375 402.507812 749.972656 407.398438 C 749.808594 408.191406 749.683594 408.992188 749.59375 409.800781 C 749.496094 410.679688 749.445312 411.570312 749.4375 412.464844 C 749.433594 413.402344 749.484375 414.332031 749.585938 415.25 C 749.667969 416.023438 749.789062 416.789062 749.945312 417.546875 C 750.953125 422.4375 753.402344 426.980469 756.757812 430.710938 C 776.589844 450.605469 796.425781 470.496094 816.261719 490.390625 C 818.769531 492.902344 821.273438 495.410156 823.777344 497.921875 C 806.789062 514.960938 789.804688 531.992188 772.824219 549.027344 Z M 623.128906 549.027344 C 621.246094 550.914062 619.359375 552.804688 617.476562 554.695312 C 612.71875 558.960938 606.699219 561.527344 600.277344 561.570312 C 593.886719 561.609375 587.796875 558.929688 583.089844 554.695312 C 563.253906 534.800781 543.417969 514.910156 523.582031 495.019531 C 503.746094 475.125 483.90625 455.234375 464.074219 435.339844 C 462.1875 433.449219 460.304688 431.558594 458.421875 429.671875 C 454.167969 424.960938 451.585938 418.996094 451.511719 412.617188 C 451.4375 406.164062 454.144531 400.007812 458.421875 395.253906 C 478.253906 375.375 498.089844 355.5 517.925781 335.621094 C 537.761719 315.742188 557.597656 295.863281 577.433594 275.984375 C 579.320312 274.09375 581.203125 272.207031 583.089844 270.316406 C 587.792969 266.066406 593.753906 263.484375 600.128906 263.410156 C 606.578125 263.335938 612.730469 266.042969 617.476562 270.316406 C 636.347656 289.226562 655.214844 308.136719 674.085938 327.046875 C 673.464844 327.671875 672.847656 328.289062 672.226562 328.910156 C 652.390625 348.789062 632.558594 368.667969 612.71875 388.546875 C 610.835938 390.4375 608.953125 392.324219 607.066406 394.210938 C 602.558594 399.21875 599.8125 405.539062 599.730469 412.316406 C 599.640625 419.160156 602.523438 425.679688 607.066406 430.710938 C 626.902344 450.605469 646.738281 470.496094 666.574219 490.390625 C 669.078125 492.902344 671.582031 495.410156 674.085938 497.921875 C 657.101562 514.960938 640.117188 531.992188 623.128906 549.027344 Z M 623.128906 549.027344 " fill-opacity="1" fill-rule="nonzero"/></g></svg>