<svg xmlns="http://www.w3.org/2000/svg" xmlns:xlink="http://www.w3.org/1999/xlink" width="2000" zoomAndPan="magnify" viewBox="0 0 1500 1124.99995" height="1500" preserveAspectRatio="xMidYMid meet" version="1.0"><defs><clipPath id="67c271f49e"><path d="M 599 187.699219 L 903 187.699219 L 903 491 L 599 491 Z M 599 187.699219 " clip-rule="nonzero"/></clipPath><clipPath id="bc3e92aa30"><path d="M 280.902344 620 L 596 620 L 596 935 L 280.902344 935 Z M 280.902344 620 " clip-rule="nonzero"/></clipPath><clipPath id="dd53279a2c"><path d="M 902 620 L 1219.152344 620 L 1219.152344 936.945312 L 902 936.945312 Z M 902 620 " clip-rule="nonzero"/></clipPath></defs><path fill="#486572" d="M 694.023438 415.691406 C 696 412.539062 695.046875 408.375 691.898438 406.398438 L 680.472656 399.234375 C 677.320312 397.257812 673.15625 398.210938 671.179688 401.363281 L 441.816406 766.679688 C 439.839844 769.832031 440.792969 773.992188 443.945312 775.96875 L 455.367188 783.132812 C 458.519531 785.109375 462.683594 784.160156 464.664062 781.007812 Z M 694.023438 415.691406 " fill-opacity="1" fill-rule="evenodd"/><path fill="#486572" d="M 497.476562 820.605469 C 493.757812 820.605469 490.734375 823.625 490.734375 827.34375 L 490.734375 840.824219 C 490.734375 844.542969 493.757812 847.5625 497.476562 847.5625 L 1029.421875 847.5625 C 1033.144531 847.5625 1036.164062 844.542969 1036.164062 840.824219 L 1036.164062 827.34375 C 1036.164062 823.625 1033.144531 820.605469 1029.421875 820.605469 Z M 497.476562 820.605469 " fill-opacity="1" fill-rule="evenodd"/><path fill="#486572" d="M 809.632812 415.691406 C 807.65625 412.539062 808.609375 408.375 811.761719 406.398438 L 823.183594 399.234375 C 826.335938 397.257812 830.5 398.210938 832.476562 401.363281 L 1061.839844 766.679688 C 1063.816406 769.832031 1062.863281 773.992188 1059.710938 775.96875 L 1048.289062 783.132812 C 1045.136719 785.109375 1040.972656 784.160156 1038.992188 781.007812 Z M 809.632812 415.691406 " fill-opacity="1" fill-rule="evenodd"/><g clip-path="url(#67c271f49e)"><path fill="#8c8c8c" d="M 902.210938 339.230469 C 902.210938 341.710938 902.152344 344.1875 902.03125 346.664062 C 901.910156 349.140625 901.726562 351.609375 901.484375 354.078125 C 901.238281 356.542969 900.9375 359.003906 900.570312 361.457031 C 900.207031 363.90625 899.785156 366.347656 899.300781 368.78125 C 898.816406 371.210938 898.273438 373.628906 897.671875 376.035156 C 897.066406 378.4375 896.40625 380.828125 895.6875 383.199219 C 894.96875 385.570312 894.1875 387.925781 893.355469 390.257812 C 892.519531 392.59375 891.625 394.902344 890.675781 397.195312 C 889.726562 399.484375 888.722656 401.75 887.664062 403.992188 C 886.601562 406.230469 885.488281 408.445312 884.316406 410.632812 C 883.148438 412.816406 881.925781 414.972656 880.652344 417.097656 C 879.375 419.226562 878.050781 421.320312 876.671875 423.378906 C 875.292969 425.441406 873.867188 427.46875 872.390625 429.457031 C 870.910156 431.449219 869.386719 433.402344 867.8125 435.320312 C 866.238281 437.234375 864.621094 439.113281 862.953125 440.949219 C 861.289062 442.785156 859.578125 444.578125 857.824219 446.332031 C 856.070312 448.085938 854.277344 449.792969 852.4375 451.460938 C 850.601562 453.125 848.722656 454.742188 846.804688 456.316406 C 844.890625 457.886719 842.933594 459.410156 840.941406 460.886719 C 838.949219 462.367188 836.921875 463.792969 834.859375 465.167969 C 832.800781 466.546875 830.703125 467.871094 828.578125 469.148438 C 826.449219 470.421875 824.292969 471.640625 822.105469 472.8125 C 819.917969 473.980469 817.703125 475.09375 815.460938 476.152344 C 813.21875 477.214844 810.953125 478.21875 808.660156 479.167969 C 806.371094 480.113281 804.054688 481.007812 801.722656 481.839844 C 799.386719 482.675781 797.03125 483.453125 794.660156 484.171875 C 792.285156 484.894531 789.894531 485.554688 787.488281 486.15625 C 785.085938 486.757812 782.664062 487.300781 780.230469 487.785156 C 777.800781 488.269531 775.355469 488.691406 772.902344 489.054688 C 770.449219 489.421875 767.988281 489.722656 765.523438 489.964844 C 763.054688 490.210938 760.582031 490.390625 758.101562 490.511719 C 755.625 490.636719 753.148438 490.695312 750.667969 490.695312 C 748.1875 490.695312 745.707031 490.636719 743.230469 490.511719 C 740.753906 490.390625 738.28125 490.210938 735.8125 489.964844 C 733.34375 489.722656 730.882812 489.421875 728.429688 489.054688 C 725.976562 488.691406 723.535156 488.269531 721.101562 487.785156 C 718.671875 487.300781 716.25 486.757812 713.84375 486.15625 C 711.4375 485.554688 709.050781 484.894531 706.675781 484.171875 C 704.304688 483.453125 701.949219 482.675781 699.613281 481.839844 C 697.277344 481.007812 694.964844 480.113281 692.671875 479.167969 C 690.382812 478.21875 688.117188 477.214844 685.875 476.152344 C 683.632812 475.09375 681.417969 473.980469 679.230469 472.8125 C 677.042969 471.640625 674.886719 470.421875 672.757812 469.148438 C 670.628906 467.871094 668.535156 466.546875 666.472656 465.167969 C 664.410156 463.792969 662.382812 462.367188 660.390625 460.886719 C 658.398438 459.410156 656.445312 457.886719 654.527344 456.316406 C 652.609375 454.742188 650.734375 453.125 648.894531 451.460938 C 647.058594 449.792969 645.261719 448.085938 643.507812 446.332031 C 641.753906 444.578125 640.046875 442.785156 638.378906 440.949219 C 636.714844 439.113281 635.09375 437.234375 633.523438 435.320312 C 631.949219 433.402344 630.421875 431.449219 628.945312 429.457031 C 627.46875 427.46875 626.039062 425.441406 624.664062 423.378906 C 623.285156 421.320312 621.957031 419.226562 620.683594 417.097656 C 619.40625 414.972656 618.1875 412.816406 617.015625 410.632812 C 615.847656 408.445312 614.734375 406.230469 613.671875 403.992188 C 612.613281 401.75 611.605469 399.484375 610.65625 397.195312 C 609.710938 394.902344 608.816406 392.59375 607.980469 390.257812 C 607.144531 387.925781 606.367188 385.570312 605.648438 383.199219 C 604.929688 380.828125 604.265625 378.4375 603.664062 376.035156 C 603.0625 373.628906 602.519531 371.210938 602.035156 368.78125 C 601.550781 366.347656 601.125 363.90625 600.761719 361.457031 C 600.398438 359.003906 600.09375 356.542969 599.851562 354.078125 C 599.609375 351.609375 599.425781 349.140625 599.304688 346.664062 C 599.183594 344.1875 599.121094 341.710938 599.121094 339.230469 C 599.121094 336.753906 599.183594 334.273438 599.304688 331.800781 C 599.425781 329.324219 599.609375 326.851562 599.851562 324.386719 C 600.09375 321.917969 600.398438 319.457031 600.761719 317.007812 C 601.125 314.554688 601.550781 312.113281 602.035156 309.683594 C 602.519531 307.25 603.0625 304.832031 603.664062 302.429688 C 604.265625 300.023438 604.929688 297.636719 605.648438 295.261719 C 606.367188 292.890625 607.144531 290.539062 607.980469 288.203125 C 608.816406 285.871094 609.710938 283.558594 610.65625 281.269531 C 611.605469 278.976562 612.613281 276.710938 613.671875 274.472656 C 614.734375 272.230469 615.847656 270.015625 617.015625 267.832031 C 618.1875 265.644531 619.40625 263.488281 620.683594 261.363281 C 621.957031 259.238281 623.285156 257.144531 624.664062 255.082031 C 626.039062 253.019531 627.46875 250.996094 628.945312 249.003906 C 630.421875 247.011719 631.949219 245.058594 633.523438 243.144531 C 635.09375 241.226562 636.714844 239.351562 638.378906 237.515625 C 640.046875 235.675781 641.753906 233.882812 643.507812 232.128906 C 645.261719 230.375 647.058594 228.667969 648.894531 227.003906 C 650.734375 225.339844 652.609375 223.71875 654.527344 222.148438 C 656.445312 220.574219 658.398438 219.050781 660.390625 217.574219 C 662.382812 216.097656 664.410156 214.671875 666.472656 213.292969 C 668.535156 211.917969 670.628906 210.589844 672.757812 209.316406 C 674.886719 208.042969 677.042969 206.820312 679.230469 205.652344 C 681.417969 204.484375 683.632812 203.367188 685.875 202.308594 C 688.117188 201.25 690.382812 200.246094 692.671875 199.296875 C 694.964844 198.347656 697.277344 197.457031 699.613281 196.621094 C 701.949219 195.785156 704.304688 195.007812 706.675781 194.289062 C 709.050781 193.570312 711.4375 192.910156 713.84375 192.304688 C 716.25 191.703125 718.671875 191.160156 721.101562 190.675781 C 723.535156 190.195312 725.976562 189.769531 728.429688 189.40625 C 730.882812 189.042969 733.34375 188.738281 735.8125 188.496094 C 738.28125 188.253906 740.753906 188.070312 743.230469 187.949219 C 745.707031 187.828125 748.1875 187.765625 750.667969 187.765625 C 753.148438 187.765625 755.625 187.828125 758.101562 187.949219 C 760.582031 188.070312 763.054688 188.253906 765.523438 188.496094 C 767.988281 188.738281 770.449219 189.042969 772.902344 189.40625 C 775.355469 189.769531 777.800781 190.195312 780.234375 190.675781 C 782.664062 191.160156 785.085938 191.703125 787.488281 192.304688 C 789.894531 192.910156 792.285156 193.570312 794.660156 194.289062 C 797.03125 195.007812 799.386719 195.785156 801.722656 196.621094 C 804.054688 197.457031 806.371094 198.347656 808.660156 199.296875 C 810.953125 200.246094 813.21875 201.25 815.460938 202.308594 C 817.703125 203.367188 819.917969 204.484375 822.105469 205.652344 C 824.292969 206.820312 826.449219 208.042969 828.578125 209.316406 C 830.703125 210.589844 832.800781 211.917969 834.863281 213.292969 C 836.921875 214.671875 838.949219 216.097656 840.941406 217.574219 C 842.933594 219.050781 844.890625 220.574219 846.804688 222.148438 C 848.722656 223.71875 850.601562 225.339844 852.4375 227.003906 C 854.277344 228.667969 856.070312 230.375 857.824219 232.128906 C 859.578125 233.882812 861.289062 235.675781 862.953125 237.515625 C 864.621094 239.351562 866.238281 241.226562 867.8125 243.144531 C 869.386719 245.058594 870.910156 247.011719 872.390625 249.003906 C 873.867188 250.996094 875.292969 253.019531 876.671875 255.082031 C 878.050781 257.144531 879.375 259.238281 880.652344 261.363281 C 881.925781 263.488281 883.148438 265.644531 884.316406 267.832031 C 885.488281 270.015625 886.601562 272.230469 887.664062 274.472656 C 888.722656 276.710938 889.726562 278.976562 890.675781 281.269531 C 891.625 283.558594 892.519531 285.871094 893.355469 288.203125 C 894.1875 290.539062 894.96875 292.890625 895.6875 295.261719 C 896.40625 297.636719 897.066406 300.023438 897.671875 302.429688 C 898.273438 304.832031 898.816406 307.25 899.300781 309.683594 C 899.785156 312.113281 900.207031 314.554688 900.570312 317.007812 C 900.9375 319.457031 901.238281 321.917969 901.484375 324.386719 C 901.726562 326.851562 901.910156 329.324219 902.03125 331.800781 C 902.152344 334.273438 902.210938 336.753906 902.210938 339.230469 Z M 902.210938 339.230469 " fill-opacity="1" fill-rule="nonzero"/></g><path fill="#ffffff" d="M 687.902344 418.507812 L 813.433594 418.507812 C 813.25 376.59375 785.195312 342.640625 750.667969 342.640625 C 716.136719 342.640625 688.082031 376.59375 687.902344 418.507812 Z M 687.902344 418.507812 " fill-opacity="1" fill-rule="evenodd"/><path fill="#ffffff" d="M 785.882812 295.148438 C 785.882812 296.300781 785.824219 297.449219 785.710938 298.597656 C 785.597656 299.746094 785.429688 300.882812 785.207031 302.015625 C 784.980469 303.144531 784.699219 304.261719 784.367188 305.367188 C 784.03125 306.46875 783.644531 307.550781 783.203125 308.617188 C 782.761719 309.683594 782.269531 310.722656 781.722656 311.738281 C 781.179688 312.757812 780.589844 313.742188 779.949219 314.703125 C 779.304688 315.660156 778.621094 316.585938 777.890625 317.476562 C 777.15625 318.367188 776.382812 319.21875 775.566406 320.035156 C 774.753906 320.851562 773.898438 321.625 773.007812 322.355469 C 772.117188 323.085938 771.191406 323.773438 770.230469 324.414062 C 769.273438 325.054688 768.285156 325.644531 767.265625 326.1875 C 766.25 326.730469 765.210938 327.222656 764.144531 327.664062 C 763.078125 328.105469 761.992188 328.496094 760.890625 328.828125 C 759.785156 329.164062 758.667969 329.441406 757.539062 329.667969 C 756.40625 329.894531 755.265625 330.0625 754.117188 330.175781 C 752.972656 330.289062 751.820312 330.34375 750.667969 330.34375 C 749.515625 330.34375 748.363281 330.289062 747.214844 330.175781 C 746.066406 330.0625 744.929688 329.894531 743.796875 329.667969 C 742.667969 329.441406 741.550781 329.164062 740.445312 328.828125 C 739.339844 328.496094 738.257812 328.105469 737.191406 327.664062 C 736.125 327.222656 735.085938 326.730469 734.066406 326.1875 C 733.050781 325.644531 732.0625 325.054688 731.101562 324.414062 C 730.144531 323.773438 729.21875 323.085938 728.328125 322.355469 C 727.4375 321.625 726.582031 320.851562 725.765625 320.035156 C 724.953125 319.21875 724.179688 318.367188 723.445312 317.476562 C 722.714844 316.585938 722.027344 315.660156 721.386719 314.703125 C 720.746094 313.742188 720.15625 312.757812 719.609375 311.738281 C 719.066406 310.722656 718.574219 309.683594 718.132812 308.617188 C 717.691406 307.550781 717.304688 306.46875 716.96875 305.367188 C 716.632812 304.261719 716.355469 303.144531 716.128906 302.015625 C 715.90625 300.882812 715.734375 299.746094 715.621094 298.597656 C 715.507812 297.449219 715.453125 296.300781 715.453125 295.148438 C 715.453125 293.996094 715.507812 292.847656 715.621094 291.699219 C 715.734375 290.550781 715.90625 289.414062 716.128906 288.28125 C 716.355469 287.152344 716.632812 286.035156 716.96875 284.929688 C 717.304688 283.828125 717.691406 282.746094 718.132812 281.679688 C 718.574219 280.613281 719.066406 279.574219 719.609375 278.558594 C 720.15625 277.539062 720.746094 276.554688 721.386719 275.59375 C 722.027344 274.636719 722.714844 273.710938 723.445312 272.820312 C 724.179688 271.929688 724.953125 271.078125 725.765625 270.261719 C 726.582031 269.445312 727.4375 268.671875 728.328125 267.941406 C 729.21875 267.210938 730.144531 266.523438 731.101562 265.882812 C 732.0625 265.242188 733.050781 264.652344 734.066406 264.109375 C 735.085938 263.566406 736.125 263.074219 737.191406 262.632812 C 738.257812 262.191406 739.339844 261.800781 740.445312 261.46875 C 741.550781 261.132812 742.667969 260.855469 743.796875 260.628906 C 744.929688 260.402344 746.066406 260.234375 747.214844 260.121094 C 748.363281 260.007812 749.515625 259.953125 750.667969 259.953125 C 751.820312 259.953125 752.972656 260.007812 754.121094 260.121094 C 755.265625 260.234375 756.40625 260.402344 757.539062 260.628906 C 758.667969 260.855469 759.785156 261.132812 760.890625 261.46875 C 761.992188 261.800781 763.078125 262.191406 764.144531 262.632812 C 765.210938 263.074219 766.25 263.566406 767.265625 264.109375 C 768.285156 264.652344 769.273438 265.242188 770.230469 265.882812 C 771.191406 266.523438 772.117188 267.210938 773.007812 267.941406 C 773.898438 268.671875 774.753906 269.445312 775.566406 270.261719 C 776.382812 271.078125 777.15625 271.929688 777.890625 272.820312 C 778.621094 273.710938 779.304688 274.636719 779.949219 275.59375 C 780.589844 276.554688 781.179688 277.539062 781.722656 278.558594 C 782.269531 279.574219 782.761719 280.613281 783.203125 281.679688 C 783.644531 282.746094 784.03125 283.828125 784.367188 284.929688 C 784.699219 286.035156 784.980469 287.152344 785.207031 288.28125 C 785.429688 289.414062 785.597656 290.550781 785.710938 291.699219 C 785.824219 292.847656 785.882812 293.996094 785.882812 295.148438 Z M 785.882812 295.148438 " fill-opacity="1" fill-rule="nonzero"/><g clip-path="url(#bc3e92aa30)"><path fill="#b8c5cd" d="M 595.273438 777.109375 C 595.273438 779.679688 595.210938 782.25 595.085938 784.820312 C 594.960938 787.386719 594.769531 789.949219 594.519531 792.507812 C 594.265625 795.066406 593.953125 797.617188 593.574219 800.164062 C 593.195312 802.707031 592.757812 805.238281 592.253906 807.757812 C 591.753906 810.28125 591.191406 812.789062 590.566406 815.28125 C 589.941406 817.777344 589.253906 820.253906 588.507812 822.714844 C 587.761719 825.175781 586.953125 827.617188 586.085938 830.035156 C 585.21875 832.457031 584.292969 834.855469 583.308594 837.230469 C 582.324219 839.605469 581.285156 841.957031 580.183594 844.28125 C 579.082031 846.605469 577.925781 848.898438 576.714844 851.167969 C 575.503906 853.433594 574.234375 855.671875 572.914062 857.878906 C 571.589844 860.082031 570.214844 862.253906 568.785156 864.390625 C 567.355469 866.53125 565.875 868.632812 564.34375 870.695312 C 562.808594 872.761719 561.226562 874.789062 559.597656 876.773438 C 557.964844 878.761719 556.285156 880.707031 554.554688 882.613281 C 552.828125 884.519531 551.054688 886.378906 549.238281 888.199219 C 547.417969 890.015625 545.554688 891.789062 543.648438 893.515625 C 541.742188 895.242188 539.796875 896.921875 537.808594 898.550781 C 535.820312 900.183594 533.792969 901.765625 531.726562 903.296875 C 529.660156 904.828125 527.554688 906.308594 525.417969 907.734375 C 523.277344 909.164062 521.105469 910.539062 518.898438 911.863281 C 516.691406 913.183594 514.453125 914.449219 512.1875 915.664062 C 509.917969 916.875 507.621094 918.03125 505.296875 919.128906 C 502.96875 920.230469 500.617188 921.269531 498.242188 922.253906 C 495.863281 923.238281 493.464844 924.164062 491.042969 925.027344 C 488.621094 925.894531 486.179688 926.703125 483.71875 927.449219 C 481.257812 928.195312 478.777344 928.878906 476.28125 929.503906 C 473.785156 930.128906 471.277344 930.691406 468.753906 931.195312 C 466.230469 931.695312 463.699219 932.136719 461.152344 932.511719 C 458.609375 932.890625 456.054688 933.203125 453.496094 933.457031 C 450.9375 933.707031 448.371094 933.898438 445.800781 934.023438 C 443.234375 934.148438 440.660156 934.210938 438.089844 934.210938 C 435.515625 934.210938 432.945312 934.148438 430.375 934.023438 C 427.808594 933.898438 425.242188 933.707031 422.683594 933.457031 C 420.121094 933.203125 417.570312 932.890625 415.027344 932.511719 C 412.480469 932.136719 409.945312 931.695312 407.425781 931.195312 C 404.902344 930.691406 402.390625 930.128906 399.894531 929.503906 C 397.402344 928.878906 394.921875 928.195312 392.460938 927.449219 C 390 926.703125 387.558594 925.894531 385.136719 925.027344 C 382.714844 924.164062 380.3125 923.238281 377.9375 922.253906 C 375.558594 921.269531 373.210938 920.230469 370.882812 919.128906 C 368.558594 918.03125 366.261719 916.875 363.992188 915.664062 C 361.722656 914.449219 359.484375 913.183594 357.28125 911.863281 C 355.074219 910.539062 352.902344 909.164062 350.761719 907.734375 C 348.621094 906.308594 346.519531 904.828125 344.453125 903.296875 C 342.386719 901.765625 340.359375 900.183594 338.371094 898.550781 C 336.382812 896.921875 334.4375 895.242188 332.53125 893.515625 C 330.625 891.789062 328.761719 890.015625 326.941406 888.199219 C 325.125 886.378906 323.351562 884.519531 321.621094 882.613281 C 319.894531 880.710938 318.214844 878.761719 316.582031 876.773438 C 314.949219 874.789062 313.367188 872.761719 311.835938 870.695312 C 310.304688 868.632812 308.824219 866.53125 307.394531 864.390625 C 305.964844 862.253906 304.589844 860.082031 303.265625 857.878906 C 301.945312 855.671875 300.675781 853.433594 299.464844 851.167969 C 298.25 848.902344 297.09375 846.605469 295.996094 844.28125 C 294.894531 841.957031 293.851562 839.605469 292.867188 837.230469 C 291.882812 834.855469 290.957031 832.457031 290.09375 830.035156 C 289.226562 827.617188 288.417969 825.175781 287.671875 822.714844 C 286.925781 820.253906 286.238281 817.777344 285.613281 815.28125 C 284.988281 812.789062 284.425781 810.28125 283.921875 807.757812 C 283.421875 805.238281 282.980469 802.707031 282.605469 800.164062 C 282.226562 797.617188 281.914062 795.066406 281.660156 792.507812 C 281.410156 789.949219 281.21875 787.386719 281.09375 784.820312 C 280.964844 782.25 280.902344 779.679688 280.902344 777.109375 C 280.902344 774.539062 280.964844 771.96875 281.09375 769.402344 C 281.21875 766.832031 281.410156 764.269531 281.660156 761.710938 C 281.914062 759.152344 282.226562 756.601562 282.605469 754.058594 C 282.980469 751.515625 283.421875 748.984375 283.921875 746.460938 C 284.425781 743.941406 284.988281 741.433594 285.613281 738.9375 C 286.238281 736.445312 286.925781 733.964844 287.671875 731.507812 C 288.417969 729.046875 289.226562 726.605469 290.09375 724.183594 C 290.957031 721.761719 291.882812 719.367188 292.867188 716.988281 C 293.851562 714.613281 294.894531 712.265625 295.996094 709.941406 C 297.09375 707.617188 298.25 705.320312 299.464844 703.054688 C 300.675781 700.785156 301.945312 698.550781 303.265625 696.34375 C 304.589844 694.136719 305.964844 691.96875 307.394531 689.828125 C 308.824219 687.691406 310.304688 685.589844 311.835938 683.523438 C 313.367188 681.460938 314.949219 679.433594 316.582031 677.445312 C 318.214844 675.457031 319.894531 673.511719 321.621094 671.605469 C 323.351562 669.703125 325.125 667.839844 326.941406 666.023438 C 328.761719 664.203125 330.625 662.433594 332.53125 660.707031 C 334.4375 658.980469 336.382812 657.300781 338.371094 655.667969 C 340.359375 654.039062 342.386719 652.457031 344.453125 650.925781 C 346.519531 649.394531 348.621094 647.914062 350.761719 646.484375 C 352.902344 645.054688 355.074219 643.679688 357.28125 642.359375 C 359.484375 641.039062 361.722656 639.769531 363.992188 638.558594 C 366.261719 637.347656 368.558594 636.191406 370.882812 635.089844 C 373.210938 633.992188 375.558594 632.949219 377.9375 631.96875 C 380.3125 630.984375 382.714844 630.058594 385.136719 629.191406 C 387.558594 628.324219 390 627.519531 392.460938 626.773438 C 394.921875 626.027344 397.402344 625.339844 399.894531 624.714844 C 402.390625 624.089844 404.902344 623.527344 407.425781 623.027344 C 409.945312 622.523438 412.480469 622.085938 415.027344 621.707031 C 417.570312 621.332031 420.121094 621.015625 422.683594 620.765625 C 425.242188 620.511719 427.808594 620.324219 430.375 620.199219 C 432.945312 620.070312 435.515625 620.007812 438.089844 620.007812 C 440.660156 620.007812 443.234375 620.070312 445.800781 620.199219 C 448.371094 620.324219 450.9375 620.511719 453.496094 620.765625 C 456.054688 621.015625 458.609375 621.332031 461.152344 621.707031 C 463.699219 622.085938 466.230469 622.523438 468.753906 623.027344 C 471.277344 623.527344 473.785156 624.089844 476.28125 624.714844 C 478.777344 625.339844 481.257812 626.027344 483.71875 626.773438 C 486.179688 627.519531 488.621094 628.324219 491.042969 629.191406 C 493.464844 630.058594 495.863281 630.984375 498.242188 631.96875 C 500.617188 632.949219 502.96875 633.992188 505.296875 635.089844 C 507.621094 636.191406 509.917969 637.347656 512.1875 638.558594 C 514.453125 639.769531 516.691406 641.039062 518.898438 642.359375 C 521.105469 643.679688 523.277344 645.054688 525.417969 646.484375 C 527.554688 647.914062 529.660156 649.394531 531.726562 650.925781 C 533.792969 652.457031 535.820312 654.039062 537.808594 655.667969 C 539.796875 657.300781 541.742188 658.980469 543.648438 660.707031 C 545.554688 662.433594 547.417969 664.203125 549.238281 666.023438 C 551.054688 667.839844 552.828125 669.703125 554.554688 671.605469 C 556.285156 673.511719 557.964844 675.457031 559.597656 677.445312 C 561.226562 679.433594 562.808594 681.460938 564.34375 683.523438 C 565.875 685.589844 567.355469 687.691406 568.785156 689.828125 C 570.214844 691.96875 571.589844 694.136719 572.914062 696.34375 C 574.234375 698.550781 575.503906 700.785156 576.714844 703.054688 C 577.925781 705.320312 579.082031 707.617188 580.183594 709.941406 C 581.285156 712.265625 582.324219 714.613281 583.308594 716.988281 C 584.292969 719.367188 585.21875 721.761719 586.085938 724.183594 C 586.953125 726.605469 587.761719 729.046875 588.507812 731.507812 C 589.253906 733.964844 589.941406 736.445312 590.566406 738.9375 C 591.191406 741.433594 591.753906 743.941406 592.253906 746.460938 C 592.757812 748.984375 593.195312 751.515625 593.574219 754.058594 C 593.953125 756.601562 594.265625 759.152344 594.519531 761.710938 C 594.769531 764.269531 594.960938 766.832031 595.085938 769.402344 C 595.210938 771.96875 595.273438 774.539062 595.273438 777.109375 Z M 595.273438 777.109375 " fill-opacity="1" fill-rule="nonzero"/></g><path fill="#ffffff" d="M 372.984375 859.339844 L 503.191406 859.339844 C 503.003906 815.863281 473.902344 780.644531 438.089844 780.644531 C 402.273438 780.644531 373.175781 815.863281 372.984375 859.339844 Z M 372.984375 859.339844 " fill-opacity="1" fill-rule="evenodd"/><path fill="#ffffff" d="M 474.617188 731.386719 C 474.617188 732.582031 474.554688 733.777344 474.4375 734.964844 C 474.320312 736.15625 474.148438 737.335938 473.914062 738.507812 C 473.679688 739.683594 473.390625 740.839844 473.042969 741.984375 C 472.695312 743.128906 472.292969 744.253906 471.835938 745.359375 C 471.378906 746.460938 470.867188 747.542969 470.300781 748.597656 C 469.738281 749.652344 469.125 750.675781 468.460938 751.667969 C 467.792969 752.664062 467.082031 753.621094 466.324219 754.546875 C 465.566406 755.472656 464.761719 756.355469 463.917969 757.203125 C 463.070312 758.046875 462.1875 758.847656 461.261719 759.609375 C 460.335938 760.367188 459.375 761.078125 458.382812 761.742188 C 457.386719 762.40625 456.363281 763.019531 455.308594 763.582031 C 454.253906 764.148438 453.171875 764.65625 452.066406 765.113281 C 450.960938 765.574219 449.835938 765.976562 448.691406 766.320312 C 447.546875 766.667969 446.386719 766.960938 445.214844 767.191406 C 444.042969 767.425781 442.859375 767.601562 441.667969 767.71875 C 440.480469 767.835938 439.285156 767.894531 438.089844 767.894531 C 436.894531 767.894531 435.699219 767.835938 434.507812 767.71875 C 433.320312 767.601562 432.136719 767.425781 430.964844 767.191406 C 429.789062 766.960938 428.632812 766.667969 427.488281 766.320312 C 426.339844 765.976562 425.214844 765.574219 424.113281 765.113281 C 423.007812 764.65625 421.925781 764.148438 420.871094 763.582031 C 419.816406 763.019531 418.792969 762.40625 417.796875 761.742188 C 416.800781 761.078125 415.84375 760.367188 414.917969 759.609375 C 413.992188 758.847656 413.109375 758.046875 412.261719 757.203125 C 411.414062 756.355469 410.613281 755.472656 409.855469 754.546875 C 409.09375 753.621094 408.382812 752.664062 407.71875 751.667969 C 407.054688 750.675781 406.441406 749.652344 405.875 748.597656 C 405.3125 747.542969 404.800781 746.460938 404.34375 745.359375 C 403.886719 744.253906 403.484375 743.128906 403.136719 741.984375 C 402.789062 740.839844 402.5 739.683594 402.265625 738.507812 C 402.03125 737.335938 401.855469 736.15625 401.738281 734.964844 C 401.621094 733.777344 401.5625 732.582031 401.5625 731.386719 C 401.5625 730.191406 401.621094 729 401.738281 727.808594 C 401.855469 726.621094 402.03125 725.4375 402.265625 724.265625 C 402.5 723.09375 402.789062 721.933594 403.136719 720.789062 C 403.484375 719.644531 403.886719 718.523438 404.34375 717.417969 C 404.800781 716.3125 405.3125 715.234375 405.875 714.179688 C 406.441406 713.125 407.054688 712.101562 407.71875 711.105469 C 408.382812 710.113281 409.09375 709.152344 409.855469 708.226562 C 410.613281 707.304688 411.414062 706.417969 412.261719 705.574219 C 413.109375 704.726562 413.992188 703.925781 414.917969 703.167969 C 415.84375 702.410156 416.800781 701.699219 417.796875 701.035156 C 418.792969 700.371094 419.816406 699.753906 420.871094 699.191406 C 421.925781 698.628906 423.007812 698.117188 424.113281 697.660156 C 425.214844 697.203125 426.339844 696.800781 427.488281 696.453125 C 428.632812 696.105469 429.789062 695.816406 430.964844 695.582031 C 432.136719 695.347656 433.320312 695.175781 434.507812 695.058594 C 435.699219 694.941406 436.894531 694.882812 438.089844 694.882812 C 439.285156 694.882812 440.480469 694.941406 441.667969 695.058594 C 442.859375 695.175781 444.042969 695.347656 445.214844 695.582031 C 446.386719 695.816406 447.546875 696.105469 448.691406 696.453125 C 449.835938 696.800781 450.960938 697.203125 452.066406 697.660156 C 453.171875 698.117188 454.253906 698.628906 455.308594 699.191406 C 456.363281 699.753906 457.386719 700.371094 458.382812 701.035156 C 459.375 701.699219 460.335938 702.410156 461.261719 703.167969 C 462.1875 703.925781 463.070312 704.726562 463.917969 705.574219 C 464.761719 706.417969 465.566406 707.304688 466.324219 708.226562 C 467.082031 709.152344 467.792969 710.113281 468.460938 711.105469 C 469.125 712.101562 469.738281 713.125 470.300781 714.179688 C 470.867188 715.234375 471.378906 716.3125 471.835938 717.417969 C 472.292969 718.523438 472.695312 719.644531 473.042969 720.789062 C 473.390625 721.933594 473.679688 723.09375 473.914062 724.265625 C 474.148438 725.4375 474.320312 726.621094 474.4375 727.808594 C 474.554688 729 474.617188 730.191406 474.617188 731.386719 Z M 474.617188 731.386719 " fill-opacity="1" fill-rule="nonzero"/><g clip-path="url(#dd53279a2c)"><path fill="#93b2b8" d="M 1219.199219 778.417969 C 1219.199219 781.011719 1219.136719 783.601562 1219.007812 786.191406 C 1218.882812 788.78125 1218.691406 791.367188 1218.4375 793.945312 C 1218.183594 796.523438 1217.863281 799.097656 1217.484375 801.660156 C 1217.101562 804.226562 1216.660156 806.78125 1216.152344 809.324219 C 1215.648438 811.867188 1215.078125 814.394531 1214.449219 816.910156 C 1213.820312 819.421875 1213.128906 821.921875 1212.375 824.402344 C 1211.621094 826.882812 1210.808594 829.34375 1209.933594 831.785156 C 1209.0625 834.226562 1208.128906 836.644531 1207.136719 839.039062 C 1206.140625 841.433594 1205.089844 843.804688 1203.984375 846.148438 C 1202.875 848.492188 1201.707031 850.804688 1200.484375 853.09375 C 1199.261719 855.378906 1197.984375 857.632812 1196.652344 859.855469 C 1195.316406 862.082031 1193.929688 864.269531 1192.488281 866.425781 C 1191.046875 868.582031 1189.554688 870.699219 1188.007812 872.78125 C 1186.464844 874.863281 1184.867188 876.910156 1183.222656 878.914062 C 1181.578125 880.917969 1179.882812 882.878906 1178.140625 884.800781 C 1176.398438 886.71875 1174.613281 888.597656 1172.777344 890.429688 C 1170.945312 892.265625 1169.066406 894.050781 1167.144531 895.792969 C 1165.222656 897.53125 1163.257812 899.226562 1161.253906 900.871094 C 1159.25 902.515625 1157.203125 904.109375 1155.121094 905.652344 C 1153.035156 907.199219 1150.917969 908.691406 1148.761719 910.132812 C 1146.605469 911.570312 1144.414062 912.957031 1142.1875 914.289062 C 1139.964844 915.625 1137.707031 916.902344 1135.417969 918.125 C 1133.132812 919.34375 1130.816406 920.511719 1128.46875 921.617188 C 1126.125 922.726562 1123.753906 923.777344 1121.359375 924.769531 C 1118.960938 925.761719 1116.542969 926.695312 1114.101562 927.566406 C 1111.660156 928.441406 1109.195312 929.253906 1106.714844 930.007812 C 1104.230469 930.757812 1101.734375 931.449219 1099.214844 932.082031 C 1096.699219 932.710938 1094.171875 933.277344 1091.625 933.785156 C 1089.082031 934.289062 1086.527344 934.734375 1083.960938 935.113281 C 1081.394531 935.492188 1078.824219 935.8125 1076.242188 936.066406 C 1073.660156 936.320312 1071.074219 936.511719 1068.484375 936.636719 C 1065.890625 936.765625 1063.300781 936.828125 1060.707031 936.828125 C 1058.113281 936.828125 1055.519531 936.765625 1052.929688 936.636719 C 1050.339844 936.511719 1047.753906 936.320312 1045.171875 936.066406 C 1042.589844 935.8125 1040.015625 935.492188 1037.449219 935.113281 C 1034.882812 934.734375 1032.328125 934.289062 1029.785156 933.785156 C 1027.242188 933.277344 1024.710938 932.710938 1022.195312 932.082031 C 1019.679688 931.449219 1017.179688 930.757812 1014.699219 930.007812 C 1012.214844 929.253906 1009.753906 928.441406 1007.3125 927.566406 C 1004.867188 926.695312 1002.449219 925.761719 1000.054688 924.769531 C 997.65625 923.777344 995.285156 922.726562 992.941406 921.617188 C 990.597656 920.511719 988.28125 919.34375 985.992188 918.125 C 983.707031 916.902344 981.449219 915.625 979.222656 914.289062 C 977 912.957031 974.808594 911.570312 972.652344 910.132812 C 970.496094 908.691406 968.375 907.199219 966.292969 905.652344 C 964.207031 904.109375 962.164062 902.515625 960.160156 900.871094 C 958.152344 899.226562 956.191406 897.53125 954.269531 895.792969 C 952.347656 894.050781 950.46875 892.265625 948.632812 890.429688 C 946.800781 888.597656 945.011719 886.71875 943.269531 884.800781 C 941.527344 882.878906 939.835938 880.917969 938.1875 878.914062 C 936.542969 876.910156 934.949219 874.863281 933.402344 872.78125 C 931.859375 870.699219 930.363281 868.582031 928.921875 866.425781 C 927.480469 864.269531 926.09375 862.082031 924.761719 859.855469 C 923.429688 857.632812 922.148438 855.378906 920.925781 853.09375 C 919.703125 850.804688 918.539062 848.492188 917.429688 846.148438 C 916.320312 843.804688 915.269531 841.433594 914.277344 839.039062 C 913.285156 836.644531 912.351562 834.226562 911.476562 831.785156 C 910.601562 829.34375 909.789062 826.882812 909.035156 824.402344 C 908.285156 821.921875 907.59375 819.421875 906.960938 816.910156 C 906.332031 814.394531 905.765625 811.867188 905.257812 809.324219 C 904.75 806.78125 904.308594 804.226562 903.929688 801.660156 C 903.546875 799.097656 903.230469 796.523438 902.976562 793.945312 C 902.722656 791.367188 902.53125 788.78125 902.402344 786.191406 C 902.277344 783.601562 902.210938 781.011719 902.210938 778.417969 C 902.210938 775.824219 902.277344 773.234375 902.402344 770.644531 C 902.53125 768.054688 902.722656 765.472656 902.976562 762.890625 C 903.230469 760.3125 903.546875 757.738281 903.929688 755.175781 C 904.308594 752.609375 904.75 750.058594 905.257812 747.515625 C 905.765625 744.972656 906.332031 742.441406 906.960938 739.929688 C 907.59375 737.414062 908.285156 734.914062 909.039062 732.433594 C 909.789062 729.953125 910.601562 727.492188 911.476562 725.050781 C 912.351562 722.609375 913.285156 720.191406 914.277344 717.796875 C 915.269531 715.402344 916.320312 713.035156 917.429688 710.691406 C 918.539062 708.347656 919.703125 706.03125 920.925781 703.746094 C 922.148438 701.457031 923.429688 699.203125 924.761719 696.980469 C 926.09375 694.757812 927.480469 692.566406 928.921875 690.410156 C 930.363281 688.253906 931.859375 686.136719 933.402344 684.054688 C 934.949219 681.972656 936.542969 679.929688 938.1875 677.925781 C 939.835938 675.921875 941.527344 673.957031 943.269531 672.039062 C 945.011719 670.117188 946.800781 668.238281 948.632812 666.40625 C 950.46875 664.574219 952.347656 662.785156 954.269531 661.046875 C 956.191406 659.304688 958.152344 657.609375 960.160156 655.964844 C 962.164062 654.320312 964.207031 652.726562 966.292969 651.183594 C 968.375 649.636719 970.496094 648.144531 972.652344 646.707031 C 974.808594 645.265625 977 643.878906 979.222656 642.546875 C 981.449219 641.214844 983.707031 639.9375 985.992188 638.714844 C 988.28125 637.492188 990.597656 636.328125 992.941406 635.21875 C 995.285156 634.109375 997.65625 633.058594 1000.054688 632.066406 C 1002.449219 631.074219 1004.867188 630.144531 1007.3125 629.269531 C 1009.753906 628.394531 1012.214844 627.582031 1014.699219 626.832031 C 1017.179688 626.078125 1019.679688 625.386719 1022.195312 624.757812 C 1024.710938 624.125 1027.242188 623.558594 1029.785156 623.054688 C 1032.328125 622.546875 1034.882812 622.105469 1037.449219 621.722656 C 1040.015625 621.34375 1042.589844 621.027344 1045.171875 620.773438 C 1047.753906 620.519531 1050.339844 620.328125 1052.929688 620.199219 C 1055.519531 620.074219 1058.113281 620.007812 1060.707031 620.007812 C 1063.300781 620.007812 1065.890625 620.074219 1068.484375 620.199219 C 1071.074219 620.328125 1073.660156 620.519531 1076.242188 620.773438 C 1078.824219 621.027344 1081.394531 621.34375 1083.960938 621.722656 C 1086.527344 622.105469 1089.082031 622.546875 1091.625 623.054688 C 1094.171875 623.558594 1096.699219 624.125 1099.214844 624.757812 C 1101.734375 625.386719 1104.230469 626.078125 1106.714844 626.832031 C 1109.195312 627.582031 1111.660156 628.394531 1114.101562 629.269531 C 1116.542969 630.140625 1118.960938 631.074219 1121.359375 632.066406 C 1123.753906 633.058594 1126.125 634.109375 1128.46875 635.21875 C 1130.816406 636.328125 1133.132812 637.492188 1135.417969 638.714844 C 1137.707031 639.9375 1139.964844 641.214844 1142.1875 642.546875 C 1144.414062 643.878906 1146.605469 645.265625 1148.761719 646.707031 C 1150.917969 648.144531 1153.035156 649.636719 1155.121094 651.183594 C 1157.203125 652.726562 1159.25 654.320312 1161.253906 655.964844 C 1163.257812 657.609375 1165.222656 659.304688 1167.144531 661.046875 C 1169.066406 662.785156 1170.945312 664.574219 1172.777344 666.40625 C 1174.613281 668.238281 1176.398438 670.117188 1178.140625 672.039062 C 1179.882812 673.957031 1181.578125 675.921875 1183.222656 677.925781 C 1184.867188 679.929688 1186.464844 681.972656 1188.007812 684.054688 C 1189.554688 686.136719 1191.046875 688.253906 1192.488281 690.410156 C 1193.929688 692.566406 1195.316406 694.757812 1196.652344 696.980469 C 1197.984375 699.203125 1199.261719 701.457031 1200.484375 703.746094 C 1201.707031 706.03125 1202.875 708.347656 1203.984375 710.691406 C 1205.089844 713.035156 1206.140625 715.402344 1207.136719 717.796875 C 1208.128906 720.191406 1209.0625 722.609375 1209.933594 725.050781 C 1210.808594 727.492188 1211.621094 729.953125 1212.375 732.433594 C 1213.128906 734.914062 1213.820312 737.414062 1214.449219 739.929688 C 1215.078125 742.441406 1215.648438 744.972656 1216.152344 747.515625 C 1216.660156 750.058594 1217.101562 752.609375 1217.484375 755.175781 C 1217.863281 757.738281 1218.183594 760.3125 1218.4375 762.890625 C 1218.691406 765.472656 1218.882812 768.054688 1219.007812 770.644531 C 1219.136719 773.234375 1219.199219 775.824219 1219.199219 778.417969 Z M 1219.199219 778.417969 " fill-opacity="1" fill-rule="nonzero"/></g><path fill="#ffffff" d="M 995.0625 861.332031 L 1126.351562 861.332031 C 1126.160156 817.492188 1096.816406 781.984375 1060.707031 781.984375 C 1024.59375 781.984375 995.25 817.492188 995.0625 861.332031 Z M 995.0625 861.332031 " fill-opacity="1" fill-rule="evenodd"/><path fill="#ffffff" d="M 1097.535156 732.3125 C 1097.535156 733.519531 1097.476562 734.722656 1097.359375 735.921875 C 1097.238281 737.121094 1097.0625 738.3125 1096.828125 739.496094 C 1096.59375 740.679688 1096.300781 741.847656 1095.949219 743 C 1095.597656 744.152344 1095.195312 745.285156 1094.730469 746.402344 C 1094.269531 747.515625 1093.753906 748.601562 1093.1875 749.667969 C 1092.617188 750.730469 1092 751.761719 1091.328125 752.765625 C 1090.660156 753.765625 1089.941406 754.734375 1089.175781 755.667969 C 1088.410156 756.597656 1087.601562 757.488281 1086.75 758.34375 C 1085.894531 759.195312 1085.003906 760.003906 1084.070312 760.769531 C 1083.136719 761.535156 1082.171875 762.25 1081.167969 762.921875 C 1080.164062 763.589844 1079.132812 764.210938 1078.066406 764.777344 C 1077.003906 765.347656 1075.914062 765.859375 1074.800781 766.320312 C 1073.6875 766.785156 1072.550781 767.1875 1071.398438 767.539062 C 1070.242188 767.890625 1069.074219 768.179688 1067.890625 768.417969 C 1066.707031 768.652344 1065.515625 768.828125 1064.316406 768.945312 C 1063.117188 769.066406 1061.914062 769.125 1060.707031 769.125 C 1059.5 769.125 1058.296875 769.066406 1057.097656 768.945312 C 1055.894531 768.828125 1054.703125 768.652344 1053.519531 768.417969 C 1052.339844 768.179688 1051.167969 767.890625 1050.015625 767.539062 C 1048.859375 767.1875 1047.726562 766.785156 1046.613281 766.320312 C 1045.496094 765.859375 1044.410156 765.347656 1043.34375 764.777344 C 1042.28125 764.210938 1041.246094 763.589844 1040.246094 762.921875 C 1039.242188 762.25 1038.273438 761.535156 1037.339844 760.769531 C 1036.410156 760.003906 1035.515625 759.195312 1034.664062 758.34375 C 1033.8125 757.492188 1033 756.597656 1032.238281 755.667969 C 1031.472656 754.734375 1030.753906 753.765625 1030.082031 752.765625 C 1029.414062 751.761719 1028.792969 750.730469 1028.226562 749.667969 C 1027.65625 748.601562 1027.140625 747.515625 1026.679688 746.402344 C 1026.21875 745.285156 1025.8125 744.152344 1025.460938 743 C 1025.113281 741.847656 1024.820312 740.679688 1024.585938 739.496094 C 1024.347656 738.3125 1024.171875 737.121094 1024.054688 735.921875 C 1023.9375 734.722656 1023.875 733.519531 1023.875 732.3125 C 1023.875 731.109375 1023.9375 729.90625 1024.054688 728.707031 C 1024.171875 727.507812 1024.347656 726.316406 1024.585938 725.132812 C 1024.820312 723.949219 1025.113281 722.78125 1025.460938 721.628906 C 1025.8125 720.476562 1026.21875 719.339844 1026.679688 718.226562 C 1027.140625 717.113281 1027.65625 716.027344 1028.226562 714.960938 C 1028.792969 713.898438 1029.414062 712.867188 1030.082031 711.863281 C 1030.753906 710.863281 1031.472656 709.894531 1032.238281 708.960938 C 1033 708.03125 1033.8125 707.136719 1034.664062 706.285156 C 1035.515625 705.433594 1036.410156 704.625 1037.339844 703.859375 C 1038.273438 703.09375 1039.242188 702.378906 1040.246094 701.707031 C 1041.246094 701.039062 1042.28125 700.417969 1043.34375 699.851562 C 1044.410156 699.28125 1045.496094 698.769531 1046.613281 698.304688 C 1047.726562 697.84375 1048.859375 697.441406 1050.015625 697.089844 C 1051.167969 696.738281 1052.339844 696.445312 1053.519531 696.210938 C 1054.703125 695.976562 1055.894531 695.800781 1057.097656 695.683594 C 1058.296875 695.5625 1059.5 695.503906 1060.707031 695.503906 C 1061.914062 695.503906 1063.117188 695.5625 1064.316406 695.683594 C 1065.515625 695.800781 1066.707031 695.976562 1067.890625 696.210938 C 1069.074219 696.445312 1070.242188 696.738281 1071.398438 697.089844 C 1072.550781 697.441406 1073.6875 697.84375 1074.800781 698.304688 C 1075.914062 698.769531 1077.003906 699.28125 1078.066406 699.851562 C 1079.132812 700.417969 1080.164062 701.039062 1081.167969 701.707031 C 1082.171875 702.378906 1083.136719 703.09375 1084.070312 703.859375 C 1085.003906 704.625 1085.894531 705.433594 1086.75 706.285156 C 1087.601562 707.136719 1088.410156 708.03125 1089.175781 708.960938 C 1089.941406 709.894531 1090.660156 710.863281 1091.328125 711.863281 C 1092 712.867188 1092.617188 713.898438 1093.1875 714.960938 C 1093.753906 716.027344 1094.269531 717.113281 1094.730469 718.226562 C 1095.195312 719.339844 1095.597656 720.476562 1095.949219 721.628906 C 1096.300781 722.78125 1096.59375 723.949219 1096.828125 725.132812 C 1097.0625 726.316406 1097.238281 727.507812 1097.359375 728.707031 C 1097.476562 729.90625 1097.535156 731.109375 1097.535156 732.3125 Z M 1097.535156 732.3125 " fill-opacity="1" fill-rule="nonzero"/></svg>