<svg xmlns="http://www.w3.org/2000/svg" xmlns:xlink="http://www.w3.org/1999/xlink" width="2000" zoomAndPan="magnify" viewBox="0 0 1500 1124.99995" height="1500" preserveAspectRatio="xMidYMid meet" version="1.0"><defs><filter x="0%" y="0%" width="100%" height="100%" id="9bed4c73fb"><feColorMatrix values="0 0 0 0 1 0 0 0 0 1 0 0 0 0 1 0 0 0 1 0" color-interpolation-filters="sRGB"/></filter><mask id="97b7482c1e"><g filter="url(#9bed4c73fb)"><rect x="-150" width="1800" fill="#000000" y="-112.499995" height="1349.99994" fill-opacity="0.498"/></g></mask><clipPath id="075844d612"><path d="M 14.496094 14.78125 L 463.933594 14.78125 L 463.933594 464.21875 L 14.496094 464.21875 Z M 14.496094 14.78125 " clip-rule="nonzero"/></clipPath><clipPath id="cc7554be00"><path d="M 239.214844 14.78125 C 115.105469 14.78125 14.496094 115.390625 14.496094 239.5 C 14.496094 363.609375 115.105469 464.21875 239.214844 464.21875 C 363.324219 464.21875 463.933594 363.609375 463.933594 239.5 C 463.933594 115.390625 363.324219 14.78125 239.214844 14.78125 " clip-rule="nonzero"/></clipPath><clipPath id="8fa9dab603"><path d="M 14.496094 14.78125 L 463.746094 14.78125 L 463.746094 464.03125 L 14.496094 464.03125 Z M 14.496094 14.78125 " clip-rule="nonzero"/></clipPath><clipPath id="2cde4d08d5"><path d="M 239.121094 14.78125 C 115.066406 14.78125 14.496094 115.347656 14.496094 239.40625 C 14.496094 363.460938 115.066406 464.03125 239.121094 464.03125 C 363.179688 464.03125 463.746094 363.460938 463.746094 239.40625 C 463.746094 115.347656 363.179688 14.78125 239.121094 14.78125 " clip-rule="nonzero"/></clipPath><clipPath id="5023e36388"><rect x="0" width="478" y="0" height="479"/></clipPath><mask id="bbb51d6a90"><g filter="url(#9bed4c73fb)"><rect x="-150" width="1800" fill="#000000" y="-112.499995" height="1349.99994" fill-opacity="0.498"/></g></mask><clipPath id="554b69aadd"><path d="M 15.046875 14.78125 L 464.484375 14.78125 L 464.484375 464.21875 L 15.046875 464.21875 Z M 15.046875 14.78125 " clip-rule="nonzero"/></clipPath><clipPath id="f6d4fafb11"><path d="M 239.765625 14.78125 C 115.65625 14.78125 15.046875 115.390625 15.046875 239.5 C 15.046875 363.609375 115.65625 464.21875 239.765625 464.21875 C 363.875 464.21875 464.484375 363.609375 464.484375 239.5 C 464.484375 115.390625 363.875 14.78125 239.765625 14.78125 " clip-rule="nonzero"/></clipPath><clipPath id="1731962777"><path d="M 15.046875 14.78125 L 464.296875 14.78125 L 464.296875 464.03125 L 15.046875 464.03125 Z M 15.046875 14.78125 " clip-rule="nonzero"/></clipPath><clipPath id="2ece5a1cfc"><path d="M 239.671875 14.78125 C 115.617188 14.78125 15.046875 115.347656 15.046875 239.40625 C 15.046875 363.460938 115.617188 464.03125 239.671875 464.03125 C 363.730469 464.03125 464.296875 363.460938 464.296875 239.40625 C 464.296875 115.347656 363.730469 14.78125 239.671875 14.78125 " clip-rule="nonzero"/></clipPath><clipPath id="0f7a31618f"><rect x="0" width="479" y="0" height="479"/></clipPath><clipPath id="29d0bd8a97"><path d="M 300 431 L 548.65625 431 L 548.65625 703.644531 L 300 703.644531 Z M 300 431 " clip-rule="nonzero"/></clipPath><clipPath id="9bdd8000a0"><path d="M 970 430.644531 L 1077 430.644531 L 1077 510 L 970 510 Z M 970 430.644531 " clip-rule="nonzero"/></clipPath><clipPath id="e7a90ecb42"><path d="M 945 493 L 1101 493 L 1101 703.644531 L 945 703.644531 Z M 945 493 " clip-rule="nonzero"/></clipPath><clipPath id="4f3c9f17f8"><path d="M 930.019531 528 L 949 528 L 949 535 L 930.019531 535 Z M 930.019531 528 " clip-rule="nonzero"/></clipPath><clipPath id="5ee700d536"><path d="M 1104 522 L 1123.519531 522 L 1123.519531 528 L 1104 528 Z M 1104 522 " clip-rule="nonzero"/></clipPath></defs><g mask="url(#97b7482c1e)"><g transform="matrix(1, 0, 0, 1, 185, 323)"><g clip-path="url(#5023e36388)"><g clip-path="url(#075844d612)"><g clip-path="url(#cc7554be00)"><path fill="#393536" d="M 14.496094 14.78125 L 463.933594 14.78125 L 463.933594 464.21875 L 14.496094 464.21875 Z M 14.496094 14.78125 " fill-opacity="1" fill-rule="nonzero"/></g></g><g clip-path="url(#8fa9dab603)"><g clip-path="url(#2cde4d08d5)"><path stroke-linecap="butt" transform="matrix(0.749687, 0, 0, 0.749687, 14.497218, 14.780908)" fill="none" stroke-linejoin="miter" d="M 299.623525 0.000456359 C 134.148227 0.000456359 -0.00149994 134.144973 -0.00149994 299.625481 C -0.00149994 465.100779 134.148227 599.250505 299.623525 599.250505 C 465.104033 599.250505 599.248549 465.100779 599.248549 299.625481 C 599.248549 134.144973 465.104033 0.000456359 299.623525 0.000456359 " stroke="#8c8c8c" stroke-width="6" stroke-opacity="1" stroke-miterlimit="4"/></g></g></g></g></g><g mask="url(#bbb51d6a90)"><g transform="matrix(1, 0, 0, 1, 787, 323)"><g clip-path="url(#0f7a31618f)"><g clip-path="url(#554b69aadd)"><g clip-path="url(#f6d4fafb11)"><path fill="#393536" d="M 15.046875 14.78125 L 464.484375 14.78125 L 464.484375 464.21875 L 15.046875 464.21875 Z M 15.046875 14.78125 " fill-opacity="1" fill-rule="nonzero"/></g></g><g clip-path="url(#1731962777)"><g clip-path="url(#2ece5a1cfc)"><path stroke-linecap="butt" transform="matrix(0.749687, 0, 0, 0.749687, 15.047855, 14.780908)" fill="none" stroke-linejoin="miter" d="M 299.623717 0.000456359 C 134.14842 0.000456359 -0.00130709 134.144973 -0.00130709 299.625481 C -0.00130709 465.100779 134.14842 599.250505 299.623717 599.250505 C 465.104226 599.250505 599.248742 465.100779 599.248742 299.625481 C 599.248742 134.144973 465.104226 0.000456359 299.623717 0.000456359 " stroke="#8c8c8c" stroke-width="6" stroke-opacity="1" stroke-miterlimit="4"/></g></g></g></g></g><path stroke-linecap="butt" transform="matrix(0.751097, 0.000000000000001598, -0.000000000000001596, 0.75, 687.956398, 557.624932)" fill="none" stroke-linejoin="miter" d="M 0.000842977 6.500091 L 100.348888 6.500091 " stroke="#b8c5cd" stroke-width="13" stroke-opacity="1" stroke-miterlimit="4"/><path stroke-linecap="round" transform="matrix(9.764259, 0.000000000000020779, -0.000000000000020748, 9.749999, 768.208959, 562.499932)" fill="none" stroke-linejoin="round" d="M -2.500147 -1.499993 L -0.499867 0.00000701923 L -2.500147 1.500007 " stroke="#b8c5cd" stroke-width="1" stroke-opacity="1" stroke-miterlimit="4"/><g clip-path="url(#29d0bd8a97)"><path fill="#b4b3b3" d="M 383.289062 431.050781 C 381.613281 431.214844 380.019531 432.039062 378.921875 433.46875 C 376.507812 436.324219 376.945312 440.5 379.800781 442.695312 C 380.460938 443.136719 380.902344 443.574219 381.558594 444.015625 C 380.460938 444.671875 379.582031 445.332031 378.484375 445.992188 C 375.628906 445.550781 371.894531 444.449219 366.625 442.472656 C 363.332031 441.15625 359.378906 442.914062 358.0625 446.429688 C 356.746094 449.945312 358.503906 453.679688 362.015625 454.996094 C 363.554688 455.65625 364.871094 456.09375 366.40625 456.535156 C 365.089844 458.070312 363.550781 459.609375 362.234375 461.144531 C 353.011719 472.789062 345.328125 492.5625 351.257812 522.4375 C 351.914062 526.171875 353.453125 537.378906 353.453125 537.378906 C 353.890625 540.894531 357.40625 543.527344 360.917969 542.871094 C 364.429688 542.429688 367.066406 538.914062 366.40625 535.398438 C 366.40625 535.398438 364.652344 525.296875 364.210938 518.707031 C 363.332031 503.546875 367.066406 490.582031 373.433594 480.917969 C 383.53125 465.539062 392.320312 466.640625 406.8125 467.519531 C 411.203125 467.738281 416.03125 468.179688 421.519531 468.179688 C 426.570312 468.179688 431.183594 467.738281 435.136719 467.519531 C 450.945312 466.417969 461.484375 464.660156 473.339844 490.804688 C 477.511719 500.03125 479.050781 510.574219 478.609375 520.460938 C 478.390625 525.074219 476.414062 538.695312 476.414062 538.695312 C 475.976562 542.210938 478.609375 545.507812 482.121094 545.945312 L 483.003906 545.945312 C 486.296875 545.945312 489.148438 543.527344 489.589844 540.230469 C 489.589844 540.230469 491.125 526.394531 491.785156 521.78125 C 495.519531 494.320312 490.6875 471.472656 477.074219 455.65625 C 464.121094 441.375 444.359375 433.25 421.300781 433.25 C 403.296875 433.25 396.050781 435.007812 392.539062 436.105469 C 392.320312 435.886719 391.878906 435.664062 391.660156 435.445312 C 390.78125 434.566406 389.683594 433.6875 388.148438 432.589844 C 386.71875 431.378906 384.960938 430.886719 383.289062 431.050781 Z M 399.34375 525.515625 C 394.511719 525.515625 390.5625 529.46875 390.5625 534.300781 C 390.5625 539.132812 394.511719 536.5 399.34375 536.5 C 404.175781 536.5 408.128906 539.132812 408.128906 534.300781 C 408.128906 529.46875 404.175781 525.515625 399.34375 525.515625 Z M 443.257812 525.515625 C 438.429688 525.515625 434.476562 529.46875 434.476562 534.300781 C 434.476562 539.132812 438.429688 536.5 443.257812 536.5 C 448.089844 536.5 452.042969 539.132812 452.042969 534.300781 C 452.042969 529.46875 448.089844 525.515625 443.257812 525.515625 Z M 478.394531 571.539062 C 475.359375 571.609375 472.601562 573.84375 472.023438 576.921875 C 471.804688 578.679688 471.363281 580.871094 471.144531 583.070312 C 470.484375 587.902344 469.167969 597.128906 467.632812 599.324219 C 466.972656 599.984375 466.09375 600.644531 465.4375 601.304688 C 465.4375 601.304688 465.21875 601.300781 465 601.742188 C 455.558594 609.429688 437.769531 617.78125 421.082031 617.78125 C 402.640625 617.78125 382.4375 607.234375 374.972656 599.542969 C 373.65625 597.347656 372.339844 588.34375 371.460938 583.292969 C 371.238281 581.09375 370.800781 578.898438 370.582031 577.140625 C 369.921875 573.625 366.628906 571.207031 362.894531 571.867188 C 359.382812 572.523438 356.964844 575.820312 357.625 579.554688 C 357.84375 581.3125 358.285156 583.292969 358.503906 585.488281 C 360.261719 597.351562 361.574219 604.820312 365.527344 608.773438 C 366.625 609.871094 367.945312 611.191406 369.484375 612.289062 C 350.378906 619.097656 337.203125 630.082031 331.058594 645.019531 C 318.761719 649.632812 308.441406 656.226562 301.632812 666.988281 C 299.65625 669.84375 300.535156 674.019531 303.609375 675.996094 C 306.683594 677.972656 310.855469 676.875 312.613281 673.796875 C 315.90625 668.304688 320.953125 664.351562 327.101562 661.054688 C 326.882812 662.8125 326.882812 664.351562 326.882812 666.109375 C 326.882812 669.84375 329.738281 672.699219 333.472656 672.699219 L 377.386719 672.699219 L 377.386719 696.863281 C 377.386719 700.597656 380.242188 703.457031 383.972656 703.457031 C 387.707031 703.457031 390.5625 700.597656 390.5625 696.863281 L 390.5625 624.371094 C 400.222656 628.324219 410.984375 630.960938 421.082031 630.960938 L 421.300781 630.960938 C 431.621094 630.960938 442.382812 628.324219 452.042969 624.371094 L 452.042969 696.863281 C 452.042969 700.597656 454.898438 703.457031 458.628906 703.457031 C 462.363281 703.457031 465.21875 700.597656 465.21875 696.863281 L 465.21875 672.699219 L 509.132812 672.699219 C 512.867188 672.699219 515.71875 669.84375 515.71875 666.109375 C 515.71875 664.351562 515.722656 662.59375 515.5 661.054688 C 528.457031 667.867188 535.480469 677.972656 535.480469 696.863281 C 535.480469 700.597656 538.335938 703.457031 542.070312 703.457031 C 545.800781 703.457031 548.65625 700.597656 548.65625 696.863281 C 548.65625 666.328125 532.40625 652.929688 511.765625 644.800781 C 505.617188 629.863281 492.445312 618.878906 473.121094 612.070312 C 474.4375 610.972656 475.757812 609.652344 477.074219 608.554688 C 480.808594 604.601562 482.34375 597.128906 484.101562 585.265625 C 484.320312 583.070312 484.757812 581.09375 484.980469 579.335938 C 485.636719 575.820312 483.222656 572.304688 479.707031 571.648438 C 479.269531 571.566406 478.828125 571.53125 478.394531 571.539062 Z M 420.914062 578.074219 C 415.261719 578.074219 409.773438 579.664062 404.613281 582.851562 C 401.539062 584.828125 400.664062 588.78125 402.417969 591.855469 C 404.394531 594.929688 408.566406 596.03125 411.640625 594.054688 C 418.007812 590.097656 424.378906 590.101562 431.84375 594.277344 C 432.941406 594.933594 434.039062 595.152344 435.136719 595.152344 C 437.550781 595.152344 439.746094 593.832031 440.84375 591.855469 C 442.601562 588.78125 441.5 584.605469 438.207031 582.851562 C 432.390625 579.664062 426.570312 578.074219 420.914062 578.074219 Z M 420.914062 578.074219 " fill-opacity="1" fill-rule="nonzero"/></g><path fill="#ebeced" d="M 1004.183594 641.652344 L 987.652344 641.652344 C 982.476562 641.652344 977.882812 638.328125 976.273438 633.40625 L 1004.183594 633.40625 Z M 1004.183594 641.652344 " fill-opacity="1" fill-rule="nonzero"/><path fill="#ebeced" d="M 1042.355469 641.652344 L 1058.886719 641.652344 C 1064.0625 641.652344 1068.65625 638.328125 1070.265625 633.40625 L 1042.355469 633.40625 Z M 1042.355469 641.652344 " fill-opacity="1" fill-rule="nonzero"/><path fill="#ebeced" d="M 1041.335938 573.902344 L 1031.855469 575.140625 C 1026.132812 575.890625 1020.332031 575.890625 1014.613281 575.140625 L 1005.132812 573.902344 C 1002.695312 573.585938 1000.351562 573.011719 998.109375 572.222656 L 998.085938 572.222656 L 998.058594 580.394531 C 1014.847656 587.246094 1031.65625 587.238281 1048.476562 580.394531 L 1048.476562 572.621094 L 1047.183594 572.609375 C 1045.308594 573.203125 1043.351562 573.636719 1041.335938 573.902344 Z M 1041.335938 573.902344 " fill-opacity="1" fill-rule="nonzero"/><g clip-path="url(#9bdd8000a0)"><path fill="#bee3ed" d="M 1027.519531 434.992188 C 1026.1875 433.808594 1024.75 432.738281 1023.214844 431.804688 C 1022.1875 431.179688 1020.996094 430.875 1019.796875 430.925781 C 1011.800781 431.273438 1004.273438 433.394531 997.59375 436.894531 C 996.902344 437.253906 996.523438 437.894531 996.453125 438.566406 C 996.46875 438.664062 996.484375 438.757812 996.484375 438.855469 C 996.5 439.683594 996.96875 440.414062 997.714844 440.769531 C 1001.011719 442.34375 1003.597656 445.066406 1004.996094 448.4375 C 1005.414062 449.445312 1004.941406 450.59375 1003.929688 451.015625 C 1003.683594 451.117188 1003.429688 451.167969 1003.175781 451.167969 C 1002.402344 451.167969 1001.671875 450.710938 1001.355469 449.953125 C 1000.328125 447.484375 998.433594 445.488281 996.015625 444.339844 C 995.441406 444.0625 994.929688 443.703125 994.476562 443.285156 C 979.164062 453.1875 969.316406 470.753906 970.28125 490.402344 L 970.945312 509.132812 C 970.972656 509.699219 971.511719 510.105469 972.066406 509.976562 C 973.792969 509.582031 975.140625 508.25 975.585938 506.542969 C 976.492188 503.09375 977.574219 499.871094 978.652344 497.046875 C 978.976562 496.183594 979.148438 495.273438 979.148438 494.347656 L 979.148438 491.386719 C 979.148438 487.960938 981.4375 484.953125 984.738281 484.039062 C 987.214844 483.351562 989.179688 481.46875 989.964844 479.023438 C 992.816406 470.152344 1001.066406 464.136719 1010.382812 464.136719 L 1036.023438 464.136719 C 1045.34375 464.136719 1053.59375 470.152344 1056.445312 479.023438 C 1057.230469 481.46875 1059.195312 483.355469 1061.671875 484.039062 C 1064.972656 484.953125 1067.261719 487.960938 1067.261719 491.386719 L 1067.261719 494.347656 C 1067.261719 495.273438 1067.425781 496.183594 1067.757812 497.046875 C 1068.835938 499.871094 1069.917969 503.089844 1070.824219 506.542969 C 1071.273438 508.25 1072.621094 509.582031 1074.339844 509.976562 C 1074.898438 510.105469 1075.433594 509.699219 1075.464844 509.132812 L 1076.128906 490.402344 C 1077.542969 461.601562 1055.746094 437.257812 1027.519531 434.992188 Z M 1019.285156 448.242188 C 1019.054688 448.335938 1018.8125 448.378906 1018.574219 448.378906 C 1017.78125 448.378906 1017.035156 447.898438 1016.730469 447.117188 C 1015.65625 444.332031 1014.144531 441.75 1012.238281 439.453125 C 1011.546875 438.613281 1011.660156 437.371094 1012.5 436.671875 C 1013.339844 435.972656 1014.582031 436.09375 1015.277344 436.933594 C 1017.457031 439.558594 1019.183594 442.507812 1020.410156 445.691406 C 1020.804688 446.710938 1020.300781 447.855469 1019.285156 448.242188 Z M 1019.285156 448.242188 " fill-opacity="1" fill-rule="nonzero"/></g><g clip-path="url(#e7a90ecb42)"><path fill="#2a3853" d="M 1081.65625 599.203125 C 1080.714844 598.648438 1079.511719 598.964844 1078.957031 599.90625 C 1078.40625 600.847656 1078.722656 602.054688 1079.664062 602.605469 C 1091.53125 609.566406 1098.25 622.886719 1096.78125 636.542969 L 1092.417969 677.082031 C 1091.347656 687.03125 1083.679688 694.890625 1073.773438 696.195312 C 1064.292969 697.441406 1054.371094 698.332031 1044.320312 698.867188 L 1044.320312 635.847656 L 1064.550781 635.847656 C 1064.605469 635.847656 1064.65625 635.847656 1064.714844 635.84375 L 1070.425781 635.375 C 1073.125 635.15625 1075.621094 633.800781 1077.289062 631.671875 C 1078.957031 629.542969 1079.65625 626.785156 1079.21875 624.113281 L 1077.851562 615.816406 C 1075.941406 604.195312 1069.703125 593.894531 1060.289062 586.8125 L 1050.449219 579.414062 L 1050.449219 573.558594 C 1063.683594 568.300781 1072.972656 555.703125 1073.585938 540.894531 L 1074.054688 529.628906 L 1079.730469 527.109375 C 1084.222656 525.113281 1087.355469 520.84375 1087.914062 515.957031 L 1089.265625 504.0625 C 1089.730469 500 1087.71875 496.089844 1084.144531 494.09375 C 1083.191406 493.5625 1081.992188 493.902344 1081.460938 494.855469 C 1080.929688 495.808594 1081.269531 497.007812 1082.222656 497.539062 C 1084.402344 498.753906 1085.625 501.144531 1085.347656 503.617188 L 1083.996094 515.511719 C 1083.597656 519.011719 1081.351562 522.070312 1078.136719 523.503906 L 1074.246094 525.234375 L 1074.589844 516.921875 C 1074.632812 515.832031 1073.789062 514.914062 1072.703125 514.867188 C 1071.613281 514.828125 1070.695312 515.667969 1070.648438 516.757812 L 1069.652344 540.734375 C 1068.988281 556.746094 1056.96875 569.871094 1041.074219 571.953125 L 1031.601562 573.191406 C 1026.046875 573.917969 1020.417969 573.917969 1014.867188 573.191406 L 1005.386719 571.953125 C 989.496094 569.871094 977.480469 556.746094 976.808594 540.734375 L 975.804688 516.710938 C 975.757812 515.625 974.847656 514.785156 973.753906 514.824219 C 972.664062 514.867188 971.820312 515.789062 971.863281 516.875 L 972.214844 525.234375 L 968.320312 523.503906 C 965.101562 522.070312 962.851562 519.011719 962.457031 515.511719 L 961.105469 503.617188 C 960.824219 501.140625 962.050781 498.75 964.238281 497.53125 C 965.191406 497.003906 965.535156 495.800781 965.003906 494.847656 C 964.476562 493.898438 963.273438 493.554688 962.324219 494.089844 C 958.742188 496.082031 956.726562 500 957.1875 504.070312 L 958.539062 515.960938 C 959.09375 520.847656 962.230469 525.121094 966.722656 527.117188 L 972.40625 529.640625 L 972.875 540.90625 C 973.492188 555.746094 982.820312 568.371094 996.113281 573.601562 L 996.097656 579.417969 L 986.253906 586.824219 C 983.351562 589.011719 980.746094 591.503906 978.480469 594.246094 C 977.589844 594.445312 976.695312 594.636719 975.804688 594.84375 C 956.574219 599.292969 943.660156 617.40625 945.761719 636.976562 L 950.148438 677.730469 C 951.410156 689.449219 960.472656 698.742188 972.199219 700.332031 C 987.433594 702.394531 1004.386719 703.425781 1021.613281 703.425781 C 1039.441406 703.425781 1057.550781 702.320312 1074.300781 700.117188 C 1086.019531 698.574219 1095.089844 689.277344 1096.351562 677.515625 L 1100.714844 636.976562 C 1102.34375 621.769531 1094.863281 606.945312 1081.65625 599.203125 Z M 1073.964844 616.460938 L 1075.328125 624.757812 C 1075.59375 626.363281 1075.1875 627.957031 1074.183594 629.242188 C 1073.179688 630.527344 1071.730469 631.3125 1070.109375 631.441406 L 1064.476562 631.902344 L 1044.796875 631.902344 C 1048.792969 612.929688 1050.332031 595.273438 1050.441406 584.339844 L 1057.917969 589.964844 C 1066.519531 596.433594 1072.214844 605.847656 1073.964844 616.460938 Z M 1004.878906 575.855469 L 1014.359375 577.097656 C 1017.304688 577.480469 1020.269531 577.675781 1023.234375 577.675781 C 1026.199219 577.675781 1029.171875 577.484375 1032.113281 577.097656 L 1041.589844 575.855469 C 1043.269531 575.636719 1044.914062 575.304688 1046.507812 574.871094 L 1046.507812 583.050781 C 1046.507812 586.734375 1046.328125 591.324219 1045.921875 596.554688 C 1040.230469 603.265625 1031.976562 607.113281 1023.171875 607.113281 C 1014.492188 607.113281 1006.316406 603.355469 1000.632812 596.800781 C 1000.214844 591.46875 1000.03125 586.796875 1000.03125 583.054688 L 1000.03125 580.40625 L 1000.046875 574.90625 C 1001.621094 575.320312 1003.226562 575.644531 1004.878906 575.855469 Z M 988.621094 589.964844 L 996.097656 584.339844 C 996.207031 595.273438 997.746094 612.925781 1001.742188 631.902344 L 982.0625 631.902344 L 976.4375 631.441406 C 974.8125 631.304688 973.363281 630.527344 972.359375 629.242188 C 971.359375 627.957031 970.953125 626.363281 971.214844 624.757812 L 972.582031 616.460938 C 974.324219 605.847656 980.019531 596.433594 988.621094 589.964844 Z M 1002.210938 699.019531 C 991.957031 698.53125 982.011719 697.664062 972.714844 696.410156 C 962.800781 695.066406 955.128906 687.203125 954.058594 677.296875 L 949.675781 636.542969 C 947.847656 619.542969 958.628906 603.773438 974.960938 599.125 C 971.820312 604.160156 969.667969 609.816406 968.675781 615.816406 L 967.3125 624.113281 C 966.871094 626.785156 967.574219 629.535156 969.238281 631.671875 C 970.90625 633.800781 973.402344 635.15625 976.105469 635.375 L 981.8125 635.84375 C 981.863281 635.847656 981.921875 635.847656 981.976562 635.847656 L 1002.207031 635.847656 L 1002.207031 699.019531 Z M 1040.425781 633.464844 C 1040.398438 633.597656 1040.382812 633.734375 1040.382812 633.875 L 1040.382812 699.050781 C 1028.949219 699.554688 1017.394531 699.597656 1006.15625 699.179688 L 1006.15625 633.875 C 1006.15625 633.734375 1006.140625 633.59375 1006.113281 633.464844 C 1006.113281 633.457031 1006.113281 633.457031 1006.113281 633.453125 C 1003.710938 622.558594 1002.136719 612.035156 1001.195312 602.921875 C 1007.277344 608.148438 1015.035156 611.058594 1023.179688 611.058594 C 1031.429688 611.058594 1039.261719 608.078125 1045.371094 602.742188 C 1044.429688 611.898438 1042.851562 622.484375 1040.433594 633.453125 C 1040.425781 633.457031 1040.425781 633.457031 1040.425781 633.464844 Z M 1040.425781 633.464844 " fill-opacity="1" fill-rule="nonzero"/></g><path fill="#8c8c8c" d="M 950.75 587.410156 C 950.253906 587.410156 949.765625 587.226562 949.382812 586.859375 C 948.597656 586.105469 948.574219 584.851562 949.335938 584.070312 L 959.527344 573.511719 C 960.28125 572.730469 961.535156 572.707031 962.316406 573.46875 C 963.101562 574.222656 963.121094 575.472656 962.363281 576.257812 L 952.164062 586.8125 C 951.78125 587.207031 951.261719 587.410156 950.75 587.410156 Z M 950.75 587.410156 " fill-opacity="1" fill-rule="nonzero"/><g clip-path="url(#4f3c9f17f8)"><path fill="#8c8c8c" d="M 946.710938 534.503906 C 946.636719 534.503906 946.558594 534.5 946.484375 534.492188 L 931.902344 532.835938 C 930.820312 532.710938 930.042969 531.738281 930.167969 530.65625 C 930.289062 529.574219 931.265625 528.796875 932.347656 528.917969 L 946.929688 530.578125 C 948.011719 530.699219 948.789062 531.675781 948.664062 532.757812 C 948.550781 533.761719 947.703125 534.503906 946.710938 534.503906 Z M 946.710938 534.503906 " fill-opacity="1" fill-rule="nonzero"/></g><g clip-path="url(#5ee700d536)"><path fill="#8c8c8c" d="M 1106.835938 527.957031 C 1105.808594 527.957031 1104.949219 527.167969 1104.867188 526.128906 C 1104.789062 525.042969 1105.601562 524.09375 1106.6875 524.015625 L 1121.328125 522.933594 C 1122.414062 522.855469 1123.363281 523.667969 1123.441406 524.753906 C 1123.519531 525.84375 1122.707031 526.789062 1121.621094 526.867188 L 1106.980469 527.949219 C 1106.933594 527.949219 1106.882812 527.957031 1106.835938 527.957031 Z M 1106.835938 527.957031 " fill-opacity="1" fill-rule="nonzero"/></g><path fill="#8c8c8c" d="M 1099.039062 579.976562 C 1098.5 579.976562 1097.957031 579.757812 1097.570312 579.316406 L 1087.789062 568.371094 C 1087.0625 567.5625 1087.136719 566.316406 1087.949219 565.589844 C 1088.757812 564.859375 1090.003906 564.933594 1090.734375 565.746094 L 1100.511719 576.691406 C 1101.238281 577.503906 1101.164062 578.75 1100.355469 579.476562 C 1099.976562 579.8125 1099.507812 579.976562 1099.039062 579.976562 Z M 1099.039062 579.976562 " fill-opacity="1" fill-rule="nonzero"/></svg>