<svg xmlns="http://www.w3.org/2000/svg" xmlns:xlink="http://www.w3.org/1999/xlink" width="2000" zoomAndPan="magnify" viewBox="0 0 1500 824.999997" height="1100" preserveAspectRatio="xMidYMid meet" version="1.0"><defs><g/><clipPath id="47888b2cfb"><path d="M 826.34375 351.605469 L 1322.578125 351.605469 L 1322.578125 473.394531 L 826.34375 473.394531 Z M 826.34375 351.605469 " clip-rule="nonzero"/></clipPath><clipPath id="515deaac4e"><path d="M 850.34375 351.605469 L 1298.578125 351.605469 C 1311.832031 351.605469 1322.578125 362.351562 1322.578125 375.605469 L 1322.578125 449.394531 C 1322.578125 462.648438 1311.832031 473.394531 1298.578125 473.394531 L 850.34375 473.394531 C 837.085938 473.394531 826.34375 462.648438 826.34375 449.394531 L 826.34375 375.605469 C 826.34375 362.351562 837.085938 351.605469 850.34375 351.605469 Z M 850.34375 351.605469 " clip-rule="nonzero"/></clipPath><clipPath id="23bd347db6"><path d="M 177.421875 375 L 217 375 L 217 414 L 177.421875 414 Z M 177.421875 375 " clip-rule="nonzero"/></clipPath><clipPath id="5d8f8c338b"><path d="M 177.421875 425 L 217 425 L 217 463.988281 L 177.421875 463.988281 Z M 177.421875 425 " clip-rule="nonzero"/></clipPath><clipPath id="2cccf0aa69"><path d="M 227 425 L 267 425 L 267 463.988281 L 227 463.988281 Z M 227 425 " clip-rule="nonzero"/></clipPath></defs><g clip-path="url(#47888b2cfb)"><g clip-path="url(#515deaac4e)"><path fill="#ececec" d="M 826.34375 351.605469 L 1322.578125 351.605469 L 1322.578125 473.394531 L 826.34375 473.394531 Z M 826.34375 351.605469 " fill-opacity="1" fill-rule="nonzero"/></g></g><g clip-path="url(#23bd347db6)"><path fill="#6db4f2" d="M 180.199219 375.121094 L 213.523438 375.121094 C 213.890625 375.121094 214.246094 375.191406 214.585938 375.332031 C 214.925781 375.472656 215.226562 375.675781 215.484375 375.9375 C 215.746094 376.195312 215.945312 376.496094 216.089844 376.835938 C 216.230469 377.175781 216.300781 377.53125 216.300781 377.898438 L 216.300781 411.222656 C 216.300781 411.59375 216.230469 411.945312 216.089844 412.285156 C 215.945312 412.625 215.746094 412.925781 215.484375 413.1875 C 215.226562 413.449219 214.925781 413.648438 214.585938 413.789062 C 214.246094 413.929688 213.890625 414 213.523438 414 L 180.199219 414 C 179.828125 414 179.476562 413.929688 179.136719 413.789062 C 178.792969 413.648438 178.496094 413.449219 178.234375 413.1875 C 177.972656 412.925781 177.773438 412.625 177.632812 412.285156 C 177.492188 411.945312 177.421875 411.59375 177.421875 411.222656 L 177.421875 377.898438 C 177.421875 377.53125 177.492188 377.175781 177.632812 376.835938 C 177.773438 376.496094 177.972656 376.195312 178.234375 375.9375 C 178.496094 375.675781 178.792969 375.472656 179.136719 375.332031 C 179.476562 375.191406 179.828125 375.121094 180.199219 375.121094 Z M 180.199219 375.121094 " fill-opacity="1" fill-rule="nonzero"/></g><g clip-path="url(#5d8f8c338b)"><path fill="#6db4f2" d="M 180.199219 425.109375 L 213.523438 425.109375 C 213.890625 425.109375 214.246094 425.179688 214.585938 425.320312 C 214.925781 425.460938 215.226562 425.660156 215.484375 425.921875 C 215.746094 426.179688 215.945312 426.480469 216.089844 426.820312 C 216.230469 427.164062 216.300781 427.515625 216.300781 427.886719 L 216.300781 461.210938 C 216.300781 461.578125 216.230469 461.933594 216.089844 462.273438 C 215.945312 462.613281 215.746094 462.914062 215.484375 463.171875 C 215.226562 463.433594 214.925781 463.632812 214.585938 463.773438 C 214.246094 463.917969 213.890625 463.988281 213.523438 463.988281 L 180.199219 463.988281 C 179.828125 463.988281 179.476562 463.917969 179.136719 463.773438 C 178.792969 463.632812 178.496094 463.433594 178.234375 463.171875 C 177.972656 462.914062 177.773438 462.613281 177.632812 462.273438 C 177.492188 461.933594 177.421875 461.578125 177.421875 461.210938 L 177.421875 427.886719 C 177.421875 427.515625 177.492188 427.164062 177.632812 426.820312 C 177.773438 426.480469 177.972656 426.179688 178.234375 425.921875 C 178.496094 425.660156 178.792969 425.460938 179.136719 425.320312 C 179.476562 425.179688 179.828125 425.109375 180.199219 425.109375 Z M 180.199219 425.109375 " fill-opacity="1" fill-rule="nonzero"/></g><g clip-path="url(#2cccf0aa69)"><path fill="#6db4f2" d="M 230.183594 425.109375 L 263.507812 425.109375 C 263.875 425.109375 264.230469 425.179688 264.570312 425.320312 C 264.910156 425.460938 265.210938 425.660156 265.472656 425.921875 C 265.730469 426.179688 265.933594 426.480469 266.074219 426.820312 C 266.214844 427.164062 266.285156 427.515625 266.285156 427.886719 L 266.285156 461.210938 C 266.285156 461.578125 266.214844 461.933594 266.074219 462.273438 C 265.933594 462.613281 265.730469 462.914062 265.472656 463.171875 C 265.210938 463.433594 264.910156 463.632812 264.570312 463.773438 C 264.230469 463.917969 263.875 463.988281 263.507812 463.988281 L 230.183594 463.988281 C 229.816406 463.988281 229.460938 463.917969 229.121094 463.773438 C 228.78125 463.632812 228.480469 463.433594 228.21875 463.171875 C 227.960938 462.914062 227.757812 462.613281 227.617188 462.273438 C 227.476562 461.933594 227.40625 461.578125 227.40625 461.210938 L 227.40625 427.886719 C 227.40625 427.515625 227.476562 427.164062 227.617188 426.820312 C 227.757812 426.480469 227.960938 426.179688 228.21875 425.921875 C 228.480469 425.660156 228.78125 425.460938 229.121094 425.320312 C 229.460938 425.179688 229.816406 425.109375 230.183594 425.109375 Z M 230.183594 425.109375 " fill-opacity="1" fill-rule="nonzero"/></g><path fill="#6db4f2" d="M 233.261719 375.492188 L 262.121094 358.832031 C 262.4375 358.648438 262.78125 358.53125 263.144531 358.484375 C 263.511719 358.433594 263.871094 358.457031 264.226562 358.554688 C 264.582031 358.648438 264.90625 358.808594 265.199219 359.035156 C 265.492188 359.257812 265.730469 359.527344 265.914062 359.847656 L 282.574219 388.707031 C 282.757812 389.027344 282.875 389.367188 282.921875 389.734375 C 282.972656 390.097656 282.949219 390.457031 282.851562 390.816406 C 282.757812 391.171875 282.597656 391.496094 282.375 391.785156 C 282.148438 392.078125 281.878906 392.316406 281.558594 392.5 L 252.699219 409.164062 C 252.378906 409.347656 252.039062 409.464844 251.671875 409.511719 C 251.308594 409.558594 250.949219 409.535156 250.59375 409.441406 C 250.238281 409.34375 249.914062 409.183594 249.621094 408.960938 C 249.328125 408.738281 249.089844 408.464844 248.90625 408.144531 L 232.242188 379.285156 C 232.058594 378.96875 231.941406 378.625 231.894531 378.261719 C 231.847656 377.894531 231.871094 377.535156 231.964844 377.179688 C 232.0625 376.824219 232.222656 376.5 232.445312 376.207031 C 232.667969 375.914062 232.941406 375.675781 233.261719 375.492188 Z M 233.261719 375.492188 " fill-opacity="1" fill-rule="nonzero"/><g fill="#000212" fill-opacity="1"><g transform="translate(937.638462, 434.829852)"><g><path d="M 39.75 -11.53125 C 39.75 -7.851562 38.367188 -5.007812 35.609375 -3 C 32.859375 -1 29.035156 0 24.140625 0 L 3.921875 0 L 3.921875 -40.40625 L 22.421875 -40.40625 C 27.359375 -40.40625 31.09375 -39.550781 33.625 -37.84375 C 36.15625 -36.132812 37.421875 -33.601562 37.421875 -30.25 C 37.421875 -27.957031 36.785156 -26.019531 35.515625 -24.4375 C 34.242188 -22.863281 32.3125 -21.800781 29.71875 -21.25 C 32.976562 -20.863281 35.460938 -19.832031 37.171875 -18.15625 C 38.890625 -16.488281 39.75 -14.28125 39.75 -11.53125 Z M 28.90625 -29.109375 C 28.90625 -30.921875 28.328125 -32.207031 27.171875 -32.96875 C 26.015625 -33.738281 24.300781 -34.125 22.03125 -34.125 L 12.390625 -34.125 L 12.390625 -24.125 L 22.078125 -24.125 C 24.472656 -24.125 26.207031 -24.535156 27.28125 -25.359375 C 28.363281 -26.191406 28.90625 -27.441406 28.90625 -29.109375 Z M 31.265625 -12.1875 C 31.265625 -15.96875 28.546875 -17.859375 23.109375 -17.859375 L 12.390625 -17.859375 L 12.390625 -6.28125 L 23.4375 -6.28125 C 26.144531 -6.28125 28.125 -6.769531 29.375 -7.75 C 30.632812 -8.738281 31.265625 -10.21875 31.265625 -12.1875 Z M 31.265625 -12.1875 "/></g></g></g><g fill="#000212" fill-opacity="1"><g transform="translate(980.051431, 434.829852)"><g><path d="M 16.8125 0.578125 C 12.144531 0.578125 8.554688 -0.800781 6.046875 -3.5625 C 3.546875 -6.332031 2.296875 -10.363281 2.296875 -15.65625 C 2.296875 -20.78125 3.566406 -24.71875 6.109375 -27.46875 C 8.648438 -30.226562 12.253906 -31.609375 16.921875 -31.609375 C 21.378906 -31.609375 24.78125 -30.128906 27.125 -27.171875 C 29.476562 -24.222656 30.65625 -19.898438 30.65625 -14.203125 L 30.65625 -13.96875 L 10.75 -13.96875 C 10.75 -10.945312 11.304688 -8.664062 12.421875 -7.125 C 13.546875 -5.582031 15.140625 -4.8125 17.203125 -4.8125 C 20.054688 -4.8125 21.851562 -6.046875 22.59375 -8.515625 L 30.203125 -7.859375 C 28.003906 -2.234375 23.539062 0.578125 16.8125 0.578125 Z M 16.8125 -26.53125 C 14.914062 -26.53125 13.453125 -25.867188 12.421875 -24.546875 C 11.398438 -23.222656 10.863281 -21.378906 10.8125 -19.015625 L 22.859375 -19.015625 C 22.703125 -21.515625 22.097656 -23.390625 21.046875 -24.640625 C 19.992188 -25.898438 18.582031 -26.53125 16.8125 -26.53125 Z M 16.8125 -26.53125 "/></g></g></g><g fill="#000212" fill-opacity="1"><g transform="translate(1012.714292, 434.829852)"><g><path d="M 12.046875 0.515625 C 9.671875 0.515625 7.84375 -0.128906 6.5625 -1.421875 C 5.28125 -2.710938 4.640625 -4.664062 4.640625 -7.28125 L 4.640625 -25.578125 L 0.71875 -25.578125 L 0.71875 -31.03125 L 5.046875 -31.03125 L 7.578125 -38.3125 L 12.625 -38.3125 L 12.625 -31.03125 L 18.5 -31.03125 L 18.5 -25.578125 L 12.625 -25.578125 L 12.625 -9.46875 C 12.625 -7.957031 12.910156 -6.84375 13.484375 -6.125 C 14.054688 -5.40625 14.941406 -5.046875 16.140625 -5.046875 C 16.773438 -5.046875 17.675781 -5.179688 18.84375 -5.453125 L 18.84375 -0.453125 C 16.851562 0.191406 14.585938 0.515625 12.046875 0.515625 Z M 12.046875 0.515625 "/></g></g></g><g fill="#000212" fill-opacity="1"><g transform="translate(1032.271861, 434.829852)"><g><path d="M 11.265625 0.578125 C 8.265625 0.578125 5.921875 -0.238281 4.234375 -1.875 C 2.554688 -3.507812 1.71875 -5.8125 1.71875 -8.78125 C 1.71875 -11.988281 2.765625 -14.429688 4.859375 -16.109375 C 6.953125 -17.796875 9.988281 -18.660156 13.96875 -18.703125 L 20.65625 -18.8125 L 20.65625 -20.390625 C 20.65625 -22.421875 20.300781 -23.925781 19.59375 -24.90625 C 18.882812 -25.894531 17.726562 -26.390625 16.125 -26.390625 C 14.625 -26.390625 13.523438 -26.046875 12.828125 -25.359375 C 12.128906 -24.679688 11.695312 -23.5625 11.53125 -22 L 3.125 -22.390625 C 3.644531 -25.410156 5.023438 -27.703125 7.265625 -29.265625 C 9.515625 -30.828125 12.582031 -31.609375 16.46875 -31.609375 C 20.382812 -31.609375 23.398438 -30.640625 25.515625 -28.703125 C 27.640625 -26.773438 28.703125 -24.035156 28.703125 -20.484375 L 28.703125 -9.171875 C 28.703125 -7.429688 28.898438 -6.234375 29.296875 -5.578125 C 29.691406 -4.921875 30.347656 -4.59375 31.265625 -4.59375 C 31.867188 -4.59375 32.457031 -4.648438 33.03125 -4.765625 L 33.03125 -0.40625 C 32.5625 -0.289062 32.132812 -0.179688 31.75 -0.078125 C 31.363281 0.015625 30.976562 0.0859375 30.59375 0.140625 C 30.21875 0.203125 29.8125 0.25 29.375 0.28125 C 28.945312 0.320312 28.445312 0.34375 27.875 0.34375 C 25.84375 0.34375 24.34375 -0.148438 23.375 -1.140625 C 22.414062 -2.140625 21.84375 -3.601562 21.65625 -5.53125 L 21.484375 -5.53125 C 19.222656 -1.457031 15.816406 0.578125 11.265625 0.578125 Z M 20.65625 -14.375 L 16.515625 -14.3125 C 14.640625 -14.238281 13.3125 -14.03125 12.53125 -13.6875 C 11.75 -13.351562 11.148438 -12.84375 10.734375 -12.15625 C 10.328125 -11.46875 10.125 -10.550781 10.125 -9.40625 C 10.125 -7.9375 10.460938 -6.84375 11.140625 -6.125 C 11.816406 -5.40625 12.722656 -5.046875 13.859375 -5.046875 C 15.117188 -5.046875 16.269531 -5.390625 17.3125 -6.078125 C 18.351562 -6.765625 19.171875 -7.710938 19.765625 -8.921875 C 20.359375 -10.140625 20.65625 -11.429688 20.65625 -12.796875 Z M 20.65625 -14.375 "/></g></g></g><g fill="#000212" fill-opacity="1"><g transform="translate(1064.934722, 434.829852)"><g/></g></g><g fill="#000212" fill-opacity="1"><g transform="translate(1081.251814, 434.829852)"><g><path d="M 30.25 -20.21875 C 30.25 -13.394531 29.078125 -8.222656 26.734375 -4.703125 C 24.398438 -1.179688 20.890625 0.578125 16.203125 0.578125 C 6.953125 0.578125 2.328125 -6.351562 2.328125 -20.21875 C 2.328125 -25.050781 2.832031 -29 3.84375 -32.0625 C 4.851562 -35.125 6.367188 -37.378906 8.390625 -38.828125 C 10.421875 -40.285156 13.101562 -41.015625 16.4375 -41.015625 C 21.21875 -41.015625 24.710938 -39.28125 26.921875 -35.8125 C 29.140625 -32.351562 30.25 -27.15625 30.25 -20.21875 Z M 22.171875 -20.21875 C 22.171875 -23.945312 21.988281 -26.84375 21.625 -28.90625 C 21.257812 -30.96875 20.675781 -32.445312 19.875 -33.34375 C 19.070312 -34.25 17.90625 -34.703125 16.375 -34.703125 C 14.75 -34.703125 13.519531 -34.25 12.6875 -33.34375 C 11.851562 -32.4375 11.257812 -30.953125 10.90625 -28.890625 C 10.550781 -26.835938 10.375 -23.945312 10.375 -20.21875 C 10.375 -16.53125 10.5625 -13.644531 10.9375 -11.5625 C 11.3125 -9.488281 11.90625 -8.003906 12.71875 -7.109375 C 13.53125 -6.210938 14.710938 -5.765625 16.265625 -5.765625 C 17.796875 -5.765625 18.972656 -6.238281 19.796875 -7.1875 C 20.628906 -8.132812 21.234375 -9.648438 21.609375 -11.734375 C 21.984375 -13.816406 22.171875 -16.644531 22.171875 -20.21875 Z M 22.171875 -20.21875 "/></g></g></g><g fill="#000212" fill-opacity="1"><g transform="translate(1113.914675, 434.829852)"><g><path d="M 3.984375 0 L 3.984375 -8.75 L 12.28125 -8.75 L 12.28125 0 Z M 3.984375 0 "/></g></g></g><g fill="#000212" fill-opacity="1"><g transform="translate(1130.231767, 434.829852)"><g><path d="M 30.25 -20.21875 C 30.25 -13.394531 29.078125 -8.222656 26.734375 -4.703125 C 24.398438 -1.179688 20.890625 0.578125 16.203125 0.578125 C 6.953125 0.578125 2.328125 -6.351562 2.328125 -20.21875 C 2.328125 -25.050781 2.832031 -29 3.84375 -32.0625 C 4.851562 -35.125 6.367188 -37.378906 8.390625 -38.828125 C 10.421875 -40.285156 13.101562 -41.015625 16.4375 -41.015625 C 21.21875 -41.015625 24.710938 -39.28125 26.921875 -35.8125 C 29.140625 -32.351562 30.25 -27.15625 30.25 -20.21875 Z M 22.171875 -20.21875 C 22.171875 -23.945312 21.988281 -26.84375 21.625 -28.90625 C 21.257812 -30.96875 20.675781 -32.445312 19.875 -33.34375 C 19.070312 -34.25 17.90625 -34.703125 16.375 -34.703125 C 14.75 -34.703125 13.519531 -34.25 12.6875 -33.34375 C 11.851562 -32.4375 11.257812 -30.953125 10.90625 -28.890625 C 10.550781 -26.835938 10.375 -23.945312 10.375 -20.21875 C 10.375 -16.53125 10.5625 -13.644531 10.9375 -11.5625 C 11.3125 -9.488281 11.90625 -8.003906 12.71875 -7.109375 C 13.53125 -6.210938 14.710938 -5.765625 16.265625 -5.765625 C 17.796875 -5.765625 18.972656 -6.238281 19.796875 -7.1875 C 20.628906 -8.132812 21.234375 -9.648438 21.609375 -11.734375 C 21.984375 -13.816406 22.171875 -16.644531 22.171875 -20.21875 Z M 22.171875 -20.21875 "/></g></g></g><g fill="#000212" fill-opacity="1"><g transform="translate(1162.894629, 434.829852)"><g><path d="M 3.984375 0 L 3.984375 -8.75 L 12.28125 -8.75 L 12.28125 0 Z M 3.984375 0 "/></g></g></g><g fill="#000212" fill-opacity="1"><g transform="translate(1179.211721, 434.829852)"><g><path d="M 26.953125 -8.234375 L 26.953125 0 L 19.265625 0 L 19.265625 -8.234375 L 0.890625 -8.234375 L 0.890625 -14.28125 L 17.953125 -40.40625 L 26.953125 -40.40625 L 26.953125 -14.21875 L 32.34375 -14.21875 L 32.34375 -8.234375 Z M 19.265625 -27.453125 C 19.265625 -28.484375 19.296875 -29.597656 19.359375 -30.796875 C 19.429688 -32.003906 19.488281 -32.78125 19.53125 -33.125 C 19.03125 -32.050781 18.128906 -30.503906 16.828125 -28.484375 L 7.453125 -14.21875 L 19.265625 -14.21875 Z M 19.265625 -27.453125 "/></g></g></g><g fill="#ffffff" fill-opacity="1"><g transform="translate(324.768036, 443.66089)"><g><path d="M 5.453125 0 L 5.453125 -62.78125 L 30.234375 -62.78125 C 34.992188 -62.78125 39.046875 -61.875 42.390625 -60.0625 C 45.742188 -58.257812 48.304688 -55.757812 50.078125 -52.5625 C 51.847656 -49.363281 52.734375 -45.679688 52.734375 -41.515625 C 52.734375 -37.335938 51.832031 -33.660156 50.03125 -30.484375 C 48.226562 -27.304688 45.625 -24.820312 42.21875 -23.03125 C 38.820312 -21.25 34.710938 -20.359375 29.890625 -20.359375 L 18.734375 -20.359375 L 18.734375 0 Z M 18.734375 -31 L 27.75 -31 C 31.550781 -31 34.382812 -31.972656 36.25 -33.921875 C 38.125 -35.867188 39.0625 -38.398438 39.0625 -41.515625 C 39.0625 -44.640625 38.125 -47.15625 36.25 -49.0625 C 34.382812 -50.976562 31.53125 -51.9375 27.6875 -51.9375 L 18.734375 -51.9375 Z M 18.734375 -31 "/></g></g></g><g fill="#ffffff" fill-opacity="1"><g transform="translate(380.680089, 443.66089)"><g><path d="M 18.640625 0.890625 C 14.140625 0.890625 10.40625 -0.28125 7.4375 -2.625 C 4.476562 -4.976562 3 -8.488281 3 -13.15625 C 3 -16.664062 3.828125 -19.421875 5.484375 -21.421875 C 7.140625 -23.429688 9.3125 -24.898438 12 -25.828125 C 14.6875 -26.753906 17.582031 -27.363281 20.6875 -27.65625 C 24.78125 -28.0625 27.703125 -28.488281 29.453125 -28.9375 C 31.210938 -29.382812 32.09375 -30.363281 32.09375 -31.875 L 32.09375 -32.0625 C 32.09375 -34.007812 31.484375 -35.515625 30.265625 -36.578125 C 29.054688 -37.640625 27.335938 -38.171875 25.109375 -38.171875 C 22.753906 -38.171875 20.878906 -37.65625 19.484375 -36.625 C 18.097656 -35.601562 17.179688 -34.304688 16.734375 -32.734375 L 4.65625 -33.71875 C 5.5625 -38.007812 7.796875 -41.410156 11.359375 -43.921875 C 14.921875 -46.441406 19.523438 -47.703125 25.171875 -47.703125 C 28.660156 -47.703125 31.925781 -47.148438 34.96875 -46.046875 C 38.019531 -44.941406 40.476562 -43.21875 42.34375 -40.875 C 44.21875 -38.539062 45.15625 -35.503906 45.15625 -31.765625 L 45.15625 0 L 32.765625 0 L 32.765625 -6.53125 L 32.40625 -6.53125 C 31.257812 -4.34375 29.546875 -2.554688 27.265625 -1.171875 C 24.984375 0.203125 22.109375 0.890625 18.640625 0.890625 Z M 22.375 -8.125 C 25.238281 -8.125 27.585938 -8.957031 29.421875 -10.625 C 31.265625 -12.289062 32.1875 -14.359375 32.1875 -16.828125 L 32.1875 -21.828125 C 31.675781 -21.484375 30.882812 -21.175781 29.8125 -20.90625 C 28.738281 -20.644531 27.59375 -20.414062 26.375 -20.21875 C 25.164062 -20.019531 24.078125 -19.851562 23.109375 -19.71875 C 20.828125 -19.382812 18.984375 -18.738281 17.578125 -17.78125 C 16.179688 -16.820312 15.484375 -15.421875 15.484375 -13.578125 C 15.484375 -11.785156 16.128906 -10.425781 17.421875 -9.5 C 18.722656 -8.582031 20.375 -8.125 22.375 -8.125 Z M 22.375 -8.125 "/></g></g></g><g fill="#ffffff" fill-opacity="1"><g transform="translate(430.76797, 443.66089)"><g><path d="M 22.5625 0.765625 C 18.988281 0.765625 15.757812 -0.15625 12.875 -2 C 9.988281 -3.851562 7.695312 -6.582031 6 -10.1875 C 4.3125 -13.800781 3.46875 -18.234375 3.46875 -23.484375 C 3.46875 -28.878906 4.335938 -33.367188 6.078125 -36.953125 C 7.828125 -40.546875 10.144531 -43.234375 13.03125 -45.015625 C 15.925781 -46.804688 19.09375 -47.703125 22.53125 -47.703125 C 25.164062 -47.703125 27.367188 -47.253906 29.140625 -46.359375 C 30.910156 -45.472656 32.34375 -44.375 33.4375 -43.0625 C 34.53125 -41.757812 35.359375 -40.460938 35.921875 -39.171875 L 36.328125 -39.171875 L 36.328125 -62.78125 L 49.359375 -62.78125 L 49.359375 0 L 36.484375 0 L 36.484375 -7.546875 L 35.921875 -7.546875 C 35.335938 -6.234375 34.484375 -4.9375 33.359375 -3.65625 C 32.234375 -2.382812 30.785156 -1.328125 29.015625 -0.484375 C 27.242188 0.347656 25.09375 0.765625 22.5625 0.765625 Z M 26.703125 -9.625 C 29.847656 -9.625 32.285156 -10.894531 34.015625 -13.4375 C 35.742188 -15.988281 36.609375 -19.359375 36.609375 -23.546875 C 36.609375 -27.753906 35.75 -31.097656 34.03125 -33.578125 C 32.3125 -36.066406 29.867188 -37.3125 26.703125 -37.3125 C 23.472656 -37.3125 21.015625 -36.035156 19.328125 -33.484375 C 17.640625 -30.941406 16.796875 -27.628906 16.796875 -23.546875 C 16.796875 -19.429688 17.644531 -16.082031 19.34375 -13.5 C 21.039062 -10.914062 23.492188 -9.625 26.703125 -9.625 Z M 26.703125 -9.625 "/></g></g></g><g fill="#ffffff" fill-opacity="1"><g transform="translate(485.60714, 443.66089)"><g><path d="M 22.5625 0.765625 C 18.988281 0.765625 15.757812 -0.15625 12.875 -2 C 9.988281 -3.851562 7.695312 -6.582031 6 -10.1875 C 4.3125 -13.800781 3.46875 -18.234375 3.46875 -23.484375 C 3.46875 -28.878906 4.335938 -33.367188 6.078125 -36.953125 C 7.828125 -40.546875 10.144531 -43.234375 13.03125 -45.015625 C 15.925781 -46.804688 19.09375 -47.703125 22.53125 -47.703125 C 25.164062 -47.703125 27.367188 -47.253906 29.140625 -46.359375 C 30.910156 -45.472656 32.34375 -44.375 33.4375 -43.0625 C 34.53125 -41.757812 35.359375 -40.460938 35.921875 -39.171875 L 36.328125 -39.171875 L 36.328125 -62.78125 L 49.359375 -62.78125 L 49.359375 0 L 36.484375 0 L 36.484375 -7.546875 L 35.921875 -7.546875 C 35.335938 -6.234375 34.484375 -4.9375 33.359375 -3.65625 C 32.234375 -2.382812 30.785156 -1.328125 29.015625 -0.484375 C 27.242188 0.347656 25.09375 0.765625 22.5625 0.765625 Z M 26.703125 -9.625 C 29.847656 -9.625 32.285156 -10.894531 34.015625 -13.4375 C 35.742188 -15.988281 36.609375 -19.359375 36.609375 -23.546875 C 36.609375 -27.753906 35.75 -31.097656 34.03125 -33.578125 C 32.3125 -36.066406 29.867188 -37.3125 26.703125 -37.3125 C 23.472656 -37.3125 21.015625 -36.035156 19.328125 -33.484375 C 17.640625 -30.941406 16.796875 -27.628906 16.796875 -23.546875 C 16.796875 -19.429688 17.644531 -16.082031 19.34375 -13.5 C 21.039062 -10.914062 23.492188 -9.625 26.703125 -9.625 Z M 26.703125 -9.625 "/></g></g></g><g fill="#ffffff" fill-opacity="1"><g transform="translate(540.446309, 443.66089)"><g><path d="M 18.640625 0.890625 C 14.140625 0.890625 10.40625 -0.28125 7.4375 -2.625 C 4.476562 -4.976562 3 -8.488281 3 -13.15625 C 3 -16.664062 3.828125 -19.421875 5.484375 -21.421875 C 7.140625 -23.429688 9.3125 -24.898438 12 -25.828125 C 14.6875 -26.753906 17.582031 -27.363281 20.6875 -27.65625 C 24.78125 -28.0625 27.703125 -28.488281 29.453125 -28.9375 C 31.210938 -29.382812 32.09375 -30.363281 32.09375 -31.875 L 32.09375 -32.0625 C 32.09375 -34.007812 31.484375 -35.515625 30.265625 -36.578125 C 29.054688 -37.640625 27.335938 -38.171875 25.109375 -38.171875 C 22.753906 -38.171875 20.878906 -37.65625 19.484375 -36.625 C 18.097656 -35.601562 17.179688 -34.304688 16.734375 -32.734375 L 4.65625 -33.71875 C 5.5625 -38.007812 7.796875 -41.410156 11.359375 -43.921875 C 14.921875 -46.441406 19.523438 -47.703125 25.171875 -47.703125 C 28.660156 -47.703125 31.925781 -47.148438 34.96875 -46.046875 C 38.019531 -44.941406 40.476562 -43.21875 42.34375 -40.875 C 44.21875 -38.539062 45.15625 -35.503906 45.15625 -31.765625 L 45.15625 0 L 32.765625 0 L 32.765625 -6.53125 L 32.40625 -6.53125 C 31.257812 -4.34375 29.546875 -2.554688 27.265625 -1.171875 C 24.984375 0.203125 22.109375 0.890625 18.640625 0.890625 Z M 22.375 -8.125 C 25.238281 -8.125 27.585938 -8.957031 29.421875 -10.625 C 31.265625 -12.289062 32.1875 -14.359375 32.1875 -16.828125 L 32.1875 -21.828125 C 31.675781 -21.484375 30.882812 -21.175781 29.8125 -20.90625 C 28.738281 -20.644531 27.59375 -20.414062 26.375 -20.21875 C 25.164062 -20.019531 24.078125 -19.851562 23.109375 -19.71875 C 20.828125 -19.382812 18.984375 -18.738281 17.578125 -17.78125 C 16.179688 -16.820312 15.484375 -15.421875 15.484375 -13.578125 C 15.484375 -11.785156 16.128906 -10.425781 17.421875 -9.5 C 18.722656 -8.582031 20.375 -8.125 22.375 -8.125 Z M 22.375 -8.125 "/></g></g></g><g fill="#6db4f2" fill-opacity="1"><g transform="translate(590.537559, 443.66089)"><g><path d="M 14.5 0 L 1.6875 -47.09375 L 14.90625 -47.09375 L 22.1875 -15.453125 L 22.625 -15.453125 L 30.234375 -47.09375 L 43.1875 -47.09375 L 50.921875 -15.640625 L 51.3125 -15.640625 L 58.5 -47.09375 L 71.671875 -47.09375 L 58.890625 0 L 45.0625 0 L 36.96875 -29.609375 L 36.390625 -29.609375 L 28.296875 0 Z M 14.5 0 "/></g></g></g><g fill="#6db4f2" fill-opacity="1"><g transform="translate(663.922119, 443.66089)"><g><path d="M 18.640625 0.890625 C 14.140625 0.890625 10.40625 -0.28125 7.4375 -2.625 C 4.476562 -4.976562 3 -8.488281 3 -13.15625 C 3 -16.664062 3.828125 -19.421875 5.484375 -21.421875 C 7.140625 -23.429688 9.3125 -24.898438 12 -25.828125 C 14.6875 -26.753906 17.582031 -27.363281 20.6875 -27.65625 C 24.78125 -28.0625 27.703125 -28.488281 29.453125 -28.9375 C 31.210938 -29.382812 32.09375 -30.363281 32.09375 -31.875 L 32.09375 -32.0625 C 32.09375 -34.007812 31.484375 -35.515625 30.265625 -36.578125 C 29.054688 -37.640625 27.335938 -38.171875 25.109375 -38.171875 C 22.753906 -38.171875 20.878906 -37.65625 19.484375 -36.625 C 18.097656 -35.601562 17.179688 -34.304688 16.734375 -32.734375 L 4.65625 -33.71875 C 5.5625 -38.007812 7.796875 -41.410156 11.359375 -43.921875 C 14.921875 -46.441406 19.523438 -47.703125 25.171875 -47.703125 C 28.660156 -47.703125 31.925781 -47.148438 34.96875 -46.046875 C 38.019531 -44.941406 40.476562 -43.21875 42.34375 -40.875 C 44.21875 -38.539062 45.15625 -35.503906 45.15625 -31.765625 L 45.15625 0 L 32.765625 0 L 32.765625 -6.53125 L 32.40625 -6.53125 C 31.257812 -4.34375 29.546875 -2.554688 27.265625 -1.171875 C 24.984375 0.203125 22.109375 0.890625 18.640625 0.890625 Z M 22.375 -8.125 C 25.238281 -8.125 27.585938 -8.957031 29.421875 -10.625 C 31.265625 -12.289062 32.1875 -14.359375 32.1875 -16.828125 L 32.1875 -21.828125 C 31.675781 -21.484375 30.882812 -21.175781 29.8125 -20.90625 C 28.738281 -20.644531 27.59375 -20.414062 26.375 -20.21875 C 25.164062 -20.019531 24.078125 -19.851562 23.109375 -19.71875 C 20.828125 -19.382812 18.984375 -18.738281 17.578125 -17.78125 C 16.179688 -16.820312 15.484375 -15.421875 15.484375 -13.578125 C 15.484375 -11.785156 16.128906 -10.425781 17.421875 -9.5 C 18.722656 -8.582031 20.375 -8.125 22.375 -8.125 Z M 22.375 -8.125 "/></g></g></g><g fill="#6db4f2" fill-opacity="1"><g transform="translate(714.01, 443.66089)"><g><path d="M 18.265625 -27.21875 L 18.265625 0 L 5.21875 0 L 5.21875 -47.09375 L 17.65625 -47.09375 L 17.65625 -38.78125 L 18.203125 -38.78125 C 19.265625 -41.519531 21.015625 -43.691406 23.453125 -45.296875 C 25.898438 -46.898438 28.875 -47.703125 32.375 -47.703125 C 37.28125 -47.703125 41.210938 -46.125 44.171875 -42.96875 C 47.140625 -39.8125 48.625 -35.484375 48.625 -29.984375 L 48.625 0 L 35.5625 0 L 35.5625 -27.65625 C 35.582031 -30.53125 34.84375 -32.78125 33.34375 -34.40625 C 31.851562 -36.03125 29.800781 -36.84375 27.1875 -36.84375 C 24.550781 -36.84375 22.410156 -36 20.765625 -34.3125 C 19.117188 -32.632812 18.285156 -30.269531 18.265625 -27.21875 Z M 18.265625 -27.21875 "/></g></g></g></svg>