<svg xmlns="http://www.w3.org/2000/svg" xmlns:xlink="http://www.w3.org/1999/xlink" width="2500" zoomAndPan="magnify" viewBox="0 0 1874.88 824.999997" height="1100" preserveAspectRatio="xMidYMid meet" version="1.0"><defs><g/><clipPath id="bdadccb71e"><path d="M 1015.980469 330.582031 L 1599.148438 330.582031 L 1599.148438 473.707031 L 1015.980469 473.707031 Z M 1015.980469 330.582031 " clip-rule="nonzero"/></clipPath><clipPath id="273f69b262"><path d="M 1045.976562 330.582031 L 1569.148438 330.582031 C 1577.105469 330.582031 1584.734375 333.746094 1590.363281 339.371094 C 1595.988281 344.996094 1599.148438 352.625 1599.148438 360.582031 L 1599.148438 443.710938 C 1599.148438 451.664062 1595.988281 459.296875 1590.363281 464.921875 C 1584.734375 470.546875 1577.105469 473.707031 1569.148438 473.707031 L 1045.976562 473.707031 C 1038.023438 473.707031 1030.390625 470.546875 1024.765625 464.921875 C 1019.140625 459.296875 1015.980469 451.664062 1015.980469 443.710938 L 1015.980469 360.582031 C 1015.980469 352.625 1019.140625 344.996094 1024.765625 339.371094 C 1030.390625 333.746094 1038.023438 330.582031 1045.976562 330.582031 Z M 1045.976562 330.582031 " clip-rule="nonzero"/></clipPath><clipPath id="37bcc5c464"><path d="M 275.90625 365.105469 L 328 365.105469 L 328 417 L 275.90625 417 Z M 275.90625 365.105469 " clip-rule="nonzero"/></clipPath><clipPath id="1db19e2587"><path d="M 299 388 L 350.152344 388 L 350.152344 439.351562 L 299 439.351562 Z M 299 388 " clip-rule="nonzero"/></clipPath></defs><g clip-path="url(#bdadccb71e)"><g clip-path="url(#273f69b262)"><path fill="#ececec" d="M 1015.980469 330.582031 L 1599.148438 330.582031 L 1599.148438 473.707031 L 1015.980469 473.707031 Z M 1015.980469 330.582031 " fill-opacity="1" fill-rule="nonzero"/></g></g><g fill="#000212" fill-opacity="1"><g transform="translate(1146.77343, 428.387264)"><g><path d="M 46.71875 -13.546875 C 46.71875 -9.234375 45.097656 -5.894531 41.859375 -3.53125 C 38.628906 -1.175781 34.132812 0 28.375 0 L 4.625 0 L 4.625 -47.5 L 26.359375 -47.5 C 32.160156 -47.5 36.546875 -46.488281 39.515625 -44.46875 C 42.492188 -42.457031 43.984375 -39.488281 43.984375 -35.5625 C 43.984375 -32.863281 43.234375 -30.585938 41.734375 -28.734375 C 40.242188 -26.878906 37.972656 -25.628906 34.921875 -24.984375 C 38.765625 -24.523438 41.691406 -23.3125 43.703125 -21.34375 C 45.710938 -19.382812 46.71875 -16.785156 46.71875 -13.546875 Z M 33.96875 -34.21875 C 33.96875 -36.351562 33.285156 -37.867188 31.921875 -38.765625 C 30.566406 -39.660156 28.554688 -40.109375 25.890625 -40.109375 L 14.5625 -40.109375 L 14.5625 -28.34375 L 25.953125 -28.34375 C 28.765625 -28.34375 30.800781 -28.832031 32.0625 -29.8125 C 33.332031 -30.789062 33.96875 -32.257812 33.96875 -34.21875 Z M 36.734375 -14.328125 C 36.734375 -18.773438 33.546875 -21 27.171875 -21 L 14.5625 -21 L 14.5625 -7.375 L 27.53125 -7.375 C 30.726562 -7.375 33.0625 -7.953125 34.53125 -9.109375 C 36 -10.273438 36.734375 -12.015625 36.734375 -14.328125 Z M 36.734375 -14.328125 "/></g></g></g><g fill="#000212" fill-opacity="1"><g transform="translate(1196.616331, 428.387264)"><g><path d="M 19.75 0.671875 C 14.269531 0.671875 10.054688 -0.945312 7.109375 -4.1875 C 4.171875 -7.4375 2.703125 -12.175781 2.703125 -18.40625 C 2.703125 -24.425781 4.191406 -29.050781 7.171875 -32.28125 C 10.160156 -35.519531 14.398438 -37.140625 19.890625 -37.140625 C 25.117188 -37.140625 29.113281 -35.40625 31.875 -31.9375 C 34.644531 -28.46875 36.03125 -23.382812 36.03125 -16.6875 L 36.03125 -16.421875 L 12.640625 -16.421875 C 12.640625 -12.867188 13.296875 -10.1875 14.609375 -8.375 C 15.921875 -6.5625 17.789062 -5.65625 20.21875 -5.65625 C 23.570312 -5.65625 25.6875 -7.109375 26.5625 -10.015625 L 35.5 -9.234375 C 32.90625 -2.628906 27.65625 0.671875 19.75 0.671875 Z M 19.75 -31.171875 C 17.53125 -31.171875 15.816406 -30.394531 14.609375 -28.84375 C 13.410156 -27.300781 12.773438 -25.132812 12.703125 -22.34375 L 26.859375 -22.34375 C 26.679688 -25.289062 25.972656 -27.5 24.734375 -28.96875 C 23.503906 -30.4375 21.84375 -31.171875 19.75 -31.171875 Z M 19.75 -31.171875 "/></g></g></g><g fill="#000212" fill-opacity="1"><g transform="translate(1235.001094, 428.387264)"><g><path d="M 14.15625 0.609375 C 11.375 0.609375 9.226562 -0.144531 7.71875 -1.65625 C 6.207031 -3.175781 5.453125 -5.476562 5.453125 -8.5625 L 5.453125 -30.0625 L 0.84375 -30.0625 L 0.84375 -36.46875 L 5.9375 -36.46875 L 8.90625 -45.03125 L 14.828125 -45.03125 L 14.828125 -36.46875 L 21.734375 -36.46875 L 21.734375 -30.0625 L 14.828125 -30.0625 L 14.828125 -11.125 C 14.828125 -9.34375 15.164062 -8.03125 15.84375 -7.1875 C 16.519531 -6.351562 17.566406 -5.9375 18.984375 -5.9375 C 19.722656 -5.9375 20.773438 -6.09375 22.140625 -6.40625 L 22.140625 -0.546875 C 19.804688 0.222656 17.144531 0.609375 14.15625 0.609375 Z M 14.15625 0.609375 "/></g></g></g><g fill="#000212" fill-opacity="1"><g transform="translate(1257.984771, 428.387264)"><g><path d="M 13.25 0.671875 C 9.71875 0.671875 6.960938 -0.285156 4.984375 -2.203125 C 3.003906 -4.128906 2.015625 -6.832031 2.015625 -10.3125 C 2.015625 -14.09375 3.242188 -16.96875 5.703125 -18.9375 C 8.171875 -20.914062 11.742188 -21.929688 16.421875 -21.984375 L 24.265625 -22.109375 L 24.265625 -23.96875 C 24.265625 -26.34375 23.847656 -28.109375 23.015625 -29.265625 C 22.191406 -30.429688 20.832031 -31.015625 18.9375 -31.015625 C 17.1875 -31.015625 15.898438 -30.613281 15.078125 -29.8125 C 14.265625 -29.007812 13.753906 -27.691406 13.546875 -25.859375 L 3.671875 -26.328125 C 4.273438 -29.878906 5.894531 -32.566406 8.53125 -34.390625 C 11.175781 -36.222656 14.78125 -37.140625 19.34375 -37.140625 C 23.945312 -37.140625 27.492188 -36.003906 29.984375 -33.734375 C 32.484375 -31.472656 33.734375 -28.25 33.734375 -24.0625 L 33.734375 -10.78125 C 33.734375 -8.738281 33.960938 -7.328125 34.421875 -6.546875 C 34.890625 -5.773438 35.660156 -5.390625 36.734375 -5.390625 C 37.453125 -5.390625 38.148438 -5.457031 38.828125 -5.59375 L 38.828125 -0.46875 C 38.265625 -0.332031 37.757812 -0.207031 37.3125 -0.09375 C 36.863281 0.0078125 36.414062 0.09375 35.96875 0.15625 C 35.519531 0.226562 35.039062 0.285156 34.53125 0.328125 C 34.03125 0.378906 33.441406 0.40625 32.765625 0.40625 C 30.378906 0.40625 28.617188 -0.175781 27.484375 -1.34375 C 26.347656 -2.507812 25.671875 -4.226562 25.453125 -6.5 L 25.25 -6.5 C 22.59375 -1.71875 18.59375 0.671875 13.25 0.671875 Z M 24.265625 -16.890625 L 19.421875 -16.8125 C 17.210938 -16.726562 15.644531 -16.488281 14.71875 -16.09375 C 13.800781 -15.695312 13.101562 -15.09375 12.625 -14.28125 C 12.144531 -13.476562 11.90625 -12.40625 11.90625 -11.0625 C 11.90625 -9.320312 12.300781 -8.03125 13.09375 -7.1875 C 13.894531 -6.351562 14.957031 -5.9375 16.28125 -5.9375 C 17.757812 -5.9375 19.109375 -6.335938 20.328125 -7.140625 C 21.554688 -7.953125 22.519531 -9.070312 23.21875 -10.5 C 23.914062 -11.925781 24.265625 -13.4375 24.265625 -15.03125 Z M 24.265625 -16.890625 "/></g></g></g><g fill="#000212" fill-opacity="1"><g transform="translate(1296.369535, 428.387264)"><g/></g></g><g fill="#000212" fill-opacity="1"><g transform="translate(1315.545066, 428.387264)"><g><path d="M 35.5625 -23.765625 C 35.5625 -15.742188 34.179688 -9.664062 31.421875 -5.53125 C 28.671875 -1.394531 24.546875 0.671875 19.046875 0.671875 C 8.171875 0.671875 2.734375 -7.472656 2.734375 -23.765625 C 2.734375 -29.453125 3.328125 -34.09375 4.515625 -37.6875 C 5.703125 -41.28125 7.488281 -43.929688 9.875 -45.640625 C 12.257812 -47.347656 15.40625 -48.203125 19.3125 -48.203125 C 24.925781 -48.203125 29.035156 -46.164062 31.640625 -42.09375 C 34.253906 -38.03125 35.5625 -31.921875 35.5625 -23.765625 Z M 26.0625 -23.765625 C 26.0625 -28.148438 25.847656 -31.550781 25.421875 -33.96875 C 24.992188 -36.394531 24.304688 -38.132812 23.359375 -39.1875 C 22.410156 -40.25 21.039062 -40.78125 19.25 -40.78125 C 17.332031 -40.78125 15.882812 -40.242188 14.90625 -39.171875 C 13.9375 -38.109375 13.242188 -36.367188 12.828125 -33.953125 C 12.410156 -31.546875 12.203125 -28.148438 12.203125 -23.765625 C 12.203125 -19.429688 12.421875 -16.039062 12.859375 -13.59375 C 13.296875 -11.15625 13.988281 -9.410156 14.9375 -8.359375 C 15.894531 -7.304688 17.285156 -6.78125 19.109375 -6.78125 C 20.910156 -6.78125 22.296875 -7.332031 23.265625 -8.4375 C 24.242188 -9.550781 24.953125 -11.332031 25.390625 -13.78125 C 25.835938 -16.226562 26.0625 -19.554688 26.0625 -23.765625 Z M 26.0625 -23.765625 "/></g></g></g><g fill="#000212" fill-opacity="1"><g transform="translate(1353.929829, 428.387264)"><g><path d="M 4.6875 0 L 4.6875 -10.28125 L 14.421875 -10.28125 L 14.421875 0 Z M 4.6875 0 "/></g></g></g><g fill="#000212" fill-opacity="1"><g transform="translate(1373.10536, 428.387264)"><g><path d="M 35.5625 -23.765625 C 35.5625 -15.742188 34.179688 -9.664062 31.421875 -5.53125 C 28.671875 -1.394531 24.546875 0.671875 19.046875 0.671875 C 8.171875 0.671875 2.734375 -7.472656 2.734375 -23.765625 C 2.734375 -29.453125 3.328125 -34.09375 4.515625 -37.6875 C 5.703125 -41.28125 7.488281 -43.929688 9.875 -45.640625 C 12.257812 -47.347656 15.40625 -48.203125 19.3125 -48.203125 C 24.925781 -48.203125 29.035156 -46.164062 31.640625 -42.09375 C 34.253906 -38.03125 35.5625 -31.921875 35.5625 -23.765625 Z M 26.0625 -23.765625 C 26.0625 -28.148438 25.847656 -31.550781 25.421875 -33.96875 C 24.992188 -36.394531 24.304688 -38.132812 23.359375 -39.1875 C 22.410156 -40.25 21.039062 -40.78125 19.25 -40.78125 C 17.332031 -40.78125 15.882812 -40.242188 14.90625 -39.171875 C 13.9375 -38.109375 13.242188 -36.367188 12.828125 -33.953125 C 12.410156 -31.546875 12.203125 -28.148438 12.203125 -23.765625 C 12.203125 -19.429688 12.421875 -16.039062 12.859375 -13.59375 C 13.296875 -11.15625 13.988281 -9.410156 14.9375 -8.359375 C 15.894531 -7.304688 17.285156 -6.78125 19.109375 -6.78125 C 20.910156 -6.78125 22.296875 -7.332031 23.265625 -8.4375 C 24.242188 -9.550781 24.953125 -11.332031 25.390625 -13.78125 C 25.835938 -16.226562 26.0625 -19.554688 26.0625 -23.765625 Z M 26.0625 -23.765625 "/></g></g></g><g fill="#000212" fill-opacity="1"><g transform="translate(1411.490123, 428.387264)"><g><path d="M 4.6875 0 L 4.6875 -10.28125 L 14.421875 -10.28125 L 14.421875 0 Z M 4.6875 0 "/></g></g></g><g fill="#000212" fill-opacity="1"><g transform="translate(1430.665654, 428.387264)"><g><path d="M 2.390625 0 L 2.390625 -6.578125 C 3.628906 -9.296875 5.390625 -11.945312 7.671875 -14.53125 C 9.953125 -17.113281 12.820312 -19.804688 16.28125 -22.609375 C 19.601562 -25.304688 21.929688 -27.53125 23.265625 -29.28125 C 24.609375 -31.039062 25.28125 -32.765625 25.28125 -34.453125 C 25.28125 -38.585938 23.203125 -40.65625 19.046875 -40.65625 C 17.023438 -40.65625 15.476562 -40.109375 14.40625 -39.015625 C 13.34375 -37.921875 12.65625 -36.285156 12.34375 -34.109375 L 2.796875 -34.65625 C 3.335938 -39.050781 4.984375 -42.40625 7.734375 -44.71875 C 10.484375 -47.039062 14.234375 -48.203125 18.984375 -48.203125 C 24.097656 -48.203125 28.023438 -47.03125 30.765625 -44.6875 C 33.515625 -42.351562 34.890625 -39.078125 34.890625 -34.859375 C 34.890625 -32.628906 34.445312 -30.613281 33.5625 -28.8125 C 32.6875 -27.019531 31.5625 -25.363281 30.1875 -23.84375 C 28.820312 -22.332031 27.300781 -20.910156 25.625 -19.578125 C 23.957031 -18.253906 22.335938 -16.960938 20.765625 -15.703125 C 19.191406 -14.441406 17.757812 -13.171875 16.46875 -11.890625 C 15.175781 -10.617188 14.210938 -9.25 13.578125 -7.78125 L 35.625 -7.78125 L 35.625 0 Z M 2.390625 0 "/></g></g></g><g clip-path="url(#37bcc5c464)"><path fill="#e52d27" d="M 281.667969 398.570312 L 299.957031 416.832031 L 327.25 388.738281 L 309.339844 370.828125 L 309.339844 370.832031 C 305.792969 367.292969 300.902344 365.105469 295.5 365.105469 C 284.679688 365.105469 275.90625 373.878906 275.90625 384.699219 C 275.90625 390.117188 278.109375 395.023438 281.667969 398.570312 Z M 281.667969 398.570312 " fill-opacity="1" fill-rule="nonzero"/></g><g clip-path="url(#1db19e2587)"><path fill="#ffffff" d="M 317.316406 434.167969 C 320.808594 437.375 325.449219 439.351562 330.558594 439.351562 C 341.382812 439.351562 350.152344 430.578125 350.152344 419.757812 C 350.152344 414.644531 348.175781 410.003906 344.96875 406.515625 L 344.996094 406.488281 L 327.25 388.738281 L 299.957031 416.832031 Z M 317.316406 434.167969 " fill-opacity="1" fill-rule="nonzero"/></g><g fill="#ffffff" fill-opacity="1"><g transform="translate(406.090152, 435.46263)"><g><path d="M 6.40625 0 L 6.40625 -73.765625 L 35.515625 -73.765625 C 41.109375 -73.765625 45.875 -72.703125 49.8125 -70.578125 C 53.75 -68.453125 56.753906 -65.507812 58.828125 -61.75 C 60.910156 -58 61.953125 -53.675781 61.953125 -48.78125 C 61.953125 -43.875 60.894531 -39.550781 58.78125 -35.8125 C 56.675781 -32.082031 53.625 -29.164062 49.625 -27.0625 C 45.625 -24.96875 40.789062 -23.921875 35.125 -23.921875 L 22.015625 -23.921875 L 22.015625 0 Z M 22.015625 -36.421875 L 32.59375 -36.421875 C 37.0625 -36.421875 40.394531 -37.566406 42.59375 -39.859375 C 44.789062 -42.148438 45.890625 -45.125 45.890625 -48.78125 C 45.890625 -52.445312 44.789062 -55.398438 42.59375 -57.640625 C 40.394531 -59.890625 37.039062 -61.015625 32.53125 -61.015625 L 22.015625 -61.015625 Z M 22.015625 -36.421875 "/></g></g></g><g fill="#ffffff" fill-opacity="1"><g transform="translate(471.761912, 435.46263)"><g><path d="M 21.90625 1.046875 C 16.613281 1.046875 12.226562 -0.332031 8.75 -3.09375 C 5.269531 -5.851562 3.53125 -9.972656 3.53125 -15.453125 C 3.53125 -19.585938 4.5 -22.828125 6.4375 -25.171875 C 8.382812 -27.523438 10.9375 -29.25 14.09375 -30.34375 C 17.257812 -31.4375 20.664062 -32.148438 24.3125 -32.484375 C 29.113281 -32.972656 32.546875 -33.476562 34.609375 -34 C 36.679688 -34.53125 37.71875 -35.6875 37.71875 -37.46875 L 37.71875 -37.671875 C 37.71875 -39.953125 37 -41.71875 35.5625 -42.96875 C 34.132812 -44.21875 32.113281 -44.84375 29.5 -44.84375 C 26.738281 -44.84375 24.539062 -44.242188 22.90625 -43.046875 C 21.269531 -41.847656 20.191406 -40.320312 19.671875 -38.46875 L 5.46875 -39.625 C 6.53125 -44.664062 9.15625 -48.660156 13.34375 -51.609375 C 17.53125 -54.566406 22.941406 -56.046875 29.578125 -56.046875 C 33.679688 -56.046875 37.519531 -55.394531 41.09375 -54.09375 C 44.675781 -52.800781 47.566406 -50.78125 49.765625 -48.03125 C 51.960938 -45.28125 53.0625 -41.707031 53.0625 -37.3125 L 53.0625 0 L 38.5 0 L 38.5 -7.671875 L 38.078125 -7.671875 C 36.734375 -5.097656 34.722656 -3 32.046875 -1.375 C 29.367188 0.238281 25.988281 1.046875 21.90625 1.046875 Z M 26.296875 -9.546875 C 29.660156 -9.546875 32.421875 -10.523438 34.578125 -12.484375 C 36.742188 -14.441406 37.828125 -16.875 37.828125 -19.78125 L 37.828125 -25.640625 C 37.222656 -25.234375 36.289062 -24.875 35.03125 -24.5625 C 33.769531 -24.25 32.425781 -23.976562 31 -23.75 C 29.570312 -23.53125 28.289062 -23.332031 27.15625 -23.15625 C 24.46875 -22.769531 22.300781 -22.015625 20.65625 -20.890625 C 19.007812 -19.765625 18.1875 -18.117188 18.1875 -15.953125 C 18.1875 -13.835938 18.945312 -12.238281 20.46875 -11.15625 C 22 -10.082031 23.941406 -9.546875 26.296875 -9.546875 Z M 26.296875 -9.546875 "/></g></g></g><g fill="#ffffff" fill-opacity="1"><g transform="translate(530.592887, 435.46263)"><g><path d="M 26.515625 0.90625 C 22.304688 0.90625 18.507812 -0.179688 15.125 -2.359375 C 11.738281 -4.535156 9.050781 -7.738281 7.0625 -11.96875 C 5.070312 -16.207031 4.078125 -21.414062 4.078125 -27.59375 C 4.078125 -33.9375 5.101562 -39.210938 7.15625 -43.421875 C 9.207031 -47.640625 11.929688 -50.796875 15.328125 -52.890625 C 18.722656 -54.992188 22.4375 -56.046875 26.46875 -56.046875 C 29.570312 -56.046875 32.160156 -55.523438 34.234375 -54.484375 C 36.316406 -53.441406 38 -52.148438 39.28125 -50.609375 C 40.5625 -49.078125 41.539062 -47.550781 42.21875 -46.03125 L 42.6875 -46.03125 L 42.6875 -73.765625 L 58 -73.765625 L 58 0 L 42.859375 0 L 42.859375 -8.859375 L 42.21875 -8.859375 C 41.519531 -7.328125 40.507812 -5.804688 39.1875 -4.296875 C 37.863281 -2.796875 36.164062 -1.550781 34.09375 -0.5625 C 32.019531 0.414062 29.492188 0.90625 26.515625 0.90625 Z M 31.375 -11.3125 C 35.070312 -11.3125 37.9375 -12.804688 39.96875 -15.796875 C 42 -18.785156 43.015625 -22.742188 43.015625 -27.671875 C 43.015625 -32.609375 42.003906 -36.535156 39.984375 -39.453125 C 37.960938 -42.378906 35.09375 -43.84375 31.375 -43.84375 C 27.582031 -43.84375 24.691406 -42.347656 22.703125 -39.359375 C 20.722656 -36.367188 19.734375 -32.472656 19.734375 -27.671875 C 19.734375 -22.835938 20.726562 -18.898438 22.71875 -15.859375 C 24.71875 -12.828125 27.601562 -11.3125 31.375 -11.3125 Z M 31.375 -11.3125 "/></g></g></g><g fill="#ffffff" fill-opacity="1"><g transform="translate(595.004523, 435.46263)"><g><path d="M 26.515625 0.90625 C 22.304688 0.90625 18.507812 -0.179688 15.125 -2.359375 C 11.738281 -4.535156 9.050781 -7.738281 7.0625 -11.96875 C 5.070312 -16.207031 4.078125 -21.414062 4.078125 -27.59375 C 4.078125 -33.9375 5.101562 -39.210938 7.15625 -43.421875 C 9.207031 -47.640625 11.929688 -50.796875 15.328125 -52.890625 C 18.722656 -54.992188 22.4375 -56.046875 26.46875 -56.046875 C 29.570312 -56.046875 32.160156 -55.523438 34.234375 -54.484375 C 36.316406 -53.441406 38 -52.148438 39.28125 -50.609375 C 40.5625 -49.078125 41.539062 -47.550781 42.21875 -46.03125 L 42.6875 -46.03125 L 42.6875 -73.765625 L 58 -73.765625 L 58 0 L 42.859375 0 L 42.859375 -8.859375 L 42.21875 -8.859375 C 41.519531 -7.328125 40.507812 -5.804688 39.1875 -4.296875 C 37.863281 -2.796875 36.164062 -1.550781 34.09375 -0.5625 C 32.019531 0.414062 29.492188 0.90625 26.515625 0.90625 Z M 31.375 -11.3125 C 35.070312 -11.3125 37.9375 -12.804688 39.96875 -15.796875 C 42 -18.785156 43.015625 -22.742188 43.015625 -27.671875 C 43.015625 -32.609375 42.003906 -36.535156 39.984375 -39.453125 C 37.960938 -42.378906 35.09375 -43.84375 31.375 -43.84375 C 27.582031 -43.84375 24.691406 -42.347656 22.703125 -39.359375 C 20.722656 -36.367188 19.734375 -32.472656 19.734375 -27.671875 C 19.734375 -22.835938 20.726562 -18.898438 22.71875 -15.859375 C 24.71875 -12.828125 27.601562 -11.3125 31.375 -11.3125 Z M 31.375 -11.3125 "/></g></g></g><g fill="#ffffff" fill-opacity="1"><g transform="translate(659.416159, 435.46263)"><g><path d="M 21.90625 1.046875 C 16.613281 1.046875 12.226562 -0.332031 8.75 -3.09375 C 5.269531 -5.851562 3.53125 -9.972656 3.53125 -15.453125 C 3.53125 -19.585938 4.5 -22.828125 6.4375 -25.171875 C 8.382812 -27.523438 10.9375 -29.25 14.09375 -30.34375 C 17.257812 -31.4375 20.664062 -32.148438 24.3125 -32.484375 C 29.113281 -32.972656 32.546875 -33.476562 34.609375 -34 C 36.679688 -34.53125 37.71875 -35.6875 37.71875 -37.46875 L 37.71875 -37.671875 C 37.71875 -39.953125 37 -41.71875 35.5625 -42.96875 C 34.132812 -44.21875 32.113281 -44.84375 29.5 -44.84375 C 26.738281 -44.84375 24.539062 -44.242188 22.90625 -43.046875 C 21.269531 -41.847656 20.191406 -40.320312 19.671875 -38.46875 L 5.46875 -39.625 C 6.53125 -44.664062 9.15625 -48.660156 13.34375 -51.609375 C 17.53125 -54.566406 22.941406 -56.046875 29.578125 -56.046875 C 33.679688 -56.046875 37.519531 -55.394531 41.09375 -54.09375 C 44.675781 -52.800781 47.566406 -50.78125 49.765625 -48.03125 C 51.960938 -45.28125 53.0625 -41.707031 53.0625 -37.3125 L 53.0625 0 L 38.5 0 L 38.5 -7.671875 L 38.078125 -7.671875 C 36.734375 -5.097656 34.722656 -3 32.046875 -1.375 C 29.367188 0.238281 25.988281 1.046875 21.90625 1.046875 Z M 26.296875 -9.546875 C 29.660156 -9.546875 32.421875 -10.523438 34.578125 -12.484375 C 36.742188 -14.441406 37.828125 -16.875 37.828125 -19.78125 L 37.828125 -25.640625 C 37.222656 -25.234375 36.289062 -24.875 35.03125 -24.5625 C 33.769531 -24.25 32.425781 -23.976562 31 -23.75 C 29.570312 -23.53125 28.289062 -23.332031 27.15625 -23.15625 C 24.46875 -22.769531 22.300781 -22.015625 20.65625 -20.890625 C 19.007812 -19.765625 18.1875 -18.117188 18.1875 -15.953125 C 18.1875 -13.835938 18.945312 -12.238281 20.46875 -11.15625 C 22 -10.082031 23.941406 -9.546875 26.296875 -9.546875 Z M 26.296875 -9.546875 "/></g></g></g><g fill="#fd4b5a" fill-opacity="1"><g transform="translate(718.291621, 435.46263)"><g><path d="M 17.03125 0 L 1.984375 -55.328125 L 17.5 -55.328125 L 26.078125 -18.15625 L 26.578125 -18.15625 L 35.515625 -55.328125 L 50.75 -55.328125 L 59.828125 -18.375 L 60.296875 -18.375 L 68.734375 -55.328125 L 84.21875 -55.328125 L 69.203125 0 L 52.953125 0 L 43.4375 -34.796875 L 42.765625 -34.796875 L 33.25 0 Z M 17.03125 0 "/></g></g></g><g fill="#fd4b5a" fill-opacity="1"><g transform="translate(804.485802, 435.46263)"><g><path d="M 21.90625 1.046875 C 16.613281 1.046875 12.226562 -0.332031 8.75 -3.09375 C 5.269531 -5.851562 3.53125 -9.972656 3.53125 -15.453125 C 3.53125 -19.585938 4.5 -22.828125 6.4375 -25.171875 C 8.382812 -27.523438 10.9375 -29.25 14.09375 -30.34375 C 17.257812 -31.4375 20.664062 -32.148438 24.3125 -32.484375 C 29.113281 -32.972656 32.546875 -33.476562 34.609375 -34 C 36.679688 -34.53125 37.71875 -35.6875 37.71875 -37.46875 L 37.71875 -37.671875 C 37.71875 -39.953125 37 -41.71875 35.5625 -42.96875 C 34.132812 -44.21875 32.113281 -44.84375 29.5 -44.84375 C 26.738281 -44.84375 24.539062 -44.242188 22.90625 -43.046875 C 21.269531 -41.847656 20.191406 -40.320312 19.671875 -38.46875 L 5.46875 -39.625 C 6.53125 -44.664062 9.15625 -48.660156 13.34375 -51.609375 C 17.53125 -54.566406 22.941406 -56.046875 29.578125 -56.046875 C 33.679688 -56.046875 37.519531 -55.394531 41.09375 -54.09375 C 44.675781 -52.800781 47.566406 -50.78125 49.765625 -48.03125 C 51.960938 -45.28125 53.0625 -41.707031 53.0625 -37.3125 L 53.0625 0 L 38.5 0 L 38.5 -7.671875 L 38.078125 -7.671875 C 36.734375 -5.097656 34.722656 -3 32.046875 -1.375 C 29.367188 0.238281 25.988281 1.046875 21.90625 1.046875 Z M 26.296875 -9.546875 C 29.660156 -9.546875 32.421875 -10.523438 34.578125 -12.484375 C 36.742188 -14.441406 37.828125 -16.875 37.828125 -19.78125 L 37.828125 -25.640625 C 37.222656 -25.234375 36.289062 -24.875 35.03125 -24.5625 C 33.769531 -24.25 32.425781 -23.976562 31 -23.75 C 29.570312 -23.53125 28.289062 -23.332031 27.15625 -23.15625 C 24.46875 -22.769531 22.300781 -22.015625 20.65625 -20.890625 C 19.007812 -19.765625 18.1875 -18.117188 18.1875 -15.953125 C 18.1875 -13.835938 18.945312 -12.238281 20.46875 -11.15625 C 22 -10.082031 23.941406 -9.546875 26.296875 -9.546875 Z M 26.296875 -9.546875 "/></g></g></g><g fill="#fd4b5a" fill-opacity="1"><g transform="translate(863.316776, 435.46263)"><g><path d="M 21.46875 -31.984375 L 21.46875 0 L 6.125 0 L 6.125 -55.328125 L 20.75 -55.328125 L 20.75 -45.5625 L 21.390625 -45.5625 C 22.640625 -48.78125 24.695312 -51.332031 27.5625 -53.21875 C 30.4375 -55.101562 33.929688 -56.046875 38.046875 -56.046875 C 43.804688 -56.046875 48.425781 -54.191406 51.90625 -50.484375 C 55.382812 -46.773438 57.125 -41.691406 57.125 -35.234375 L 57.125 0 L 41.78125 0 L 41.78125 -32.484375 C 41.8125 -35.878906 40.945312 -38.53125 39.1875 -40.4375 C 37.4375 -42.34375 35.023438 -43.296875 31.953125 -43.296875 C 28.847656 -43.296875 26.328125 -42.304688 24.390625 -40.328125 C 22.460938 -38.347656 21.488281 -35.566406 21.46875 -31.984375 Z M 21.46875 -31.984375 "/></g></g></g></svg>